<svg width="302" height="150" viewBox="0 0 302 150" fill="none" xmlns="http://www.w3.org/2000/svg">
<g style="mix-blend-mode:color-dodge">
<path d="M27.4546 143.185L26.8721 142.55L34.0375 136.202L34.62 136.836L27.4546 143.185Z" fill="#F3DA00"/>
<path d="M32.151 134.061L24.792 140.19L25.3549 140.843L32.7139 134.714L32.151 134.061Z" fill="#F3DA00"/>
<path d="M30.3349 131.875L22.7949 137.791L23.3382 138.46L30.8781 132.544L30.3349 131.875Z" fill="#F3DA00"/>
<path d="M28.5995 129.653L20.8896 135.353L21.4131 136.037L29.123 130.337L28.5995 129.653Z" fill="#F3DA00"/>
<path d="M26.9358 127.394L19.0557 132.864L19.558 133.564L27.4382 128.093L26.9358 127.394Z" fill="#F3DA00"/>
<path d="M25.3588 125.102L17.3086 130.332L17.7898 131.048L25.8399 125.818L25.3588 125.102Z" fill="#F3DA00"/>
<path d="M23.8498 122.772L15.6494 127.77L16.1083 128.498L24.3088 123.499L23.8498 122.772Z" fill="#F3DA00"/>
<path d="M22.5648 120.476L14.2188 125.248L14.6578 125.99L23.0039 121.218L22.5648 120.476Z" fill="#F3DA00"/>
<path d="M21.0629 118.007L12.5859 122.537L13.0029 123.291L21.4798 118.761L21.0629 118.007Z" fill="#F3DA00"/>
<path d="M19.782 115.592L11.1689 119.867L11.5624 120.633L20.1754 116.358L19.782 115.592Z" fill="#F3DA00"/>
<path d="M18.5745 113.137L9.8457 117.179L10.2177 117.955L18.9465 113.913L18.5745 113.137Z" fill="#F3DA00"/>
<path d="M17.4462 110.661L8.60254 114.455L8.9508 115.239L17.7944 111.446L17.4462 110.661Z" fill="#F3DA00"/>
<path d="M16.3954 108.163L7.44434 111.7L7.76979 112.496L16.7209 108.96L16.3954 108.163Z" fill="#F3DA00"/>
<path d="M15.4917 105.624L6.44238 108.915L6.74455 109.718L15.7939 106.427L15.4917 105.624Z" fill="#F3DA00"/>
<path d="M14.522 103.097L5.37695 106.122L5.65465 106.933L14.7997 103.909L14.522 103.097Z" fill="#F3DA00"/>
<path d="M13.6997 100.537L4.46973 103.301L4.7235 104.12L13.9535 101.356L13.6997 100.537Z" fill="#F3DA00"/>
<path d="M12.9546 97.9586L3.64746 100.46L3.87764 101.288L13.1848 98.7864L12.9546 97.9586Z" fill="#F3DA00"/>
<path d="M12.2799 95.3519L2.90918 97.6124L3.11671 98.444L12.4874 96.1835L12.2799 95.3519Z" fill="#F3DA00"/>
<path d="M11.6818 92.7476L2.25 94.7382L2.43321 95.5773L11.865 93.5866L11.6818 92.7476Z" fill="#F3DA00"/>
<path d="M11.1631 90.1226L1.67676 91.8554L1.83584 92.6972L11.3222 90.9645L11.1631 90.1226Z" fill="#F3DA00"/>
<path d="M10.7595 87.462L1.22852 88.9226L1.36294 89.7705L10.8939 88.3099L10.7595 87.462Z" fill="#F3DA00"/>
<path d="M10.3234 84.8795L0.753906 86.084L0.864761 86.9353L10.4343 85.7308L10.3234 84.8795Z" fill="#F3DA00"/>
<path d="M10.0605 82.1963L0.460938 83.1328L0.547131 83.9868L10.1467 83.0503L10.0605 82.1963Z" fill="#F3DA00"/>
<path d="M9.84637 79.5432L0.223633 80.2112L0.284976 81.0654L9.90772 80.3973L9.84637 79.5432Z" fill="#F3DA00"/>
<path d="M9.7076 76.888L0.0693359 77.2847L0.105843 78.1421L9.74411 77.7454L9.7076 76.888Z" fill="#F3DA00"/>
<path d="M9.64585 74.2283L0 74.3542L0.0115931 75.2123L9.65744 75.0864L9.64585 74.2283Z" fill="#F3DA00"/>
<path d="M0.0121902 71.4345L0 72.2906L9.64576 72.4234L9.65795 71.5672L0.0121902 71.4345Z" fill="#F3DA00"/>
<path d="M0.102173 68.507L0.0654297 69.3624L9.70356 69.7626L9.7403 68.9071L0.102173 68.507Z" fill="#F3DA00"/>
<path d="M0.355886 65.4853L0.294922 66.3398L9.92233 67.0037L9.9833 66.1492L0.355886 65.4853Z" fill="#F3DA00"/>
<path d="M0.546903 62.6604L0.460938 63.5143L10.0607 64.4484L10.1467 63.5944L0.546903 62.6604Z" fill="#F3DA00"/>
<path d="M0.893676 59.7479L0.783203 60.5992L10.3523 61.7995L10.4628 60.9483L0.893676 59.7479Z" fill="#F3DA00"/>
<path d="M1.32309 56.8434L1.18848 57.6894L10.7192 59.1554L10.8539 58.3094L1.32309 56.8434Z" fill="#F3DA00"/>
<path d="M1.83897 53.9507L1.67969 54.7945L11.1644 56.5251L11.3237 55.6814L1.83897 53.9507Z" fill="#F3DA00"/>
<path d="M2.43605 51.0734L2.25293 51.9105L11.6859 53.9051L11.869 53.068L2.43605 51.0734Z" fill="#F3DA00"/>
<path d="M3.1168 48.202L2.90918 49.0355L12.279 51.2914L12.4866 50.4578L3.1168 48.202Z" fill="#F3DA00"/>
<path d="M3.87938 45.3537L3.64844 46.1793L12.9498 48.6942L13.1807 47.8686L3.87938 45.3537Z" fill="#F3DA00"/>
<path d="M4.72894 42.5242L4.47363 43.3448L13.7003 46.1194L13.9557 45.2988L4.72894 42.5242Z" fill="#F3DA00"/>
<path d="M5.75232 39.741L5.47363 40.5527L14.6206 43.5882L14.8993 42.7765L5.75232 39.741Z" fill="#F3DA00"/>
<path d="M6.67287 36.9222L6.37109 37.7253L15.422 41.0124L15.7238 40.2092L6.67287 36.9222Z" fill="#F3DA00"/>
<path d="M7.77225 34.154L7.44727 34.9484L16.3972 38.4874L16.7222 37.6931L7.77225 34.154Z" fill="#F3DA00"/>
<path d="M8.95129 31.4097L8.60254 32.1964L17.4476 35.9866L17.7963 35.1999L8.95129 31.4097Z" fill="#F3DA00"/>
<path d="M10.2184 28.6957L9.84668 29.4722L18.5767 33.5119L18.9484 32.7354L10.2184 28.6957Z" fill="#F3DA00"/>
<path d="M11.5662 26.0117L11.1719 26.7773L19.7801 31.0622L20.1744 30.2966L11.5662 26.0117Z" fill="#F3DA00"/>
<path d="M13.0006 23.3572L12.584 24.1113L21.0628 28.6388L21.4794 27.8847L13.0006 23.3572Z" fill="#F3DA00"/>
<path d="M14.607 20.7636L14.1689 21.5043L22.515 26.2758L22.9531 25.5351L14.607 20.7636Z" fill="#F3DA00"/>
<path d="M16.1108 18.1518L15.6514 18.8792L23.8464 23.8827L24.3058 23.1553L16.1108 18.1518Z" fill="#F3DA00"/>
<path d="M17.7945 15.5982L17.3125 16.3137L25.3569 21.5516L25.8389 20.8361L17.7945 15.5982Z" fill="#F3DA00"/>
<path d="M19.5577 13.087L19.0557 13.7867L26.9385 19.2535L27.4405 18.5538L19.5577 13.087Z" fill="#F3DA00"/>
<path d="M21.4086 10.6148L20.8857 11.2996L28.6005 16.9935L29.1233 16.3088L21.4086 10.6148Z" fill="#F3DA00"/>
<path d="M23.3424 8.18585L22.7979 8.85657L30.3375 14.7729L30.882 14.1022L23.3424 8.18585Z" fill="#F3DA00"/>
<path d="M25.3574 5.79979L24.7939 6.4527L32.1499 12.5885L32.7133 11.9356L25.3574 5.79979Z" fill="#F3DA00"/>
<path d="M27.4565 3.45863L26.8721 4.09607L34.0376 10.4459L34.622 9.80846L27.4565 3.45863Z" fill="#F3DA00"/>
<path d="M39.3101 133.705C28.1295 119.642 15.3973 100.068 16.1447 73.3129C17.0019 42.8548 27.6842 27.2343 39.5063 12.6552L40.1889 13.1874C25.7561 30.989 17.7904 45.8478 17.0195 73.3361C16.2781 99.8196 28.9102 119.233 39.9986 133.176L39.3101 133.705Z" fill="#F3DA00"/>
</g>
<g style="mix-blend-mode:color-dodge">
<path d="M274.384 143.185L267.217 136.836L267.801 136.202L274.969 142.55L274.384 143.185Z" fill="#F3DA00"/>
<path d="M269.688 134.063L269.125 134.716L276.483 140.85L277.046 140.197L269.688 134.063Z" fill="#F3DA00"/>
<path d="M271.502 131.875L270.959 132.544L278.498 138.461L279.042 137.792L271.502 131.875Z" fill="#F3DA00"/>
<path d="M273.239 129.653L272.716 130.338L280.43 136.033L280.953 135.348L273.239 129.653Z" fill="#F3DA00"/>
<path d="M274.9 127.395L274.398 128.094L282.281 133.562L282.783 132.862L274.9 127.395Z" fill="#F3DA00"/>
<path d="M284.043 131.049L276.001 125.813L276.482 125.096L284.526 130.334L284.043 131.049Z" fill="#F3DA00"/>
<path d="M277.988 122.763L277.528 123.491L285.724 128.496L286.184 127.769L277.988 122.763Z" fill="#F3DA00"/>
<path d="M287.327 125.911L278.984 121.146L279.422 120.404L287.764 125.171L287.327 125.911Z" fill="#F3DA00"/>
<path d="M280.775 118.01L280.359 118.763L288.838 123.29L289.254 122.538L280.775 118.01Z" fill="#F3DA00"/>
<path d="M290.272 120.637L281.667 116.352L282.059 115.587L290.664 119.87L290.272 120.637Z" fill="#F3DA00"/>
<path d="M283.265 113.136L282.894 113.912L291.623 117.953L291.995 117.176L283.265 113.136Z" fill="#F3DA00"/>
<path d="M284.391 110.663L284.042 111.449L292.887 115.24L293.235 114.454L284.391 110.663Z" fill="#F3DA00"/>
<path d="M285.441 108.159L285.115 108.955L294.067 112.496L294.392 111.699L285.441 108.159Z" fill="#F3DA00"/>
<path d="M286.416 105.641L286.115 106.443L295.166 109.729L295.467 108.928L286.416 105.641Z" fill="#F3DA00"/>
<path d="M296.18 106.938L287.037 103.906L287.316 103.095L296.46 106.126L296.18 106.938Z" fill="#F3DA00"/>
<path d="M288.137 100.53L287.882 101.349L297.109 104.123L297.363 103.304L288.137 100.53Z" fill="#F3DA00"/>
<path d="M288.89 97.953L288.658 98.7805L297.96 101.295L298.191 100.467L288.89 97.953Z" fill="#F3DA00"/>
<path d="M289.561 95.3554L289.354 96.1871L298.725 98.4434L298.932 97.6117L289.561 95.3554Z" fill="#F3DA00"/>
<path d="M290.199 92.6264L290.016 93.4656L299.45 95.4573L299.633 94.618L290.199 92.6264Z" fill="#F3DA00"/>
<path d="M300.002 92.6963L290.517 90.9646L290.674 90.1238L300.159 91.8536L300.002 92.6963Z" fill="#F3DA00"/>
<path d="M291.119 87.4904L290.984 88.3383L300.515 89.8033L300.65 88.9554L291.119 87.4904Z" fill="#F3DA00"/>
<path d="M291.481 84.8463L291.37 85.6976L300.939 86.8972L301.05 86.0459L291.481 84.8463Z" fill="#F3DA00"/>
<path d="M291.772 82.1988L291.687 83.0527L301.286 83.9868L301.372 83.1328L291.772 82.1988Z" fill="#F3DA00"/>
<path d="M291.993 79.5459L291.932 80.4L301.554 81.0687L301.616 80.2146L291.993 79.5459Z" fill="#F3DA00"/>
<path d="M292.129 76.8867L292.092 77.7441L301.73 78.1432L301.767 77.2858L292.129 76.8867Z" fill="#F3DA00"/>
<path d="M292.196 74.2267L292.184 75.0847L301.829 75.2176L301.842 74.3596L292.196 74.2267Z" fill="#F3DA00"/>
<path d="M301.829 71.4359L292.184 71.5598L292.195 72.4159L301.841 72.2921L301.829 71.4359Z" fill="#F3DA00"/>
<path d="M301.729 68.4942L292.092 68.9105L292.13 69.7659L301.767 69.3496L301.729 68.4942Z" fill="#F3DA00"/>
<path d="M301.551 65.5784L291.929 66.2465L291.99 67.1006L301.613 66.4325L301.551 65.5784Z" fill="#F3DA00"/>
<path d="M301.29 62.6603L291.69 63.5969L291.777 64.4508L301.376 63.5143L301.29 62.6603Z" fill="#F3DA00"/>
<path d="M300.942 59.7464L291.374 60.9539L291.485 61.8051L301.053 60.5975L300.942 59.7464Z" fill="#F3DA00"/>
<path d="M300.514 56.8507L290.981 58.307L291.115 59.1531L300.647 57.6967L300.514 56.8507Z" fill="#F3DA00"/>
<path d="M290.674 56.526L290.517 55.6814L300.002 53.9515L300.159 54.7943L290.674 56.526Z" fill="#F3DA00"/>
<path d="M299.407 51.0702L289.976 53.0714L290.159 53.9084L299.591 51.9071L299.407 51.0702Z" fill="#F3DA00"/>
<path d="M298.723 48.2062L289.35 50.4558L289.557 51.2895L298.93 49.0399L298.723 48.2062Z" fill="#F3DA00"/>
<path d="M297.957 45.3481L288.658 47.8718L288.89 48.6972L298.189 46.1735L297.957 45.3481Z" fill="#F3DA00"/>
<path d="M297.108 42.5149L287.887 45.3066L288.144 46.1267L297.365 43.3351L297.108 42.5149Z" fill="#F3DA00"/>
<path d="M287.316 43.5555L287.037 42.7436L296.18 39.7121L296.46 40.5221L287.316 43.5555Z" fill="#F3DA00"/>
<path d="M286.415 41.0114L286.115 40.2072L295.166 36.9192L295.468 37.7234L286.415 41.0114Z" fill="#F3DA00"/>
<path d="M294.065 34.1528L285.116 37.6988L285.442 38.493L294.391 34.9469L294.065 34.1528Z" fill="#F3DA00"/>
<path d="M292.887 31.4121L284.042 35.2015L284.391 35.9883L293.236 32.1989L292.887 31.4121Z" fill="#F3DA00"/>
<path d="M291.626 28.7034L282.888 32.7258L283.258 33.503L291.996 29.4806L291.626 28.7034Z" fill="#F3DA00"/>
<path d="M282.059 31.0612L281.667 30.2975L290.272 26.0125L290.664 26.778L282.059 31.0612Z" fill="#F3DA00"/>
<path d="M288.849 23.3697L280.358 27.8766L280.772 28.63L289.262 24.1231L288.849 23.3697Z" fill="#F3DA00"/>
<path d="M287.331 20.7431L278.984 25.5023L279.421 26.243L287.768 21.4838L287.331 20.7431Z" fill="#F3DA00"/>
<path d="M285.729 18.1501L277.531 23.1535L277.991 23.881L286.188 18.8776L285.729 18.1501Z" fill="#F3DA00"/>
<path d="M284.047 15.6022L276.001 20.834L276.482 21.5498L284.529 16.318L284.047 15.6022Z" fill="#F3DA00"/>
<path d="M282.283 13.0892L274.396 18.5508L274.899 19.2524L282.786 13.7908L282.283 13.0892Z" fill="#F3DA00"/>
<path d="M280.436 10.6217L272.709 16.2992L273.23 16.9851L280.958 11.3075L280.436 10.6217Z" fill="#F3DA00"/>
<path d="M278.497 8.18638L270.959 14.105L271.504 14.7756L279.041 8.85694L278.497 8.18638Z" fill="#F3DA00"/>
<path d="M276.48 5.79829L269.131 11.9421L269.695 12.5944L277.044 6.45058L276.48 5.79829Z" fill="#F3DA00"/>
<path d="M274.383 3.46182L267.217 9.81055L267.801 10.4481L274.968 4.09935L274.383 3.46182Z" fill="#F3DA00"/>
<path d="M262.529 133.704L261.845 133.176C272.933 119.227 285.567 99.8137 284.824 73.3359C284.053 45.8457 276.087 30.9889 261.654 13.1873L262.337 12.655C274.159 27.2361 284.839 42.847 285.695 73.3128C286.44 100.07 273.71 119.642 262.529 133.704Z" fill="#F3DA00"/>
</g>
<path style="mix-blend-mode:color-dodge" d="M246.551 24.0266C253.218 30.6929 258.506 38.6069 262.113 47.3168C265.721 56.0267 267.578 65.3619 267.578 74.7895C267.578 84.217 265.721 93.5522 262.113 102.262C258.506 110.972 253.218 118.886 246.551 125.552L242.193 121.194C248.287 115.1 253.121 107.866 256.419 99.9036C259.718 91.9414 261.415 83.4076 261.415 74.7895C261.415 66.1713 259.718 57.6375 256.419 49.6753C253.121 41.7132 248.287 34.4786 242.193 28.3846L246.551 24.0266Z" fill="url(#paint0_radial_856_44)"/>
<path style="mix-blend-mode:color-dodge" d="M231.829 30.9073C238.01 36.1274 242.982 42.8295 246.354 50.4839C249.725 58.1384 251.402 66.5353 251.254 75.011C251.105 83.4866 249.134 91.8087 245.496 99.3194C241.858 106.83 236.654 113.323 230.294 118.286L227.333 113.855C233.057 109.388 237.741 103.544 241.015 96.7848C244.289 90.0252 246.063 82.5353 246.197 74.9072C246.331 67.2791 244.821 59.7219 241.787 52.8329C238.753 45.9439 234.277 39.912 228.714 35.214L231.829 30.9073Z" fill="url(#paint1_radial_856_44)"/>
<path style="mix-blend-mode:color-dodge" d="M48.764 125.552C42.0977 118.886 36.8097 110.972 33.202 102.262C29.5942 93.5522 27.7373 84.217 27.7373 74.7895C27.7373 65.3619 29.5942 56.0267 33.202 47.3168C36.8097 38.6069 42.0977 30.6929 48.764 24.0266L53.122 28.3846C47.028 34.4786 42.194 41.7132 38.896 49.6754C35.5979 57.6375 33.9004 66.1713 33.9004 74.7895C33.9004 83.4076 35.5979 91.9414 38.8959 99.9036C42.194 107.866 47.028 115.1 53.122 121.194L48.764 125.552Z" fill="url(#paint2_radial_856_44)"/>
<path style="mix-blend-mode:color-dodge" d="M63.4866 118.671C57.3057 113.451 52.333 106.749 48.9617 99.0949C45.5905 91.4404 43.913 83.0435 44.0618 74.5678C44.2107 66.0922 46.1819 57.7701 49.8195 50.2594C53.4572 42.7488 58.6616 36.2554 65.0214 31.2926L67.9824 35.7239C62.2586 40.1904 57.5746 46.0344 54.3008 52.794C51.0269 59.5536 49.2528 67.0435 49.1188 74.6716C48.9848 82.2997 50.4946 89.8569 53.5287 96.7459C56.5629 103.635 61.0383 109.667 66.6011 114.365L63.4866 118.671Z" fill="url(#paint3_radial_856_44)"/>
<defs>
<radialGradient id="paint0_radial_856_44" cx="0" cy="0" r="1" gradientUnits="userSpaceOnUse" gradientTransform="translate(195.789 74.7895) rotate(180) scale(71.7872)">
<stop offset="0.83" stop-color="#1B1800"/>
<stop offset="0.838" stop-color="#1E1B00"/>
<stop offset="0.849" stop-color="#5F5501"/>
<stop offset="0.861" stop-color="#837501"/>
<stop offset="0.874" stop-color="#A79500"/>
<stop offset="0.889" stop-color="#C7B200"/>
<stop offset="0.904" stop-color="#F3DA00"/>
<stop offset="0.915" stop-color="#FFE500"/>
<stop offset="0.922" stop-color="#C7B200"/>
<stop offset="0.929" stop-color="#A79500"/>
<stop offset="0.937" stop-color="#5F5501" stop-opacity="0.39"/>
<stop offset="0.946" stop-color="#4E4500"/>
<stop offset="0.954" stop-color="#413901"/>
<stop offset="0.964" stop-color="#2D2800"/>
<stop offset="0.974" stop-color="#252100"/>
<stop offset="0.985" stop-color="#1E1B00"/>
<stop offset="1" stop-color="#1B1800"/>
</radialGradient>
<radialGradient id="paint1_radial_856_44" cx="0" cy="0" r="1" gradientUnits="userSpaceOnUse" gradientTransform="translate(200.684 73.9737) rotate(180) scale(50.5774 54.6562)">
<stop offset="0.83" stop-color="#1B1800"/>
<stop offset="0.838" stop-color="#1E1B00"/>
<stop offset="0.849" stop-color="#5F5501"/>
<stop offset="0.861" stop-color="#837501"/>
<stop offset="0.874" stop-color="#A79500"/>
<stop offset="0.889" stop-color="#C7B200"/>
<stop offset="0.904" stop-color="#F3DA00"/>
<stop offset="0.915" stop-color="#FFE500"/>
<stop offset="0.922" stop-color="#C7B200"/>
<stop offset="0.929" stop-color="#A79500"/>
<stop offset="0.937" stop-color="#5F5501" stop-opacity="0.39"/>
<stop offset="0.946" stop-color="#4E4500"/>
<stop offset="0.954" stop-color="#413901"/>
<stop offset="0.964" stop-color="#2D2800"/>
<stop offset="0.974" stop-color="#252100"/>
<stop offset="0.985" stop-color="#1E1B00"/>
<stop offset="1" stop-color="#1B1800"/>
</radialGradient>
<radialGradient id="paint2_radial_856_44" cx="0" cy="0" r="1" gradientUnits="userSpaceOnUse" gradientTransform="translate(99.5268 74.7894) scale(71.7872)">
<stop offset="0.83" stop-color="#1B1800"/>
<stop offset="0.838" stop-color="#1E1B00"/>
<stop offset="0.849" stop-color="#5F5501"/>
<stop offset="0.861" stop-color="#837501"/>
<stop offset="0.874" stop-color="#A79500"/>
<stop offset="0.889" stop-color="#C7B200"/>
<stop offset="0.904" stop-color="#F3DA00"/>
<stop offset="0.915" stop-color="#FFE500"/>
<stop offset="0.922" stop-color="#C7B200"/>
<stop offset="0.929" stop-color="#A79500"/>
<stop offset="0.937" stop-color="#5F5501" stop-opacity="0.39"/>
<stop offset="0.946" stop-color="#4E4500"/>
<stop offset="0.954" stop-color="#413901"/>
<stop offset="0.964" stop-color="#2D2800"/>
<stop offset="0.974" stop-color="#252100"/>
<stop offset="0.985" stop-color="#1E1B00"/>
<stop offset="1" stop-color="#1B1800"/>
</radialGradient>
<radialGradient id="paint3_radial_856_44" cx="0" cy="0" r="1" gradientUnits="userSpaceOnUse" gradientTransform="translate(94.6317 75.6051) scale(50.5774 54.6562)">
<stop offset="0.83" stop-color="#1B1800"/>
<stop offset="0.838" stop-color="#1E1B00"/>
<stop offset="0.849" stop-color="#5F5501"/>
<stop offset="0.861" stop-color="#837501"/>
<stop offset="0.874" stop-color="#A79500"/>
<stop offset="0.889" stop-color="#C7B200"/>
<stop offset="0.904" stop-color="#F3DA00"/>
<stop offset="0.915" stop-color="#FFE500"/>
<stop offset="0.922" stop-color="#C7B200"/>
<stop offset="0.929" stop-color="#A79500"/>
<stop offset="0.937" stop-color="#5F5501" stop-opacity="0.39"/>
<stop offset="0.946" stop-color="#4E4500"/>
<stop offset="0.954" stop-color="#413901"/>
<stop offset="0.964" stop-color="#2D2800"/>
<stop offset="0.974" stop-color="#252100"/>
<stop offset="0.985" stop-color="#1E1B00"/>
<stop offset="1" stop-color="#1B1800"/>
</radialGradient>
</defs>
</svg>
