<svg width="325" height="207" viewBox="0 0 325 207" fill="none" xmlns="http://www.w3.org/2000/svg">
<g clip-path="url(#clip0_167_1246)">
<path opacity="0.18" d="M189.996 5.57581C238.372 -0.524131 254.966 37.8789 257.729 51.3789C264.169 82.8666 255.479 94.7123 254.863 106.726C254.206 119.648 270.987 128.278 270.987 141.233C270.908 155.204 265.386 168.592 255.595 178.555C241.829 192.437 221.461 197.666 201.944 198.686C182.428 199.707 162.842 197.158 143.322 198.206C124.835 199.199 30.0324 180.941 46.2725 95.1037C50.6995 71.6779 88.5667 65.5267 108.456 49.8225C124.421 37.1753 138.937 12.0159 189.996 5.57115V5.57581Z" fill="#168F3F"/>
<path opacity="0.35" d="M248.883 170.841C249.371 158.186 211.25 146.44 163.738 144.607C116.225 142.773 77.3121 151.546 76.8238 164.201C76.3354 176.857 114.456 188.603 161.969 190.436C209.482 192.27 248.394 183.497 248.883 170.841Z" fill="#168F3F"/>
<path d="M148.723 28.1814V153.997C148.723 159.43 153.429 164.305 159.226 164.873L215.365 170.4C221.158 170.969 225.864 167.026 225.864 161.583V35.7679C225.864 30.325 221.158 25.4553 215.365 24.8868L159.226 19.3601C153.429 18.7915 148.723 22.7386 148.723 28.1814ZM154.1 28.7779C154.1 25.4274 156.999 22.9902 160.573 23.3444L168.481 24.1272V24.8682C168.598 27.1329 170.368 28.9643 172.624 29.16L202.783 32.1471C205.071 32.3661 206.921 30.8143 206.921 28.6707V27.9298L215.09 28.7313C218.674 29.0855 221.563 32.0865 221.563 35.4371V160.898C221.563 164.249 218.665 166.681 215.09 166.327L160.568 160.954C156.985 160.6 154.096 157.604 154.096 154.248V28.7779H154.1Z" fill="#168F3F"/>
<path d="M146.085 30.5021V156.317C146.085 161.751 150.792 166.625 156.589 167.194L212.728 172.721C218.52 173.289 223.227 169.347 223.227 163.904V38.0886C223.227 32.6457 218.52 27.776 212.728 27.2075L156.589 21.6901C150.792 21.1169 146.085 25.0639 146.085 30.5068V30.5021ZM151.458 31.1033C151.458 27.7527 154.356 25.3156 157.931 25.6697L165.839 26.4526V27.1935C165.955 29.4583 167.726 31.2897 169.981 31.4854L200.141 34.4725C202.429 34.6915 204.279 33.1397 204.279 30.9961V30.2552L212.443 31.0567C216.027 31.4108 218.916 34.4119 218.916 37.7624V163.224C218.916 166.574 216.018 169.007 212.443 168.652L157.921 163.28C154.338 162.925 151.449 159.929 151.449 156.574V31.1033H151.458Z" fill="white"/>
<path d="M151.439 31.1266V156.583C151.439 159.938 154.338 162.939 157.912 163.289L212.434 168.662C216.018 169.016 218.907 166.583 218.907 163.233V37.7717C218.907 34.4212 216.008 31.4155 212.434 31.066L204.265 30.2552V31.0008C204.265 33.1444 202.415 34.6961 200.127 34.4771L169.968 31.4901C167.708 31.2943 165.941 29.4629 165.825 27.1982V26.4759L157.917 25.693C154.338 25.3389 151.444 27.776 151.444 31.1266H151.439Z" fill="white"/>
<path opacity="0.18" d="M218.911 37.7717V163.224C218.911 166.574 216.013 169.007 212.439 168.657L158.089 163.284H157.917C154.333 162.93 151.444 159.934 151.444 156.578V31.1265C151.444 27.776 154.342 25.3388 157.917 25.6976L165.829 26.4665V27.2121C165.941 29.4769 167.707 31.3129 169.967 31.504L170.564 31.5646L200.122 34.4724C202.41 34.6914 204.265 33.1397 204.265 30.9961V30.2458L212.448 31.0566C213.1 31.1172 213.743 31.271 214.354 31.5087C217.005 32.4733 218.809 34.9477 218.911 37.767V37.7717Z" fill="#168F3F"/>
<path opacity="0.18" d="M218.911 37.7717V163.224C218.911 166.574 216.013 169.007 212.439 168.657L158.089 163.284C155.461 162.25 153.55 159.766 153.55 157.035V31.6019C153.55 28.2467 156.449 25.8142 160.018 26.1683L165.829 26.7648L167.931 26.9699V27.7201C167.992 29.407 169.017 30.9122 170.564 31.5879C171.039 31.8116 171.547 31.9514 172.069 32.0073L202.229 34.9944C204.517 35.2134 206.371 33.657 206.371 31.518V30.7258L214.34 31.5134C216.996 32.4733 218.804 34.9478 218.907 37.7717H218.911Z" fill="#168F3F"/>
<path d="M180.933 29.8544L191.301 30.8749V30.0128L180.933 28.9923V29.8544Z" fill="url(#paint0_linear_167_1246)"/>
<path d="M179.204 29.6273C179.49 29.1385 179.273 28.4801 178.72 28.1567C178.166 27.8332 177.486 27.9673 177.201 28.4561C176.915 28.9449 177.132 29.6034 177.685 29.9268C178.238 30.2502 178.918 30.1161 179.204 29.6273Z" fill="url(#paint1_linear_167_1246)"/>
<path d="M87.4107 86.9487C86.8515 85.9049 85.8915 85.1313 84.7452 84.8144C82.4525 84.218 80.3834 85.6626 79.2138 87.5312C78.5287 88.6263 78.0721 89.9218 77.0795 90.7373C76.1801 91.3757 75.1689 91.8231 74.0924 92.0654C71.59 92.8436 69.1435 94.0552 67.4286 96.0357C66.8974 96.5856 66.5386 97.2753 66.3941 98.0255C66.259 99.1113 66.8648 100.211 66.6551 101.288C66.4221 102.481 65.271 103.263 64.614 104.275C63.696 105.822 63.7845 107.77 64.847 109.224C65.9374 110.64 67.6523 111.428 69.4417 111.344C71.2125 111.237 72.8808 110.458 74.1017 109.168C76.6834 106.521 77.3544 102.234 80.4254 100.174C81.2595 99.6146 82.2894 99.1905 82.6994 98.2725C82.993 97.6294 82.8952 96.8792 83.0163 96.1895C83.226 94.9826 84.0415 93.9713 85.1786 93.5147C86.968 92.8296 88.8693 93.4354 89.5729 91.1241C89.8898 90.1082 89.5124 88.9991 88.6409 88.3887C88.4312 88.2815 88.2309 88.151 88.0445 88.0019C87.8301 87.7549 87.667 87.4706 87.5598 87.1584C87.4759 87.0792 87.4387 87.014 87.406 86.9441L87.4107 86.9487Z" fill="#C14834"/>
<path d="M102.477 99.1628L102.411 99.1066L102.617 99.1722L102.481 99.1581L102.477 99.1628Z" fill="white"/>
<path d="M102.155 142.449C102.225 143.279 102.481 144.08 102.896 144.803C103.39 145.46 104.07 145.954 104.848 146.219C106.526 146.844 108.381 146.802 110.026 146.093C110.254 146.019 110.445 145.865 110.575 145.665C110.641 145.502 110.659 145.32 110.617 145.143C110.37 144.215 109.788 143.419 108.982 142.901C108.18 142.393 107.472 141.755 106.88 141.014C105.901 139.523 105.967 135.24 103.068 136.279C100.645 137.151 101.866 140.697 102.155 142.449Z" fill="#FFB4A3"/>
<path d="M85.6257 123.04C87.9045 122.528 90.2112 122.155 92.5365 121.922C96.6094 121.521 99.5918 122.518 101.577 126.246C103.366 129.639 105.24 133.069 106.186 136.792C106.405 137.668 106.568 138.656 106.106 139.439C105.431 140.59 103.716 140.683 102.523 139.989C101.33 139.294 100.682 138.078 99.9972 136.927C98.8042 134.979 96.7678 130.18 94.3912 130.198C91.2177 130.198 88.0909 132.43 84.9827 133.013C84.6658 133.115 84.3163 133.083 84.0274 132.915C83.8223 132.761 81.7393 133.017 81.6368 132.766C80.9378 130.375 82.5268 127.36 82.4243 124.858C82.3917 124.602 82.4243 124.345 82.5315 124.112C82.7645 123.814 83.1 123.614 83.4728 123.558C84.2184 123.381 84.9174 123.18 85.6164 123.045L85.6257 123.04Z" fill="#282328"/>
<path d="M102.09 145.357C102.09 145.357 101.796 146.452 102.388 146.993C102.98 147.533 108.754 150.218 112.034 147.091C115.315 143.959 106.769 144.667 106.769 144.667L102.09 145.362V145.357Z" fill="#168F3F"/>
<path d="M102.001 142.887C102.323 142.682 102.742 142.738 102.998 143.018C103.809 143.74 104.937 144.001 105.985 143.698C107.127 143.274 107.43 141.857 108.017 141.783C108.604 141.708 112.043 143.973 112.36 145.092C112.677 146.21 111.167 147.249 109.438 147.575C107.71 147.902 103.548 147.17 102.677 146.34C101.899 145.371 101.647 144.08 102.001 142.887Z" fill="white"/>
<path d="M94.2982 151.378C94.0512 152.17 93.986 153.009 94.0932 153.834C94.2982 154.631 94.7409 155.343 95.3653 155.884C96.6794 157.1 98.413 157.762 100.202 157.729C100.44 157.748 100.678 157.683 100.873 157.543C100.999 157.417 101.083 157.254 101.111 157.077C101.232 156.126 100.995 155.166 100.44 154.384C99.9042 153.605 99.4987 152.748 99.2471 151.839C98.9069 150.087 100.589 146.149 97.5136 146.014C94.9086 145.87 94.699 149.644 94.2935 151.378H94.2982Z" fill="#FFB4A3"/>
<path d="M86.3668 127.151C88.6689 127.537 90.9429 128.069 93.1797 128.735C97.1035 129.928 99.4754 131.983 99.9088 136.172C100.31 139.993 100.71 143.871 100.17 147.673C100.044 148.568 99.8156 149.542 99.1026 150.092C98.0401 150.903 96.3951 150.325 95.5983 149.248C94.7968 148.172 94.6197 146.783 94.4053 145.455C94.0698 143.209 93.9766 137.985 91.7724 137.095C88.0258 135.59 83.7106 137.482 80.1224 135.497C78.8316 134.835 77.6293 134.015 76.5389 133.055C75.4531 132.085 74.6889 130.809 74.3394 129.392C74.1996 128.646 74.1669 127.882 74.2508 127.127C74.2881 126.503 74.386 125.883 74.5491 125.277C74.7634 124.578 74.8753 124.681 75.5929 124.783C76.7859 124.956 77.9835 125.212 79.1764 125.496C81.6136 126.065 83.9623 126.768 86.3668 127.155V127.151Z" fill="#231F20"/>
<path d="M93.1378 154.043C93.1378 154.043 92.4528 154.947 92.793 155.674C93.1332 156.401 97.4577 161.047 101.68 159.421C105.902 157.79 97.7326 155.176 97.7326 155.176L93.1378 154.048V154.043Z" fill="#168F3F"/>
<path d="M93.986 151.737C94.3588 151.667 94.7316 151.876 94.8574 152.24C95.3374 153.223 96.288 153.89 97.3738 154.001C98.5667 154.043 99.4102 152.85 99.9787 153C100.547 153.149 102.877 156.583 102.742 157.711C102.607 158.839 100.836 159.258 99.098 158.904C97.3598 158.55 93.7996 156.294 93.3103 155.194C92.9514 154.001 93.2077 152.706 93.986 151.737Z" fill="white"/>
<path d="M97.9237 113.832C97.7559 114.764 97.3552 115.552 96.5024 115.724C96.4325 115.729 96.3579 115.729 96.288 115.724C94.7456 115.845 92.9095 114.466 91.6513 113.301C91.1294 112.816 90.6354 112.304 90.1694 111.768L91.3624 101.698L97.7839 110.058C98.0355 111.302 98.0821 112.574 97.919 113.832H97.9237Z" fill="white"/>
<path d="M104.35 111.964C103.222 113.208 101.894 114.247 100.412 115.039C99.3498 115.589 98.1615 115.864 96.9685 115.831C96.8101 115.827 96.6563 115.789 96.5165 115.724C96.2695 115.617 96.0598 115.435 95.92 115.202C95.496 114.555 95.2863 113.79 95.3236 113.017C95.4774 110.999 97.798 110.095 97.798 110.095C97.798 110.095 102.933 109.112 103.497 109.438C103.8 109.615 104.024 110.347 104.168 110.98C104.289 111.507 104.359 111.959 104.359 111.959L104.35 111.964Z" fill="white"/>
<path opacity="0.1" d="M104.35 111.964C103.222 113.208 101.894 114.247 100.412 115.039C99.3499 115.589 98.1616 115.864 96.9686 115.831C96.8102 115.827 96.6564 115.789 96.5166 115.724C96.4467 115.729 96.3721 115.729 96.3022 115.724C94.7598 115.845 92.9237 114.466 91.6655 113.301L92.495 110.314C93.2825 111.353 94.2378 112.257 95.319 112.989C96.0785 113.52 96.9872 113.804 97.9192 113.8C98.1709 113.786 98.4179 113.744 98.6602 113.669C100.603 113.003 102.449 112.089 104.159 110.952C104.28 111.507 104.35 111.964 104.35 111.964Z" fill="#020202"/>
<path d="M103.227 106.777C102.84 107.057 102.556 107.448 102.402 107.9C102.365 108.133 102.365 108.371 102.402 108.604C102.421 108.818 102.463 109.032 102.532 109.237C102.649 109.48 102.803 109.699 102.984 109.895L103.404 110.379C103.45 110.444 103.511 110.5 103.581 110.542C103.739 110.598 103.921 110.542 104.024 110.412C104.122 110.281 104.191 110.132 104.219 109.969C104.466 109.135 105.147 107.793 105.002 106.917C104.839 105.859 103.749 106.306 103.222 106.782L103.227 106.777Z" fill="#FFB4A3"/>
<path d="M91.7116 113.306C91.6511 113.772 91.6557 114.261 91.5998 114.732C91.3016 117.337 90.3649 119.941 90.8356 122.584C91.0313 123.166 91.0313 123.795 90.8356 124.373C90.5606 124.811 90.1366 125.137 89.6426 125.286C87.2008 126.265 84.5073 126.33 81.879 126.386C79.9032 126.428 77.1025 126.675 75.397 125.408C74.684 124.872 74.5256 124.01 74.3811 123.152C74.0083 120.38 73.9337 117.579 74.1481 114.792C74.1481 114.429 74.1854 114.065 74.2087 113.697C74.3578 111.19 74.6048 108.692 74.9496 106.208C75.2059 104.419 75.5834 102.462 76.9255 101.241C78.7149 99.6146 81.893 98.7758 84.2556 98.6266C85.0199 98.5661 85.7934 98.6173 86.5437 98.7758C87.6015 99.0787 88.5988 99.554 89.4935 100.192C90.5746 100.891 91.5346 101.493 91.9586 102.695C92.42 104.074 92.6809 105.514 92.7415 106.973C92.7928 108.338 92.653 109.703 92.3314 111.027C92.187 111.679 91.9353 112.318 91.7955 112.961C91.7536 113.068 91.7349 113.189 91.7163 113.306H91.7116Z" fill="white"/>
<path opacity="0.1" d="M79.3301 126.759C78.5472 126.89 76.8929 125.99 76.3431 125.822C76.0075 125.715 75.7466 125.506 75.3831 125.38C73.7102 124.746 74.0876 119.881 74.0736 118.557C74.0364 115.062 73.7801 111.39 74.1529 107.956C74.2367 106.614 74.5536 105.295 75.0849 104.06C75.6301 102.816 76.7019 101.875 78.0113 101.502C78.263 101.423 78.5286 101.423 78.7802 101.502C79.8008 101.898 79.8148 103.65 79.8893 104.489C80.0105 105.808 80.3087 107.201 81.3293 108.128C83.8177 110.393 88.5802 109.508 91.5766 109.377C91.8469 109.34 92.1265 109.382 92.3688 109.503C92.7276 109.787 92.8441 110.281 92.6577 110.696C92.4713 111.092 92.2383 111.465 91.9634 111.805C91.092 113.138 91.078 114.843 90.4955 116.325C89.7079 118.087 88.3519 119.531 86.6417 120.435C84.9454 121.321 83.1793 122.071 81.3665 122.686C80.9611 122.817 80.579 123.017 80.2435 123.283C79.8381 123.679 79.5911 124.215 79.5585 124.783C79.5119 125.147 79.8381 126.302 79.6703 126.54C79.5957 126.661 79.4653 126.74 79.3255 126.754L79.3301 126.759Z" fill="#020202"/>
<path d="M103.885 90.9297L77.2295 134.856L86.1375 140.262L112.793 96.3352L103.885 90.9297Z" fill="#168F3F"/>
<path d="M101.846 100.047L84.5488 128.552C84 129.456 84.2883 130.634 85.1926 131.182L85.7264 131.506C86.6307 132.055 87.8086 131.767 88.3574 130.863L105.654 102.358C106.203 101.454 105.915 100.276 105.011 99.7269L104.477 99.403C103.573 98.8543 102.395 99.1425 101.846 100.047Z" fill="url(#paint2_linear_167_1246)"/>
<path d="M88.2823 96.8978C87.9701 97.1634 87.5693 97.3079 87.1592 97.3032C86.8144 97.3032 86.4696 97.2659 86.134 97.2007L85.943 97.1634C85.8964 97.1494 85.8498 97.1494 85.8078 97.1634C85.7612 97.196 85.7286 97.2473 85.724 97.3079C85.5655 97.9789 85.4723 98.6639 85.4444 99.349V99.7264C85.4537 99.8569 85.4257 99.992 85.3605 100.109C85.2486 100.239 85.0902 100.318 84.9178 100.328C84.6056 100.393 84.2887 100.407 83.9765 100.374C83.3147 100.225 82.6996 99.9221 82.187 99.4841C82.3734 98.3238 82.448 97.1494 82.42 95.9705C82.3781 94.4513 82.1684 92.9135 82.5086 91.4316C82.6717 90.0756 83.9019 89.1063 85.258 89.2694C85.3884 89.2834 85.5143 89.3113 85.6401 89.3439C86.7165 89.4511 87.7417 89.8659 88.5899 90.5369C88.8415 90.7885 88.9673 91.138 88.9347 91.4922C88.9766 92.0887 88.9999 92.6852 88.9953 93.2816C88.9906 93.8781 88.9487 94.6563 88.8741 95.3414C88.8741 95.9099 88.6644 96.4551 88.287 96.8838L88.2823 96.8978Z" fill="#FFB4A3"/>
<path d="M86.1341 97.2147L85.943 97.1774C85.8964 97.1634 85.8498 97.1634 85.8079 97.1774C85.7613 97.21 85.7287 97.2613 85.724 97.3219C85.5656 97.9929 85.4724 98.6779 85.4444 99.363C84.2514 98.8177 83.6084 97.5129 83.8973 96.2314C84.6056 96.6275 85.3512 96.9537 86.1248 97.1914L86.1387 97.21L86.1341 97.2147Z" fill="#E0A194"/>
<path d="M95.2303 104.167L95.4586 103.897C95.5565 103.785 95.7056 103.65 95.8361 103.725C95.9666 103.799 95.9619 103.995 96.0738 104.079C96.1343 104.116 96.2042 104.139 96.2788 104.139C96.9172 104.181 97.5463 104.279 98.1661 104.433C98.5482 104.503 98.8604 104.782 98.9723 105.155C99.0002 105.416 98.9583 105.682 98.8465 105.92C98.6694 106.549 98.3339 107.117 97.8725 107.578C97.4671 107.877 97.0058 108.096 96.5165 108.222C96.0971 108.329 95.6916 108.501 95.3235 108.73C94.8389 108.967 94.4521 109.382 93.9721 109.643C93.3756 110.034 92.5694 109.871 92.178 109.27C91.8518 108.776 91.9031 108.128 92.2992 107.69L93.0914 106.749L95.2303 104.167Z" fill="#FFB4A3"/>
<path d="M77.5082 101.53C79.5259 101.078 81.5251 102.341 81.9818 104.358L84.2092 114.238C84.6659 116.255 83.3984 118.259 81.3806 118.711C79.3628 119.163 77.3637 117.9 76.907 115.883L74.6795 106.003C74.2229 103.986 75.4904 101.982 77.5082 101.53Z" fill="white"/>
<path d="M83.3984 109.95L92.1219 106.455L94.8434 110.407C94.8434 110.407 83.2866 119.569 80.2948 118.767C77.3031 117.966 78.9761 114.923 78.9761 114.923C78.9761 114.923 78.2398 111.358 83.3937 109.946L83.3984 109.95Z" fill="white"/>
<path d="M86.2083 91.66C85.5745 91.8557 84.8755 91.8324 84.2604 92.0794C83.6453 92.3264 83.1094 93.0207 83.389 93.6265C83.1606 93.4121 82.7319 93.6265 82.6713 93.9201C82.648 94.2416 82.8158 94.5492 83.1 94.6983L82.3172 95.8913C82.2566 96.0078 82.168 96.101 82.0562 96.1662C81.9397 96.2081 81.8139 96.2081 81.6974 96.1662C81.1568 96.0078 80.7188 95.607 80.5044 95.0851C80.2947 94.5632 80.1782 94.0086 80.1642 93.4494C80.0943 92.3916 80.0943 91.3291 80.1642 90.2713C80.1642 89.7587 80.2668 89.2554 80.4578 88.7801C80.7654 88.2302 81.2221 87.7782 81.7766 87.48C82.9602 86.739 84.3815 86.4781 85.7469 86.753C86.7581 86.9907 88.3612 87.918 88.5243 89.083C88.6874 90.248 87.117 91.3897 86.2083 91.6693V91.66Z" fill="#C14834"/>
<path d="M117.016 95.9192C112.715 98.869 106.834 97.7739 103.879 93.4727C100.929 89.1715 102.025 83.2906 106.326 80.3362C108.274 78.9987 110.65 78.4395 112.989 78.7704L110.748 82.4798L108.227 86.6598L114.863 90.6814L117.407 86.4687L119.551 82.9271C122.384 87.2236 121.256 93.002 117.011 95.9192H117.016Z" fill="#168F3F"/>
<path d="M83.3566 149.351C81.3481 150.437 79.0088 150.749 76.786 150.227L82.6389 142.594L76.4737 137.869L70.6021 145.53L70.5649 145.469C68.1044 140.87 69.8379 135.142 74.442 132.682C79.0414 130.221 84.7685 131.955 87.229 136.559C89.6895 141.158 87.956 146.886 83.3519 149.346L83.3566 149.351Z" fill="#168F3F"/>
<g opacity="0.19">
<path d="M159.003 156.294C158.159 156.234 157.367 155.851 156.799 155.227C156.37 154.761 155.955 154.272 155.513 153.82C154.758 152.878 153.485 152.52 152.353 152.934C151.193 153.358 151.99 152.836 151.957 154.127V156.117C151.98 157.669 150.741 158.941 149.189 158.964C149.072 158.964 148.956 158.964 148.844 158.946C147.651 158.862 146.444 158.769 145.223 158.657C143.443 158.498 142.073 157.007 142.078 155.218V153.228C142.068 152.016 141.355 150.917 140.251 150.423C139.268 149.849 138.024 149.989 137.199 150.777C136.756 151.164 136.351 151.588 135.913 151.97C134.603 153.163 132.716 152.981 131.434 151.583C130.544 150.614 129.645 149.64 128.783 148.656C127.487 147.198 127.492 145.329 128.783 144.076C129.193 143.68 129.626 143.311 130.027 142.883C130.87 142.095 131.122 140.856 130.656 139.802C130.283 138.656 129.277 137.836 128.074 137.705C127.431 137.622 126.784 137.608 126.141 137.533C124.281 137.384 122.879 135.776 122.986 133.912V130.385C122.888 128.837 124.062 127.505 125.609 127.402C125.689 127.398 125.768 127.398 125.847 127.398C126.509 127.398 127.18 127.467 127.841 127.523C129.044 127.705 130.209 127.02 130.637 125.883C131.131 124.746 130.856 123.586 129.887 122.495C129.491 122.052 129.086 121.624 128.694 121.176C127.511 119.951 127.511 118.012 128.694 116.787C129.636 115.859 130.6 114.96 131.593 114.098C132.898 113.04 134.808 113.222 135.894 114.503C136.341 114.983 136.765 115.487 137.227 115.962C137.972 116.852 139.193 117.178 140.284 116.787C141.383 116.447 142.12 115.407 142.073 114.256V112.397C142.12 110.407 143.429 109.2 145.368 109.345L148.737 109.615C150.573 109.736 151.994 111.269 151.98 113.11V114.899C151.929 116.158 152.633 117.323 153.77 117.854C154.809 118.46 156.128 118.283 156.971 117.425C157.372 117.048 157.759 116.666 158.164 116.297C159.45 115.165 161.407 115.291 162.54 116.577C162.563 116.6 162.582 116.624 162.6 116.652C163.528 117.644 164.441 118.651 165.34 119.667C166.58 120.906 166.58 122.915 165.34 124.149C164.902 124.574 164.436 124.97 164.008 125.398C163.22 126.149 162.969 127.3 163.374 128.306C163.677 129.434 164.609 130.287 165.765 130.482C166.445 130.613 167.139 130.627 167.824 130.692C169.558 130.771 170.905 132.225 170.849 133.959C170.891 135.31 170.891 136.657 170.849 138.004C170.788 139.919 169.25 142.328 167.372 142.184C166.776 142.142 163.495 141.587 163.052 142.72C162.61 143.852 163.188 144.551 164.022 145.511C164.45 146.005 164.916 146.48 165.35 146.974C166.585 148.218 166.585 150.222 165.35 151.466C164.455 152.342 163.56 153.2 162.614 154.057C161.985 154.71 160.531 156.28 159.003 156.303V156.294ZM134.044 133.111C134.044 140.525 139.813 146.956 147.008 147.533C152.861 147.58 157.945 143.54 157.936 136.186C157.968 128.991 152.428 123.003 145.251 122.481C138.042 121.88 134.053 125.711 134.039 133.111H134.044Z" fill="#020202"/>
</g>
<path d="M158.737 155.893C157.894 155.837 157.101 155.455 156.533 154.831C156.104 154.365 155.689 153.876 155.247 153.414C154.492 152.473 153.22 152.123 152.087 152.538C150.969 152.906 150.237 153.978 150.298 155.152V157.142C150.321 158.694 149.082 159.966 147.53 159.99C147.413 159.99 147.297 159.99 147.185 159.971C145.992 159.887 144.785 159.794 143.564 159.682C141.784 159.524 140.414 158.032 140.419 156.243V154.253C140.409 153.041 139.696 151.942 138.592 151.448C137.609 150.87 136.364 151.014 135.54 151.802C135.097 152.189 134.691 152.613 134.253 152.995C132.944 154.188 131.057 154.006 129.775 152.608C128.885 151.634 127.986 150.665 127.124 149.682C125.828 148.223 125.833 146.354 127.124 145.101C127.534 144.705 127.967 144.337 128.368 143.908C129.216 143.12 129.468 141.881 128.997 140.828C128.624 139.681 127.618 138.861 126.415 138.731C125.772 138.647 125.124 138.633 124.486 138.558C122.622 138.414 121.219 136.806 121.327 134.937V131.41C121.229 129.863 122.403 128.53 123.95 128.427C124.029 128.423 124.109 128.423 124.188 128.423C124.85 128.423 125.521 128.493 126.182 128.549C127.385 128.73 128.55 128.045 128.978 126.908C129.472 125.771 129.197 124.611 128.228 123.52C127.832 123.078 127.426 122.649 127.035 122.202C125.856 120.976 125.856 119.033 127.035 117.807C127.976 116.889 128.941 115.985 129.934 115.118C131.243 114.065 133.149 114.252 134.235 115.528C134.682 116.008 135.106 116.512 135.568 116.987C136.313 117.877 137.534 118.203 138.624 117.812C139.724 117.472 140.461 116.433 140.414 115.281V113.422C140.461 111.432 141.77 110.221 143.709 110.37C144.832 110.458 145.955 110.542 147.078 110.64C148.914 110.761 150.335 112.294 150.321 114.135V115.925C150.27 117.183 150.973 118.348 152.111 118.879C153.15 119.485 154.468 119.308 155.312 118.45C155.713 118.073 156.099 117.691 156.505 117.323C157.791 116.19 159.748 116.316 160.881 117.602C160.904 117.625 160.923 117.649 160.941 117.677C161.869 118.669 162.782 119.676 163.681 120.664C164.921 121.903 164.921 123.912 163.681 125.147C163.243 125.571 162.787 125.967 162.349 126.396C161.561 127.146 161.309 128.297 161.715 129.303C162.018 130.431 162.95 131.284 164.105 131.48C164.786 131.61 165.48 131.615 166.165 131.689C167.899 131.769 169.245 133.222 169.189 134.956C169.231 136.307 169.231 137.654 169.189 139.001C169.129 140.916 167.945 141.988 166.072 141.839C165.475 141.797 164.879 141.727 164.282 141.708C163.159 141.634 162.13 142.333 161.78 143.405C161.333 144.472 161.57 145.702 162.376 146.527C162.805 147.021 163.271 147.496 163.705 147.985C164.939 149.23 164.939 151.238 163.705 152.482C162.81 153.358 161.915 154.216 160.969 155.073C160.387 155.665 159.571 155.973 158.742 155.903L158.737 155.893ZM132.385 134.127C132.385 141.531 138.158 147.971 145.349 148.549C152.539 149.127 158.369 143.582 158.369 136.21C158.369 128.837 152.544 122.407 145.414 121.829C138.284 121.251 132.417 126.726 132.38 134.127H132.385Z" fill="#168F3F"/>
<g opacity="0.19">
<path d="M182.638 130.086C182.209 130.058 181.804 129.863 181.515 129.541C181.296 129.303 181.086 129.052 180.863 128.819C180.476 128.343 179.828 128.162 179.25 128.371C178.654 128.586 179.064 128.325 179.045 128.968V129.984C179.055 130.781 178.416 131.428 177.619 131.438C177.563 131.438 177.512 131.438 177.456 131.428L175.611 131.279C174.707 131.186 174.017 130.431 174.003 129.522V128.507C173.999 127.891 173.635 127.332 173.071 127.081C172.568 126.787 171.934 126.857 171.51 127.258C171.291 127.453 171.081 127.668 170.858 127.854C170.201 128.432 169.194 128.371 168.616 127.71C168.602 127.691 168.584 127.672 168.57 127.654C168.118 127.16 167.661 126.661 167.214 126.163C166.57 125.538 166.552 124.508 167.176 123.865C167.19 123.851 167.2 123.837 167.214 123.828L167.847 123.231C168.276 122.826 168.402 122.197 168.164 121.661C167.978 121.074 167.461 120.65 166.85 120.585C166.524 120.543 166.193 120.538 165.867 120.501C164.926 120.407 164.217 119.597 164.254 118.651V116.861C164.208 116.069 164.809 115.393 165.601 115.347C165.639 115.347 165.68 115.347 165.718 115.347C166.053 115.347 166.393 115.384 166.734 115.412C167.349 115.505 167.941 115.156 168.16 114.578C168.407 113.977 168.253 113.287 167.773 112.854C167.577 112.625 167.367 112.406 167.176 112.178C166.575 111.553 166.575 110.561 167.176 109.936C167.656 109.466 168.15 109.004 168.654 108.562C169.32 108.031 170.289 108.119 170.844 108.771C171.077 109.018 171.291 109.275 171.524 109.512C171.902 109.969 172.526 110.137 173.085 109.936C173.649 109.764 174.027 109.237 174.003 108.646V107.695C173.947 106.884 174.562 106.185 175.369 106.129C175.471 106.12 175.578 106.129 175.681 106.143L177.4 106.274C178.337 106.344 179.059 107.126 179.055 108.063V108.977C179.031 109.615 179.39 110.207 179.968 110.486C180.499 110.794 181.175 110.705 181.604 110.267C181.809 110.076 182.004 109.881 182.2 109.671C182.853 109.093 183.85 109.154 184.428 109.806C184.442 109.82 184.451 109.834 184.465 109.853C184.936 110.361 185.406 110.868 185.868 111.386C186.497 112.019 186.497 113.04 185.868 113.674C185.649 113.893 185.416 114.093 185.192 114.312C184.786 114.69 184.661 115.281 184.87 115.794C185.019 116.363 185.485 116.796 186.063 116.903C186.408 116.968 186.762 116.973 187.107 117.01C187.993 117.048 188.682 117.793 188.65 118.679C188.673 119.364 188.673 120.049 188.65 120.738C188.622 121.717 187.839 122.943 186.86 122.882C186.548 122.882 184.875 122.584 184.651 123.152C184.428 123.721 184.721 124.089 185.145 124.578C185.364 124.83 185.607 125.067 185.826 125.319C186.45 125.958 186.45 126.978 185.826 127.612C185.364 128.059 184.894 128.497 184.428 128.931C184.153 129.271 183.412 130.072 182.629 130.082L182.638 130.086ZM169.912 118.264C169.907 122.048 172.759 125.226 176.524 125.622C179.511 125.622 182.102 123.586 182.102 119.825C182.116 116.158 179.288 113.105 175.63 112.835C171.957 112.537 169.921 114.489 169.912 118.264Z" fill="#020202"/>
</g>
<path d="M182.508 129.886C182.074 129.858 181.673 129.667 181.385 129.341C181.165 129.103 180.956 128.856 180.727 128.623C180.341 128.143 179.693 127.961 179.115 128.171C178.547 128.362 178.169 128.907 178.202 129.508V130.52C178.216 131.307 177.591 131.96 176.804 131.974C176.739 131.974 176.678 131.974 176.617 131.964L174.772 131.82C173.863 131.741 173.169 130.976 173.174 130.063V129.047C173.164 128.427 172.801 127.873 172.242 127.612C171.738 127.323 171.109 127.397 170.69 127.798C170.461 127.994 170.252 128.208 170.033 128.395C169.371 128.973 168.369 128.907 167.791 128.246C167.777 128.227 167.759 128.208 167.745 128.19C167.293 127.7 166.836 127.206 166.393 126.698C165.75 126.074 165.732 125.044 166.356 124.401C166.37 124.387 166.379 124.373 166.393 124.364C166.603 124.168 166.817 123.977 167.027 123.767C167.456 123.362 167.586 122.728 167.344 122.192C167.158 121.605 166.64 121.186 166.03 121.125C165.704 121.083 165.373 121.079 165.047 121.041C164.105 120.948 163.397 120.137 163.434 119.191V117.402C163.383 116.614 163.984 115.939 164.767 115.887C164.809 115.887 164.851 115.887 164.888 115.887C165.224 115.887 165.564 115.925 165.904 115.948C166.514 116.041 167.111 115.696 167.33 115.118C167.577 114.517 167.423 113.828 166.948 113.385C166.743 113.166 166.538 112.942 166.351 112.709C165.75 112.085 165.75 111.092 166.351 110.468C166.836 109.997 167.325 109.54 167.833 109.102C168.5 108.566 169.474 108.66 170.023 109.312C170.252 109.559 170.466 109.815 170.699 110.053C171.077 110.505 171.701 110.673 172.26 110.472C172.829 110.305 173.206 109.773 173.188 109.182V108.24C173.136 107.425 173.756 106.721 174.572 106.67C174.669 106.665 174.772 106.67 174.87 106.679L176.585 106.814C177.521 106.884 178.244 107.667 178.239 108.604V109.522C178.211 110.16 178.57 110.752 179.148 111.027C179.679 111.339 180.35 111.251 180.783 110.813C180.988 110.621 181.184 110.426 181.38 110.216C182.032 109.643 183.03 109.703 183.607 110.356C183.617 110.37 183.631 110.379 183.64 110.393C184.12 110.901 184.581 111.414 185.043 111.936C185.672 112.569 185.672 113.59 185.043 114.224C184.814 114.438 184.581 114.643 184.362 114.857C183.962 115.24 183.836 115.831 184.041 116.344C184.19 116.912 184.656 117.346 185.234 117.453C185.583 117.504 185.933 117.537 186.287 117.556C187.172 117.598 187.857 118.343 187.829 119.229V121.288C187.881 122.043 187.307 122.7 186.548 122.747C186.441 122.751 186.338 122.747 186.236 122.733C185.933 122.733 185.639 122.672 185.318 122.668C184.744 122.63 184.218 122.984 184.041 123.534C183.817 124.075 183.934 124.704 184.344 125.123C184.563 125.38 184.805 125.617 185.024 125.869C185.653 126.503 185.653 127.528 185.024 128.162C184.563 128.609 184.092 129.047 183.626 129.48C183.332 129.769 182.932 129.914 182.522 129.886H182.508ZM169.063 118.781C169.049 122.574 171.906 125.762 175.676 126.163C179.055 126.442 182.023 123.926 182.298 120.547C182.317 120.319 182.321 120.095 182.317 119.867C182.298 116.102 179.455 112.947 175.713 112.532C172.353 112.234 169.385 114.718 169.087 118.077C169.068 118.31 169.059 118.543 169.063 118.776V118.781Z" fill="#168F3F"/>
<path d="M248.47 106.782L195.877 101.935V64.7438L248.47 69.5949V106.782Z" fill="white"/>
<path d="M169.063 84.6746L116.471 79.8235V42.6321L169.063 47.4878V84.6746Z" fill="white"/>
<path d="M231.107 81.9578L177.88 77.0462V39.2256L231.107 44.1326V81.9578ZM178.514 76.4637L230.473 81.2589V44.7058L178.514 39.9153V76.4637Z" fill="white"/>
</g>
<defs>
<linearGradient id="paint0_linear_167_1246" x1="310.801" y1="40.3817" x2="310.217" y2="47.1885" gradientUnits="userSpaceOnUse">
<stop stop-color="white"/>
<stop offset="1" stop-color="#CBCBCB"/>
</linearGradient>
<linearGradient id="paint1_linear_167_1246" x1="290.651" y1="40.7717" x2="289.838" y2="45.6757" gradientUnits="userSpaceOnUse">
<stop stop-color="white"/>
<stop offset="1" stop-color="#CBCBCB"/>
</linearGradient>
<linearGradient id="paint2_linear_167_1246" x1="64.7142" y1="89.8935" x2="127.584" y2="143.812" gradientUnits="userSpaceOnUse">
<stop stop-color="#231F20"/>
<stop offset="0.13" stop-color="#231F20" stop-opacity="0.69"/>
<stop offset="0.25" stop-color="#231F20" stop-opacity="0.32"/>
<stop offset="1" stop-color="#231F20" stop-opacity="0"/>
</linearGradient>
<clipPath id="clip0_167_1246">
<rect width="325" height="207" fill="white"/>
</clipPath>
</defs>
</svg>
