<svg width="325" height="207" viewBox="0 0 325 207" fill="none" xmlns="http://www.w3.org/2000/svg">
<g clip-path="url(#clip0_180_4650)">
<path opacity="0.18" d="M283.963 176.248C281.945 179.852 279.636 183.341 276.615 186.154C274.863 187.766 272.939 189.186 270.885 190.387C269.345 191.323 267.749 192.166 266.137 192.966C256.143 197.964 245.633 201.848 234.547 203.335C222.987 204.895 211.246 204.209 199.717 202.784C184.206 200.876 168.845 197.615 153.25 196.7C142.003 196.029 130.719 196.58 119.513 197.428C109.326 198.192 98.9207 199.186 88.8431 197.75C87.0595 197.496 85.2863 197.163 83.5235 196.747C68.1315 193.065 54.7883 182.431 46.645 168.864C39.5418 157.045 31.5546 134.56 37.7738 121.305C44.3986 107.187 62.3491 97.5984 74.1063 88.3528C78.8695 84.6088 83.5755 80.4852 86.2899 75.0668C89.3059 69.0244 89.5295 62.0356 90.7827 55.4004C94.8439 33.9036 111.12 15.1472 131.831 8.096C160.957 -1.8256 196.119 4.7524 213.305 32.0212C214.153 33.3576 214.943 34.72 215.671 36.1084C220.554 45.1668 225.525 55.026 229.3 64.5108C233.117 74.162 241.395 82.3312 249.034 89.06C257.443 96.5064 266.584 103.131 274.493 111.103C282.408 119.074 289.173 128.689 291.373 139.703C293.785 152.152 290.171 165.183 283.957 176.259L283.963 176.248Z" fill="#A2FF76"/>
<path opacity="0.18" d="M270.879 190.387C269.34 191.323 267.743 192.166 266.131 192.966C256.137 197.964 245.628 201.848 234.541 203.335C222.982 204.895 211.24 204.209 199.712 202.784C184.2 200.876 168.839 197.615 153.245 196.7C141.997 196.029 130.713 196.58 119.507 197.428C109.32 198.192 98.9151 199.186 88.8375 197.75L86.3311 165.188L213.887 135.22L270.884 190.392L270.879 190.387Z" fill="#A2FF76"/>
<path d="M84.943 152.791L163.655 117C165.366 116.064 167.379 115.856 169.245 116.412L214.21 122.517C216.758 123.286 216.118 133.77 213.893 135.21L140.781 181.948C137.858 183.82 134.213 184.168 130.989 182.889L86.3314 165.167C83.8822 164.2 82.6342 154.055 84.943 152.786V152.791Z" fill="white"/>
<path d="M86.0036 151.892L163.66 109.34C165.371 108.404 167.384 108.196 169.25 108.752L213.112 121.929C214.761 122.423 215.697 124.165 215.203 125.814C214.99 126.526 214.527 127.14 213.898 127.545L140.786 174.293C137.863 176.155 134.218 176.503 130.994 175.229L86.3364 157.513C84.74 156.873 83.9652 155.058 84.61 153.462C84.8804 152.791 85.3744 152.235 86.0088 151.892H86.0036Z" fill="white"/>
<path opacity="0.52" d="M90.309 151.236L162.714 111.566C164.305 110.692 166.182 110.494 167.919 111.02L208.848 123.302C210.387 123.765 211.261 125.387 210.798 126.926C210.595 127.592 210.164 128.169 209.576 128.544L141.378 172.114C138.653 173.856 135.263 174.184 132.257 172.993L90.621 156.442C89.139 155.828 88.4422 154.128 89.0558 152.646C89.3054 152.048 89.7474 151.554 90.309 151.236Z" fill="#A2FF76"/>
<path d="M153.167 119.594L162.823 114.244L202.624 129.573L191.943 135.527L153.167 119.594Z" fill="white"/>
<path d="M140.12 127.379L149.777 122.028L189.577 137.363L178.897 143.317L140.12 127.379Z" fill="white"/>
<path d="M127.068 135.168L136.725 129.823L176.536 145.147L165.855 151.101L127.068 135.168Z" fill="white"/>
<path d="M114.021 142.953L123.683 137.607L163.484 152.942L152.803 158.891L114.021 142.953Z" fill="white"/>
<path d="M100.979 150.742L110.636 145.397L150.437 160.726L139.756 166.675L100.979 150.742Z" fill="white"/>
<path d="M150.416 59.7112V33.2224L182.141 19.2968V45.7856L150.416 59.7112ZM151.056 33.6384V58.7336L181.507 45.3644V20.2692L151.056 33.6384Z" fill="white"/>
<path d="M178.221 38.5056C178.2 39.2544 177.95 39.9824 177.513 40.596C177.092 41.2304 176.499 41.7244 175.803 42.0208L159.204 48.6404C157.868 49.176 156.786 48.4636 156.786 47.0492C156.807 46.3004 157.057 45.5724 157.493 44.9588C157.915 44.3244 158.507 43.8304 159.204 43.5288L159.771 43.3052C159.651 42.8892 159.594 42.4628 159.594 42.0312C159.646 40.5492 160.13 39.1192 160.988 37.9128C161.815 36.6596 162.985 35.6768 164.357 35.0736L165.772 34.512C167.613 33.7788 169.209 34.2468 170.005 35.5364C170.374 35.1776 170.805 34.8916 171.279 34.6888L171.643 34.5432C173.229 33.9088 174.513 34.7512 174.513 36.4516V36.6024C174.513 36.8988 174.477 37.1952 174.404 37.4812L175.777 36.9352C177.144 36.3736 178.226 37.086 178.226 38.5004L178.221 38.5056Z" fill="white"/>
<path opacity="0.82" d="M200.534 96.912C200.534 99.5744 198.371 101.738 195.708 101.738C193.046 101.738 190.883 99.5744 190.883 96.912C190.883 94.2496 193.046 92.0864 195.708 92.0864C196.842 92.0864 197.939 92.4868 198.808 93.2148C199.9 94.13 200.534 95.4872 200.534 96.912Z" fill="#A2FF76"/>
<path opacity="0.55" d="M199.078 94.8164C199.078 97.4788 196.93 99.6368 194.268 99.642C193.129 99.642 192.032 99.2416 191.158 98.5136C190.279 95.9968 191.605 93.246 194.122 92.3672C195.718 91.8108 197.497 92.128 198.797 93.2096C198.984 93.7244 199.078 94.2652 199.078 94.8112V94.8164Z" fill="white"/>
<path opacity="0.82" d="M194.98 81.2548C194.98 82.586 193.898 83.6676 192.567 83.6676C191.236 83.6676 190.154 82.586 190.154 81.2548C190.154 79.9236 191.236 78.842 192.567 78.842C192.567 78.842 192.567 78.842 192.572 78.842C193.903 78.842 194.98 79.9236 194.98 81.2548Z" fill="#A2FF76"/>
<path opacity="0.55" d="M194.257 80.2096C194.257 81.5408 193.17 82.6172 191.839 82.6172C191.277 82.6172 190.731 82.4196 190.3 82.0556C189.879 80.7868 190.565 79.4192 191.829 78.998C192.068 78.92 192.323 78.8784 192.577 78.8732C193.144 78.8732 193.69 79.0708 194.122 79.44C194.21 79.6896 194.252 79.9496 194.257 80.2096Z" fill="white"/>
<path opacity="0.82" d="M216.851 70.8704C216.851 72.2016 215.769 73.2832 214.438 73.2832C213.107 73.2832 212.025 72.2016 212.025 70.8704C212.025 69.5392 213.107 68.4576 214.438 68.4576C215.005 68.4576 215.551 68.6552 215.983 69.0192C216.534 69.4768 216.851 70.158 216.846 70.8704H216.851Z" fill="#A2FF76"/>
<path opacity="0.55" d="M216.118 69.82C216.118 71.1512 215.037 72.2328 213.705 72.2328C213.139 72.2328 212.593 72.0352 212.156 71.6712C211.714 70.4128 212.374 69.0348 213.633 68.5928C214.433 68.312 215.323 68.4732 215.978 69.014C216.071 69.274 216.118 69.5444 216.118 69.8148V69.82Z" fill="white"/>
<g opacity="0.82">
<path d="M200.149 95.456L199.644 95.2688L204.548 81.5096L194.476 81L194.502 80.4696L205.292 81.0104L200.149 95.456Z" fill="#A2FF76"/>
</g>
<path d="M211.916 81.52H204.917V80.9948H211.511L213.819 72.29L214.339 72.4304L211.916 81.52Z" fill="#A2FF76"/>
<path d="M145.091 132.293C145.059 133.177 145.288 134.201 146.058 134.628C146.437 134.825 146.859 134.919 147.285 134.903C148.268 134.924 149.24 134.732 150.145 134.342C151.731 133.655 153.021 132.392 154.601 131.736C155.059 131.596 155.485 131.383 155.875 131.102C156.271 130.806 156.416 130.286 156.234 129.828C156.073 129.552 155.761 129.402 155.558 129.194C155.355 128.986 155.267 128.559 154.991 128.367C154.518 128.018 153.879 128.367 153.374 128.674C152.428 129.24 151.372 129.61 150.275 129.75C150.124 129.781 149.963 129.781 149.812 129.75C149.225 129.568 149.245 128.663 148.741 128.31C148.013 127.821 146.125 128.856 145.621 129.464C145.054 130.135 145.111 131.414 145.091 132.298V132.293Z" fill="#FFB4A3"/>
<path d="M112.622 70.5012C112.622 70.5012 108.379 71.1772 106.705 72.9712C105.03 74.7652 95.9562 89.216 95.9562 89.216C95.9562 89.216 92.5502 92.804 95.9562 93.9688C99.3622 95.1336 100.35 94.7696 100.527 93.9688C100.704 93.168 101.063 91.9044 101.063 91.9044C101.063 91.9044 101.427 91.7276 101.869 90.828C102.16 90.308 102.316 89.7204 102.316 89.1224C102.238 88.722 102.118 88.332 101.957 87.9576L109.596 78.4624L112.144 76.4916L112.627 70.5012H112.622Z" fill="#FFB4A3"/>
<path d="M140.817 63.6476C140.858 63.9284 140.832 64.2144 140.739 64.4796C140.557 64.75 140.323 64.984 140.047 65.1608C139.434 65.7952 138.882 66.4868 138.404 67.2304C137.842 67.922 136.99 68.5044 136.132 68.3068C135.892 68.2184 135.643 68.156 135.388 68.1144C134.873 68.1612 134.421 68.4784 134.202 68.9464C133.994 69.4144 133.708 69.846 133.355 70.2204C132.606 70.8548 131.504 70.5584 130.588 70.2568C130.058 70.1424 129.585 69.846 129.252 69.4248C129.106 69.1336 129.028 68.8164 129.028 68.4888C129.028 67.714 129.075 66.934 129.075 66.1644C129.075 63.6736 128.311 61.1724 128.789 58.7284C129.325 55.9776 131.452 53.8092 134.192 53.2216C136.615 52.8628 139.018 53.9756 140.307 56.0556C141.623 58.1044 140.702 61.2816 140.817 63.6424V63.6476Z" fill="#FFB4A3"/>
<path d="M140.036 80.2668C140.036 80.2668 144.337 84.926 145.86 85.1028C147.384 85.2796 159.229 72.29 159.229 72.29C160.061 72.1912 160.763 71.6244 161.044 70.834C161.309 70.0748 161.398 69.2636 161.309 68.4576C161.304 68.2236 161.268 67.9948 161.195 67.7712C161.029 67.4072 160.779 67.09 160.467 66.8352C160.139 66.4972 159.76 66.2164 159.339 66.0032C158.917 65.7796 158.413 65.7796 157.997 66.0032C157.727 66.2008 157.508 66.4608 157.363 66.7624C156.905 67.5476 156.442 68.4888 156.817 69.3104C156.9 69.4456 156.957 69.5964 156.978 69.7576C156.952 69.95 156.858 70.1268 156.713 70.2516C153.681 73.5588 150.109 76.3304 146.146 78.4416C146.027 78.5144 145.897 78.556 145.756 78.5664C145.579 78.5508 145.408 78.478 145.273 78.3636C144.42 77.7708 143.588 77.1624 142.756 76.5384C141.612 77.5888 140.686 78.8576 140.036 80.2668Z" fill="#FFB4A3"/>
<path d="M126.698 68.728L126.262 69.5444C125.18 71.6036 124.093 73.6576 123.001 75.7064C122.429 76.7828 121.66 79.2528 120.547 79.8352C120.027 80.064 119.45 80.1264 118.893 80.0068C117.24 79.7832 115.191 78.7328 113.979 78.4208C113.558 78.2804 113.106 78.2336 112.664 78.2856C112.034 78.4988 111.488 78.9044 111.109 79.4504C109.143 81.7228 107.068 83.8964 104.884 85.966C104.453 86.4236 103.943 86.8032 103.382 87.0944C102.154 87.6404 100.834 87.266 99.5647 86.6316C99.0603 86.382 98.5715 86.1064 98.0983 85.8048C97.8071 85.6592 97.5731 85.42 97.4223 85.1288C97.2143 84.5828 97.6563 84.0212 98.0567 83.5896C99.6323 81.884 100.984 79.986 102.092 77.9424C103.116 76.034 104 73.9748 105.633 72.602C108.847 69.924 114.26 70.2984 118.264 69.794C118.956 69.7056 122.658 69.6172 124.93 69.2844C125.846 69.1492 126.527 68.9776 126.693 68.754L126.704 68.7228L126.698 68.728Z" fill="#A2FF76"/>
<path d="M133.74 101.686C133.74 101.686 145.596 102.658 147.031 105.799C148.461 108.934 149.901 128.289 149.901 128.289L143.172 130.556L141.649 113.438C141.649 113.438 122.409 112.73 120.064 110.182C118.613 108.56 117.609 106.584 117.146 104.452L133.734 101.686H133.74Z" fill="#231F20"/>
<path d="M132.985 103.963C132.985 103.963 131.441 121.295 129.465 122.735C127.494 124.176 115.783 141.076 115.783 141.076L109.554 137.612L119.257 119.329L120.484 105.211L132.985 103.963Z" fill="#231F20"/>
<path d="M137.795 75.5504V75.6388C137.436 78.036 137.078 80.4436 136.719 82.8356L136.641 83.3452C136.064 87.2036 135.486 91.0568 134.914 94.91C134.514 97.5724 134.119 100.23 133.484 102.835C133.417 103.246 133.245 103.636 132.99 103.968C132.658 104.28 132.247 104.488 131.8 104.566C128.924 105.336 125.898 105.248 122.887 105.144C120.958 105.159 119.028 104.93 117.156 104.462C116.439 104.244 115.648 103.828 115.487 103.126C115.446 102.882 115.446 102.627 115.487 102.382C115.83 99.6836 116.761 97.068 116.959 94.3484C117.037 93.1524 116.959 91.9408 117.073 90.7448C117.167 89.7516 117.38 88.774 117.552 87.7912C117.645 87.2816 117.728 86.772 117.78 86.2572C117.89 85.1808 117.864 84.0992 118.035 83.028C118.222 82.0036 118.508 81 118.883 80.0276C118.883 79.9808 118.883 79.9444 118.93 79.9028C119.564 78.1348 120.204 76.372 120.885 74.6404C121.374 73.33 122.05 72.0976 122.892 70.9796C123.199 70.6 123.542 70.2568 123.922 69.95C124.234 69.7056 124.566 69.4924 124.92 69.3156C125.367 69.0764 125.851 68.91 126.35 68.8268C126.459 68.806 126.568 68.7956 126.683 68.7904C127.406 68.7384 128.139 68.7748 128.851 68.8996C130.848 69.1596 133.739 69.2012 135.746 70.314C136.563 70.73 137.218 71.4008 137.618 72.2224C137.998 73.2936 138.06 74.448 137.795 75.5504Z" fill="#A2FF76"/>
<path d="M158.668 73.7876C158.715 74.4948 158.158 75.0616 157.638 75.5712L147.675 84.978C147.53 85.1184 147.374 85.2588 147.218 85.394C146.947 85.6384 146.635 85.836 146.297 85.9712C146.032 86.0648 145.756 86.1168 145.476 86.122C145.023 86.122 144.576 86.07 144.139 85.9712C141.472 85.446 138.939 84.3696 136.708 82.8148C133.526 80.4904 131.732 77.0428 133.578 72.4564C133.729 72.056 133.916 71.6712 134.14 71.302C134.426 70.6676 135.06 70.2568 135.757 70.2516C136.428 70.3452 137.052 70.6312 137.556 71.0784C139.152 72.29 140.681 73.5744 142.205 74.8952C142.652 75.2696 143.136 75.6908 143.635 76.086C144.347 76.6788 145.143 77.1624 145.996 77.5264C146.183 77.6148 146.396 77.646 146.599 77.62C146.77 77.568 146.926 77.4796 147.062 77.36C149.885 75.1916 152.714 73.0388 155.548 70.9016C155.782 70.6676 156.11 70.548 156.437 70.5844C156.65 70.6728 156.827 70.8288 156.947 71.0316L158.065 72.5396C158.205 72.7164 158.33 72.9036 158.439 73.1012C158.564 73.3092 158.642 73.5432 158.663 73.7876H158.668Z" fill="#A2FF76"/>
<path d="M127.968 80.6412C127.417 80.9064 126.949 81.3276 126.616 81.8424C125.701 83.1736 125.035 84.796 123.766 85.8412C122.071 87.2244 119.669 87.2088 117.547 87.7964C117.641 87.2868 117.724 86.7772 117.776 86.2624C117.885 85.186 117.859 84.1044 118.031 83.0332C118.218 82.0088 118.504 81.0052 118.878 80.0328C117.225 79.8092 115.176 78.7588 113.964 78.4468C113.543 78.3064 113.091 78.2596 112.649 78.3116C112.019 78.5248 111.473 78.9304 111.094 79.4764C109.128 81.7488 107.053 83.9224 104.869 85.992C104.438 86.4496 103.928 86.8292 103.367 87.1204C102.139 87.6664 100.819 87.292 99.5498 86.6576C99.5446 86.6212 99.5446 86.5796 99.5498 86.5432C99.555 86.33 99.6434 86.122 99.7994 85.9712C102.956 82.0192 106.502 78.3948 110.387 75.15C113.86 72.1704 118.358 71.1148 122.752 70.2152L123.938 69.9812C124.713 69.8356 125.493 69.7004 126.273 69.6016C127.864 69.3572 129.486 69.3572 131.077 69.6016C132.253 69.8512 133.329 70.4544 134.156 71.328C135.482 72.602 136.574 74.292 137.817 75.5504L138.155 75.8832C140.864 78.2856 143.734 80.4904 146.755 82.4924C146.963 82.6692 147.223 82.7732 147.494 82.7784C147.717 82.7368 147.925 82.6276 148.092 82.4716C151.108 80.064 153.968 77.4692 156.661 74.708C157.15 74.1776 157.675 73.6836 158.232 73.2312C158.294 73.1792 158.362 73.1376 158.435 73.1064C158.559 73.3144 158.637 73.5484 158.658 73.7928C158.705 74.5 158.149 75.0668 157.629 75.5764L147.681 84.9832C147.535 85.1236 147.379 85.264 147.223 85.3992L147.119 85.4512C146.589 85.7216 146.043 85.9504 145.476 86.1324C145.024 86.1324 144.577 86.0804 144.14 85.9816C141.472 85.4564 138.94 84.38 136.709 82.8252L136.631 83.3348C136.517 83.2568 136.402 83.1684 136.298 83.0748C135.893 82.7108 135.581 82.2584 135.185 81.884C133.911 80.6724 132.003 80.454 130.271 80.3396C126.772 80.116 127.151 83.4336 126.683 86.2208C126.148 89.4084 125.768 92.6168 125.545 95.846C125.378 98.1652 125.295 100.531 124.489 102.71C124.291 103.412 123.855 104.02 123.257 104.436C122.815 104.655 122.331 104.769 121.837 104.774C120.235 104.873 118.629 104.748 117.063 104.405C116.45 104.353 115.899 104.005 115.587 103.474C115.477 103.116 115.477 102.736 115.587 102.377L118.348 87.3232" fill="url(#paint0_linear_180_4650)"/>
<path d="M109.061 139.594C108.473 140.129 107.745 140.587 107.48 141.33C107.355 141.741 107.329 142.178 107.417 142.604C107.672 144.149 108.645 145.475 109.581 146.733L110.662 148.179L112.461 150.592C112.872 151.216 113.392 151.762 114.001 152.193C114.983 152.692 116.086 152.911 117.183 152.828C117.656 152.864 118.135 152.802 118.582 152.646C119.034 152.474 119.331 152.037 119.32 151.548C119.258 150.914 118.561 150.592 118.046 150.274C116.424 149.219 115.831 147.17 115.358 145.293C115.035 144.019 114.723 142.625 115.051 141.336C115.165 140.899 115.358 140.478 115.451 140.03C115.561 139.594 115.488 139.136 115.243 138.756C115.02 138.502 114.734 138.309 114.417 138.195C113.455 137.779 112.446 137.467 111.411 137.274C110.277 136.962 109.783 138.918 109.05 139.594H109.061Z" fill="#FFB4A3"/>
<path d="M142.59 58.51C141.628 59.8516 139.959 60.6004 139.158 62.0356C138.357 63.4708 138.56 65.6704 137.301 66.8872C136.787 67.3396 136.152 67.6412 135.476 67.7608C134.707 67.9376 133.875 68.0052 133.115 68.1976C132.616 68.2912 132.169 68.5564 131.841 68.9412C131.451 69.4872 131.841 70.2568 131.878 70.8496C132.003 71.7752 131.951 72.7164 131.737 73.6264C131.353 74.8224 130.479 75.8 129.33 76.32C128.191 76.8348 126.943 77.0532 125.7 76.9544C125.425 76.9128 125.144 76.9544 124.894 77.0636C124.593 77.3236 124.416 77.7032 124.416 78.1036C124.135 80.1108 123.625 82.248 122.086 83.5584C121.41 84.1044 120.625 84.4996 119.788 84.7232C116.772 85.6384 113.501 84.9832 111.073 82.9812C110.417 82.4144 109.856 81.7436 109.414 81C108.233 79.0812 107.916 76.7568 108.535 74.5884C109.169 72.602 110.605 70.678 110.121 68.6552C109.944 67.922 109.523 67.272 109.299 66.5544C109.045 65.4676 109.034 64.3392 109.263 63.2524C109.341 62.2644 109.637 61.3076 110.121 60.4444C110.677 59.6488 111.437 59.0196 112.315 58.6244C115.95 56.8252 120.381 57.1008 123.932 55.13C127.037 53.3984 129.267 50.0392 132.741 49.2696C133.755 49.0408 134.805 49.0044 135.835 49.1604C136.849 49.332 137.416 50.034 138.341 50.3304C138.903 50.4188 139.47 50.4656 140.042 50.4656C140.926 50.6736 141.695 51.2248 142.174 51.9996C142.637 52.6444 142.985 53.3672 143.193 54.1316C143.661 55.6084 143.437 57.2152 142.59 58.51Z" fill="#C14834"/>
<path d="M142.59 58.51C141.628 59.8516 139.959 60.6004 139.158 62.0356C138.357 63.4708 138.56 65.6704 137.302 66.8872C136.787 67.3396 136.152 67.6412 135.476 67.7608C134.707 67.9376 133.875 68.0052 133.116 68.1976C132.616 68.2912 132.169 68.5564 131.842 68.9412C131.452 69.4872 131.842 70.2568 131.878 70.8496C132.003 71.7752 131.951 72.7164 131.738 73.6264C131.353 74.8224 130.479 75.8 129.33 76.32C128.191 76.8348 126.943 77.0532 125.7 76.9544C125.425 76.9128 125.144 76.9544 124.894 77.0636C124.593 77.3236 124.416 77.7032 124.416 78.1036C124.135 80.1108 123.626 82.248 122.086 83.5584C121.41 84.1044 120.625 84.4996 119.788 84.7232C116.772 85.6384 113.501 84.9832 111.073 82.9812C110.418 82.4144 109.856 81.7436 109.414 81C110.579 81.5304 111.822 81.8736 113.096 82.014C114.515 82.0712 115.94 81.858 117.276 81.3796C118.8 80.9584 120.199 80.1836 121.369 79.1176C122.544 78.0256 123.111 76.4344 122.882 74.8484C125.68 74.5832 127.858 72.29 127.973 69.482C126.928 69.7056 125.862 69.8356 124.79 69.872C127.786 68.884 130.448 67.0796 132.466 64.6512C132.195 65.036 131.992 65.4676 131.868 65.9252C133.074 66.1332 134.301 65.7588 135.19 64.9216C136.064 64.074 136.553 62.9092 136.553 61.6924C136.522 61.3908 136.574 61.084 136.714 60.8136C136.865 60.6368 137.062 60.5016 137.281 60.4184C139.127 59.5032 140.687 58.1044 141.805 56.378C142.21 55.598 142.678 54.8492 143.204 54.142C143.666 55.6188 143.438 57.2256 142.585 58.5152L142.59 58.51Z" fill="url(#paint1_linear_180_4650)"/>
</g>
<defs>
<linearGradient id="paint0_linear_180_4650" x1="124.229" y1="10.3788" x2="136.797" y2="190.58" gradientUnits="userSpaceOnUse">
<stop stop-color="#231F20"/>
<stop offset="0.13" stop-color="#231F20" stop-opacity="0.69"/>
<stop offset="0.25" stop-color="#231F20" stop-opacity="0.32"/>
<stop offset="1" stop-color="#231F20" stop-opacity="0"/>
</linearGradient>
<linearGradient id="paint1_linear_180_4650" x1="118.254" y1="59.0872" x2="142.387" y2="84.9" gradientUnits="userSpaceOnUse">
<stop stop-color="#231F20"/>
<stop offset="0.13" stop-color="#231F20" stop-opacity="0.69"/>
<stop offset="0.25" stop-color="#231F20" stop-opacity="0.32"/>
<stop offset="1" stop-color="#231F20" stop-opacity="0"/>
</linearGradient>
<clipPath id="clip0_180_4650">
<rect width="325" height="207" fill="white"/>
</clipPath>
</defs>
</svg>
