<svg width="325" height="207" viewBox="0 0 325 207" fill="none" xmlns="http://www.w3.org/2000/svg">
<path opacity="0.18" d="M138.786 59.5218C131.8 66.813 129.48 77.4009 123.549 85.5741C116.618 95.131 104.627 101.697 102.126 113.241C99.3858 125.958 109.633 137.616 119.97 145.491C124.948 149.286 130.295 152.947 133.533 158.306C135.56 161.657 136.638 165.483 138.26 169.05C143.407 180.434 154.787 189.121 167.264 189.752C179.746 190.387 192.505 182.143 195.884 170.117C197.535 164.237 197.123 157.659 200.322 152.473C204.504 145.672 213.293 143.57 219.647 138.737C231.803 129.494 232.474 108.745 220.941 98.7257C210.831 89.9488 193.917 88.7963 188.236 76.6718C186.696 73.3868 186.257 69.6902 184.908 66.323C177.892 48.8084 150.828 46.9542 138.786 59.5257V59.5218Z" fill="#A2FF76"/>
<path d="M183.721 148.796C183.721 148.796 183.341 157.302 182.792 158.949C182.243 160.595 182.898 161.352 181.177 161.783C179.456 162.214 180.06 152.943 180.06 152.943L180.64 149.388L183.721 148.792V148.796Z" fill="#FFB4A3"/>
<path d="M165.732 151.269L169.711 174.562H173.114L173.964 161.144L174.748 177.988H178.48C178.48 177.988 181.691 159.537 181.099 156.138C180.938 155.017 180.585 153.935 180.056 152.935L165.729 151.269H165.732Z" fill="#231F20"/>
<path d="M168.08 114.954C167.943 113.155 168.041 111.242 169.005 109.721C169.801 108.483 171.087 107.64 172.537 107.401C174.607 107.087 176.634 108.032 178.523 108.945C181.295 110.305 184.086 111.681 186.524 113.567C188.962 115.452 191.059 117.926 191.98 120.874C192.396 122.308 192.616 123.79 192.639 125.284C192.714 126.675 192.619 128.075 192.353 129.443C191.377 133.716 188.127 137.106 183.901 138.263C179.174 139.49 173.792 137.757 169.515 140.101C169.237 140.297 168.911 140.415 168.57 140.446C168.1 140.399 167.7 140.074 167.567 139.619C167.445 139.172 167.445 138.698 167.567 138.251C167.865 136.859 168.566 135.589 169.582 134.59C170.887 133.312 172.624 132.575 174.05 131.438C174.293 131.277 174.478 131.042 174.58 130.772C174.748 130.141 174.094 129.623 173.494 129.388C172.89 129.157 172.173 128.945 171.934 128.353C171.738 127.871 171.934 127.334 172.071 126.832C172.616 124.625 171.44 123.147 170.228 121.513C168.821 119.623 168.261 117.259 168.084 114.954H168.08Z" fill="#231F20"/>
<path d="M178.574 115.609C178.574 115.609 180.699 119.161 183.141 121.509C185.583 123.861 189.742 128.083 187.092 131.293C185.501 133.218 183.474 134.739 181.177 135.727L175.799 130.325V121.505L178.574 115.613V115.609Z" fill="#231F20"/>
<path d="M159.935 112.454L165.062 112.073C165.062 112.073 163.623 122.03 170.624 125.26C177.626 128.494 181.934 129.168 182.408 131.662C182.882 134.159 184.736 148.557 184.736 148.557L181.212 149.38L181.106 138.243L181.244 152.292C181.244 152.292 173.608 156.577 171.408 155.734C169.209 154.891 164.595 154.186 164.705 147.028C164.815 139.87 168.17 134.805 164.529 129.357C160.887 123.908 159.848 115.033 159.942 112.454H159.935Z" fill="#A2FF76"/>
<path d="M172.146 125.958C172.146 125.958 172.342 128.918 174.243 128.847C176.144 128.776 176.148 127.824 176.148 127.824L177.359 122.665L172.146 122.979C172.146 122.979 172.737 125.166 172.146 125.958Z" fill="#FFB4A3"/>
<path d="M172.38 124.331C172.38 124.331 172.141 125.856 173.121 126.287C174.101 126.718 175.681 126.177 176.061 125.742L176.151 127.808L177.033 124.045L172.384 124.331H172.38Z" fill="#231F20"/>
<path d="M170.514 115.507C170.514 115.507 169.417 123.347 173.364 124.931C177.311 126.515 178.523 122.261 179.036 120.219C179.546 118.177 178.068 110.862 174.94 111.999C173.109 112.63 171.545 113.865 170.514 115.507Z" fill="#FFB4A3"/>
<path d="M161.228 112.359C161.228 112.359 161.597 109.619 161.604 109.568C161.671 109.051 161.444 108.537 161.02 108.236C160.644 107.953 160.225 107.291 160.225 105.762C160.225 104.233 161.844 102.579 162.514 103.242C163.18 103.904 163.184 104.425 163.807 104.523C164.427 104.621 163.949 106.197 163.807 106.73C163.666 107.263 164.572 112.12 164.572 112.12L161.232 112.359H161.228Z" fill="#FFB4A3"/>
<path d="M181.103 138.259L183.149 148.929L181.208 149.384L181.103 138.259Z" fill="url(#paint0_linear_180_5583)"/>
<path d="M174.753 177.992C174.753 177.992 173.867 186.718 175.321 193.809H176.332L178.488 177.992H174.756H174.753Z" fill="#231F20"/>
<path d="M169.715 174.562L171.745 192.359L172.49 192.045C172.49 192.045 173.882 179.442 173.768 178.227C173.654 177.012 173.117 174.558 173.117 174.558L169.715 174.566V174.562Z" fill="#231F20"/>
<path d="M172.486 192.053C172.486 192.053 172.937 192.814 172.886 193.358C172.847 193.731 170.279 196.918 168.441 198.639C166.457 200.497 164.533 199.811 164.533 199.811C163.815 199.74 163.443 198.086 163.992 197.604C165.187 196.581 166.528 195.742 167.974 195.122C171.267 193.731 171.753 192.351 171.753 192.351L172.486 192.053Z" fill="#231F20"/>
<path d="M175.316 193.809C175.12 194.429 175.046 195.079 175.105 195.726C175.23 196.647 179.201 201.167 179.201 201.167C179.201 201.167 182.451 203.276 183.591 201.465C184.732 199.65 180.228 197.243 179.33 196.737C178.437 196.232 176.324 193.809 176.324 193.809H175.312H175.316Z" fill="#231F20"/>
<path d="M131.142 97.9182C132.733 97.9182 134.023 96.6282 134.023 95.037C134.023 93.4457 132.733 92.1558 131.142 92.1558C129.551 92.1558 128.261 93.4457 128.261 95.037C128.261 96.6282 129.551 97.9182 131.142 97.9182Z" fill="#231F20"/>
<path d="M126.352 92.046C127.12 93.0495 128.437 93.4533 129.633 93.0495C130.358 92.7908 131.067 92.2146 131.495 91.0268C132.624 87.8751 127.363 84.9234 130.475 77.9262C133.592 70.929 130.773 61.5445 121.585 64.2022C114.564 66.225 113.31 71.5013 113.486 74.457L114.466 77.1539L119.962 77.2911C119.962 77.2911 119.774 71.0426 123.063 70.6546C126.352 70.2665 125.317 76.3111 124.094 78.9101C121.405 84.6372 124.705 89.9292 126.348 92.0499L126.352 92.046Z" fill="#231F20"/>
<path d="M125.109 88.6199C125.874 89.6234 127.195 90.0272 128.39 89.6234C129.119 89.3647 129.809 88.7375 130.233 87.5498C131.366 84.3981 126.524 83.4063 129.637 76.4091C132.749 69.4119 129.798 58.8554 120.609 61.5053C111.421 64.1552 113.506 74.457 113.506 74.457L119.002 74.5942C119.002 74.5942 118.818 68.3496 122.103 67.9576C125.388 67.5656 124.357 73.6142 123.134 76.2092C120.44 81.9363 123.463 86.507 125.113 88.6238L125.109 88.6199Z" fill="#A2FF76"/>
<path d="M130.499 96.1463C132.091 96.1463 133.381 94.8564 133.381 93.2651C133.381 91.6739 132.091 90.3839 130.499 90.3839C128.908 90.3839 127.618 91.6739 127.618 93.2651C127.618 94.8564 128.908 96.1463 130.499 96.1463Z" fill="#A2FF76"/>
<path d="M118.454 122.661C118.791 124.217 117.799 125.746 116.247 126.083C114.691 126.42 113.162 125.429 112.825 123.876C112.492 122.324 113.472 120.795 115.024 120.454C116.576 120.113 118.109 121.093 118.45 122.646C118.45 122.649 118.45 122.657 118.45 122.661H118.454Z" fill="#231F20"/>
<path d="M111.284 119.674C111.911 120.772 113.165 121.344 114.404 121.097C115.157 120.936 115.941 120.466 116.513 119.341C118.046 116.354 113.216 112.748 117.223 106.221C121.229 99.6939 119.669 90.0311 110.21 91.4502C102.985 92.5321 101.049 97.6006 100.841 100.552L101.472 103.355L106.889 104.218C106.889 104.218 107.52 98.0005 110.833 98.0475C114.149 98.0906 112.322 103.947 110.774 106.362C107.348 111.681 109.931 117.365 111.28 119.678L111.284 119.674Z" fill="#231F20"/>
<path d="M110.5 116.119C111.127 117.216 112.385 117.789 113.62 117.542C114.373 117.381 115.141 116.848 115.717 115.731C117.25 112.744 112.581 111.136 116.588 104.61C120.594 98.0828 119.049 87.2244 109.59 88.6474C100.131 90.0664 100.837 100.552 100.837 100.552L106.255 101.411C106.255 101.411 106.886 95.1937 110.198 95.2408C113.514 95.2839 111.688 101.14 110.139 103.555C106.729 108.882 109.14 113.81 110.496 116.123L110.5 116.119Z" fill="#A2FF76"/>
<path d="M115.232 124.323C116.823 124.323 118.113 123.033 118.113 121.442C118.113 119.851 116.823 118.561 115.232 118.561C113.641 118.561 112.351 119.851 112.351 121.442C112.351 123.033 113.641 124.323 115.232 124.323Z" fill="#A2FF76"/>
<path d="M202.749 101.019C202.396 102.567 200.851 103.539 199.299 103.183C197.751 102.83 196.779 101.285 197.135 99.7331C197.488 98.1847 199.033 97.2165 200.581 97.5693C202.133 97.926 203.102 99.4666 202.749 101.019Z" fill="#231F20"/>
<path d="M197.539 95.2604C197.637 96.5187 198.523 97.5732 199.746 97.8829C200.491 98.0593 201.408 97.9613 202.404 97.1969C205.065 95.1506 202.243 89.8273 208.652 85.6368C215.061 81.4463 217.79 72.0422 208.625 69.2865C201.631 67.1775 197.711 70.9329 196.261 73.5122L195.63 76.3111L200.173 79.404C200.173 79.404 203.403 74.0493 206.379 75.5114C209.354 76.9736 205.203 81.4816 202.768 83.0025C197.402 86.3541 197.315 92.5948 197.543 95.2643L197.539 95.2604Z" fill="#231F20"/>
<path d="M198.35 91.7089C198.444 92.9672 199.334 94.0217 200.557 94.3314C201.306 94.5117 202.235 94.3549 203.23 93.5905C205.892 91.5442 202.356 88.0946 208.769 83.9041C215.183 79.7137 218.42 69.2473 209.283 66.4798C200.145 63.7122 196.28 73.5044 196.28 73.5044L200.824 76.5973C200.824 76.5973 204.054 71.2425 207.029 72.7008C210.004 74.159 205.853 78.6866 203.423 80.1958C198.04 83.5474 198.119 89.0354 198.354 91.705L198.35 91.7089Z" fill="#A2FF76"/>
<path d="M200.354 101.419C201.945 101.419 203.235 100.129 203.235 98.5375C203.235 96.9463 201.945 95.6563 200.354 95.6563C198.763 95.6563 197.473 96.9463 197.473 98.5375C197.473 100.129 198.763 101.419 200.354 101.419Z" fill="#A2FF76"/>
<path d="M217.37 126.781C216.688 127.745 215.352 127.973 214.387 127.291C213.423 126.609 213.196 125.272 213.878 124.308C214.56 123.343 215.893 123.116 216.857 123.794C217.821 124.476 218.052 125.809 217.37 126.773V126.781Z" fill="#231F20"/>
<path d="M215.414 121.348C215.128 122.242 215.442 123.218 216.198 123.774C216.79 124.182 217.539 124.288 218.221 124.057C220.632 123.406 220.193 118.945 225.783 117.871C231.373 116.801 235.904 111.105 230.385 106.617C226.171 103.191 222.415 104.664 220.691 106.029L219.46 107.769L221.71 111.183C221.71 111.183 225.442 108.416 227.064 110.258C228.687 112.097 224.567 114.037 222.466 114.39C217.841 115.178 216.01 119.439 215.414 121.348Z" fill="#231F20"/>
<path d="M216.979 119.133C216.692 120.027 217.006 121.007 217.763 121.564C218.225 121.897 218.907 122.054 219.809 121.811C222.22 121.16 220.754 117.789 226.359 116.718C231.965 115.652 237.143 109.361 231.624 104.876C226.104 100.392 220.699 106.029 220.699 106.029L222.949 109.439C222.949 109.439 226.681 106.672 228.304 108.518C229.926 110.364 225.806 112.297 223.705 112.65C219.076 113.437 217.578 117.232 216.983 119.133H216.979Z" fill="#A2FF76"/>
<path d="M216.425 126.538C217.61 126.538 218.57 125.578 218.57 124.394C218.57 123.21 217.61 122.25 216.425 122.25C215.241 122.25 214.281 123.21 214.281 124.394C214.281 125.578 215.241 126.538 216.425 126.538Z" fill="#A2FF76"/>
<path d="M160.774 104.3C164.517 104.3 167.551 101.265 167.551 97.5223C167.551 93.779 164.517 90.7446 160.774 90.7446C157.031 90.7446 153.996 93.779 153.996 97.5223C153.996 101.265 157.031 104.3 160.774 104.3Z" fill="#231F20"/>
<path d="M152.573 87.0441C153.459 89.8782 156.058 91.8304 159.025 91.8931C160.836 91.8931 162.874 91.2032 164.764 88.9178C169.805 82.8301 160.526 72.105 173.023 59.1337C185.52 46.1624 186.822 23.1716 164.376 21.6428C147.234 20.4825 140.221 31.1449 138.249 37.8167V44.5826L150.291 49.3102C150.291 49.3102 154.897 35.3354 162.482 37.115C170.068 38.8947 162.925 51.427 158.139 56.1937C147.594 66.6954 150.644 81.0504 152.577 87.0519L152.573 87.0441Z" fill="#231F20"/>
<path d="M152.573 78.4789C153.463 81.3091 156.058 83.2613 159.025 83.3279C160.836 83.3279 162.874 82.5047 164.764 80.2233C169.805 74.1316 159.883 68.0791 172.384 55.1118C184.885 42.1405 186.833 16.4214 164.384 14.9004C141.934 13.3834 138.257 37.8285 138.257 37.8285L150.299 42.556C150.299 42.556 154.897 28.5969 162.479 30.3687C170.064 32.1406 162.921 44.6767 158.135 49.4474C147.59 59.9373 150.64 72.4813 152.573 78.4828V78.4789Z" fill="#A2FF76"/>
<path d="M160.774 99.8664C164.517 99.8664 167.551 96.8319 167.551 93.0887C167.551 89.3455 164.517 86.311 160.774 86.311C157.031 86.311 153.996 89.3455 153.996 93.0887C153.996 96.8319 157.031 99.8664 160.774 99.8664Z" fill="#A2FF76"/>
<path d="M160.958 183.688C160.918 183.688 160.879 183.676 160.844 183.656C160.734 183.598 160.695 183.46 160.754 183.355C160.754 183.355 160.758 183.347 160.762 183.343C163.149 178.976 165.097 174.382 166.575 169.631C168.911 162.21 171.118 151.136 168.339 140.505C162.984 120.043 161.742 107.479 161.722 107.35C161.71 107.224 161.804 107.114 161.926 107.103C162.047 107.091 162.157 107.181 162.169 107.303C162.169 107.428 163.427 119.96 168.766 140.384C171.573 151.12 169.35 162.288 166.994 169.768C165.505 174.546 163.545 179.164 161.146 183.558C161.111 183.629 161.036 183.676 160.958 183.68V183.688Z" fill="white"/>
<defs>
<linearGradient id="paint0_linear_180_5583" x1="184.517" y1="142.63" x2="165.862" y2="150.16" gradientUnits="userSpaceOnUse">
<stop stop-opacity="0"/>
<stop offset="1"/>
</linearGradient>
</defs>
</svg>
