<svg width="44" height="43" viewBox="0 0 44 43" fill="none" xmlns="http://www.w3.org/2000/svg">
<rect y="0.80127" width="44" height="41.8146" fill="#105B56"/>
<path d="M21.0444 28.0548C17.4744 27.4664 15.0743 24.2275 15.6935 20.8348C16.3124 17.4429 19.7199 15.1611 23.2899 15.7495C26.86 16.3378 29.26 19.5767 28.6411 22.9687C28.022 26.3614 24.6145 28.6432 21.0444 28.0548ZM23.4486 14.8802C19.3743 14.2087 15.4853 16.8122 14.7788 20.6841C14.0722 24.5559 16.8116 28.2526 20.8858 28.9241C24.9592 29.5954 28.8492 26.9913 29.5558 23.1194C30.2623 19.2475 27.522 15.5515 23.4486 14.8802Z" fill="white"/>
<path d="M23.82 12.8198C24.0725 12.8614 24.3124 12.7008 24.3564 12.4601L24.9898 8.98916C25.0335 8.7492 24.8646 8.52123 24.6121 8.47962C24.3596 8.438 24.1188 8.59845 24.0751 8.83841L23.4417 12.3093C23.3977 12.5501 23.5675 12.7782 23.82 12.8198Z" fill="white"/>
<path d="M20.5227 30.8806C20.2702 30.839 20.0295 30.9995 19.9856 31.2402L19.3522 34.7111C19.3084 34.9511 19.4782 35.1792 19.7307 35.2208C19.9832 35.2624 20.2231 35.1018 20.2669 34.8618L20.9003 31.391C20.9442 31.1502 20.7752 30.9222 20.5227 30.8806Z" fill="white"/>
<path d="M28.5758 14.9952C28.6427 15.0517 28.722 15.0863 28.8042 15.0999C28.9573 15.1251 29.1205 15.077 29.2311 14.9581L31.6928 12.3235C31.8621 12.1409 31.8448 11.863 31.6538 11.7008C31.4617 11.5392 31.1685 11.5554 30.9984 11.7379L28.5366 14.3732C28.3667 14.5549 28.3838 14.8336 28.5758 14.9952Z" fill="white"/>
<path d="M15.7708 28.7027C15.5796 28.5413 15.2855 28.5574 15.1154 28.7398L12.6537 31.3744C12.4837 31.5569 12.5017 31.835 12.6928 31.9972C12.7605 32.0538 12.8389 32.0883 12.9212 32.1018C13.0743 32.1271 13.2375 32.079 13.3481 31.9601L15.8099 29.3248C15.9799 29.1431 15.9619 28.8642 15.7708 28.7027Z" fill="white"/>
<path d="M31.6899 19.2766C31.7632 19.2887 31.8395 19.2846 31.9151 19.2612L35.4367 18.1519C35.6805 18.0757 35.8124 17.8264 35.7313 17.5945C35.6508 17.3644 35.3886 17.2383 35.1446 17.3153L31.6232 18.4237C31.3794 18.4999 31.2474 18.75 31.3285 18.9811C31.3841 19.1409 31.527 19.2498 31.6899 19.2766Z" fill="white"/>
<path d="M12.4119 24.4663L8.88888 25.5745C8.64575 25.6516 8.51397 25.9002 8.59418 26.1319C8.65057 26.2919 8.79252 26.4014 8.95623 26.4284C9.02873 26.4403 9.10514 26.4354 9.18074 26.4119L12.703 25.3036C12.9469 25.2266 13.0788 24.9773 12.9986 24.7456C12.9173 24.5153 12.6557 24.3901 12.4119 24.4663" fill="white"/>
<path d="M35.8767 23.6354L35.8754 23.6352L32.218 23.0427C31.9654 23.0017 31.7253 23.1632 31.6823 23.4033C31.6393 23.6426 31.8085 23.8706 32.0602 23.9121L32.0615 23.9123L35.7189 24.5048C35.9715 24.5458 36.2115 24.3843 36.2545 24.1442C36.2977 23.9041 36.1284 23.6768 35.8767 23.6354Z" fill="white"/>
<path d="M12.6516 20.3229C12.6948 20.0828 12.5255 19.8556 12.273 19.814L12.2723 19.8139L8.61493 19.2215C8.36151 19.1804 8.12225 19.3421 8.07927 19.5821C8.03614 19.8222 8.20544 20.0494 8.45712 20.0909L8.45843 20.0911L12.1158 20.6835C12.3684 20.7245 12.6077 20.5628 12.6515 20.3229" fill="white"/>
<path d="M33.2856 29.6849L30.3805 27.4894C30.18 27.3376 29.8881 27.3692 29.7283 27.5597C29.5694 27.7504 29.6025 28.0286 29.8031 28.1797L32.7076 30.3742C32.7708 30.4229 32.8427 30.4523 32.9168 30.4645C33.0781 30.4911 33.251 30.4351 33.3596 30.3046C33.5195 30.1133 33.4854 29.8358 33.2856 29.6849Z" fill="white"/>
<path d="M14.5461 15.5171L11.6418 13.3218C11.4413 13.1699 11.1486 13.2014 10.9896 13.3921C10.8298 13.5827 10.863 13.8608 11.0636 14.0119L13.9679 16.2072C14.0313 16.2552 14.1031 16.2845 14.1773 16.2968C14.3394 16.3235 14.5115 16.2673 14.6209 16.137C14.7799 15.9464 14.7467 15.6682 14.5461 15.5171" fill="white"/>
<path d="M26.4211 30.5823C26.3245 30.3575 26.0541 30.2484 25.8166 30.3408C25.5792 30.4324 25.465 30.6903 25.5624 30.9152L26.9624 34.1815C27.0247 34.3273 27.1607 34.4238 27.313 34.4489C27.3961 34.4626 27.483 34.4554 27.5669 34.423C27.8043 34.3314 27.9185 34.0735 27.822 33.8479L26.4211 30.5823Z" fill="white"/>
<path d="M17.9253 13.1076C17.9876 13.2534 18.1242 13.3509 18.2757 13.3759C18.3588 13.3896 18.4466 13.3817 18.5296 13.3499C18.7671 13.2575 18.8813 12.9997 18.7847 12.7749L17.3839 9.50848C17.2874 9.28366 17.017 9.17453 16.7786 9.26681C16.5413 9.35846 16.4279 9.61645 16.5245 9.84127L17.9253 13.1076Z" fill="white"/>
</svg>
