<svg width="325" height="207" viewBox="0 0 325 207" fill="none" xmlns="http://www.w3.org/2000/svg">
<g clip-path="url(#clip0_180_4765)">
<path d="M212.152 203.702C228.157 203.702 241.131 202.006 241.131 199.914C241.131 197.821 228.157 196.125 212.152 196.125C196.147 196.125 183.173 197.821 183.173 199.914C183.173 202.006 196.147 203.702 212.152 203.702Z" fill="#D1D3D4"/>
<path d="M171.449 94.3392H248.607C249.989 94.3392 251.167 95.4656 251.167 96.848V99.6128C251.167 100.995 250.041 102.122 248.607 102.122H171.449C170.066 102.122 168.889 100.995 168.889 99.6128V96.848C168.889 95.4656 170.066 94.3392 171.449 94.3392Z" fill="#064039"/>
<path d="M247.583 102.582H172.472C170.322 102.582 168.581 100.842 168.581 98.6912V97.9232C168.581 95.7728 170.322 94.032 172.472 94.032H247.634C249.784 94.032 251.525 95.7728 251.525 97.9232V98.64C251.525 100.79 249.784 102.531 247.583 102.582ZM172.472 94.6976C170.731 94.6976 169.298 96.1312 169.298 97.872V98.5888C169.298 100.33 170.731 101.763 172.472 101.763H247.634C249.375 101.763 250.808 100.33 250.808 98.5888V97.8208C250.808 96.08 249.375 94.6464 247.634 94.6464L172.472 94.6976Z" fill="#231F20"/>
<path d="M245.329 102.224L244.92 106.883L237.035 194.486C236.728 197.917 233.861 200.579 230.379 200.579H189.675C186.193 200.579 183.326 197.917 183.019 194.486L176.363 120.195L174.725 102.224H245.329Z" fill="#0C9A8D"/>
<path d="M230.379 200.938H189.675C186.04 200.938 182.968 198.173 182.661 194.538L174.366 102.224C174.366 102.019 174.52 101.866 174.725 101.814H245.329C245.432 101.814 245.534 101.866 245.585 101.917C245.637 101.968 245.688 102.07 245.688 102.173L245.278 106.832L237.393 194.435C237.086 198.122 234.014 200.938 230.379 200.938ZM175.134 102.582L183.377 194.435C183.633 197.712 186.398 200.221 189.675 200.221H230.379C233.656 200.221 236.421 197.712 236.677 194.435L244.92 102.582H175.134Z" fill="#231F20"/>
<path d="M237.803 102.582H174.725C174.52 102.582 174.367 102.48 174.315 102.275C174.315 102.07 174.418 101.917 174.623 101.866C174.674 101.866 174.674 101.866 174.725 101.866H237.803C238.008 101.866 238.162 101.968 238.213 102.173C238.213 102.378 238.111 102.531 237.906 102.582C237.906 102.582 237.855 102.582 237.803 102.582Z" fill="#231F20"/>
<path d="M233.708 191.773H187.781C187.576 191.773 187.423 191.619 187.423 191.414C187.423 191.21 187.576 191.056 187.781 191.056H233.708C233.912 191.056 234.066 191.21 234.066 191.414C234.066 191.619 233.912 191.773 233.708 191.773Z" fill="#D1D3D4"/>
<path d="M133.304 67.92L143.8 80.7712C143.8 80.7712 156.395 75.9584 158.699 74.576C161.003 73.1936 166.328 66.64 167.915 68.5856C169.502 70.5312 172.216 74.3712 169.246 78.9792C166.277 83.5872 141.598 92.1376 138.629 92.496C135.659 92.8544 121.221 70.0192 121.221 70.0192L133.304 67.92Z" fill="white"/>
<path d="M138.526 92.8032C135.351 92.8032 123.268 73.9616 120.862 70.1216C120.81 70.0192 120.81 69.8656 120.862 69.7632C120.913 69.6608 121.015 69.5584 121.118 69.5584L133.252 67.5104C133.354 67.5104 133.508 67.5616 133.61 67.6128L143.902 80.2592C145.642 79.5936 156.446 75.4464 158.494 74.1664C159.466 73.4496 160.388 72.6816 161.207 71.8112C163.409 69.7632 165.662 67.664 167.198 67.7152C167.556 67.7152 167.914 67.92 168.119 68.176C169.246 69.5584 172.778 73.8592 169.45 79.0304C166.378 83.8432 141.393 92.3936 138.577 92.7008L138.526 92.8032ZM121.732 70.224C127.313 78.9792 136.58 92.3424 138.526 92.0864C141.29 91.7792 165.969 83.28 168.887 78.7232C171.908 74.0128 168.631 70.0192 167.607 68.7392C167.505 68.5856 167.351 68.5344 167.198 68.5344C165.969 68.4832 163.614 70.6336 161.719 72.4256C160.849 73.296 159.876 74.1152 158.903 74.832C156.65 76.2656 144.465 80.8736 143.953 81.0784C143.799 81.1296 143.646 81.0784 143.543 80.976L133.201 68.3296L121.732 70.224Z" fill="#231F20"/>
<path d="M110.162 135.043C110.162 135.043 115.128 143.645 115.384 147.024C115.64 150.403 106.526 185.731 106.526 185.731H118.814C118.814 185.731 128.235 151.99 128.747 146.512C129.259 141.034 124.6 129.309 124.6 129.309L110.162 135.043Z" fill="white"/>
<path d="M118.762 186.09H106.474C106.372 186.09 106.27 186.038 106.167 185.936C106.116 185.834 106.065 185.731 106.116 185.629C106.218 185.27 115.23 150.352 114.974 147.024C114.718 143.696 109.854 135.248 109.802 135.197C109.751 135.094 109.751 134.992 109.751 134.89C109.802 134.787 109.854 134.736 109.956 134.685L124.292 128.95C124.497 128.899 124.702 128.95 124.753 129.155C124.958 129.667 129.463 141.034 128.951 146.563C128.439 152.093 119.428 184.451 119.07 185.834C119.07 185.987 118.916 186.09 118.762 186.09ZM106.986 185.373H118.506C119.377 182.198 127.825 151.581 128.337 146.461C128.798 141.648 125.06 131.664 124.292 129.718L110.673 135.146C111.646 136.835 115.486 143.85 115.742 146.922C115.998 150.25 108.062 181.072 106.986 185.373Z" fill="#231F20"/>
<path d="M87.1719 133.456L89.6295 146.922C89.6295 146.922 81.5399 180.15 79.6455 186.243L91.3703 187.83C91.3703 187.83 104.426 151.837 104.785 148.867C105.143 145.898 102.532 132.227 102.532 132.227L87.1719 133.456Z" fill="white"/>
<path d="M91.3709 188.189L79.5437 186.602C79.3389 186.55 79.1853 186.397 79.2365 186.192V186.141C81.0797 180.253 88.8109 148.662 89.2205 146.922L86.8141 133.507C86.7629 133.302 86.9165 133.098 87.1213 133.098C87.1213 133.098 87.1213 133.098 87.1725 133.098L102.481 131.869C102.686 131.869 102.84 131.971 102.84 132.176C102.942 132.739 105.451 145.949 105.092 148.918C104.734 151.888 92.1901 186.499 91.6781 187.984C91.6269 188.086 91.4733 188.189 91.3709 188.189ZM80.1069 185.936L91.1661 187.421C92.3437 184.093 104.12 151.53 104.427 148.816C104.734 146.205 102.635 134.685 102.225 132.637L87.6333 133.814L89.9885 146.922C89.9885 146.973 89.9885 147.024 89.9885 147.075C89.8861 147.331 82.1549 178.973 80.1069 185.936Z" fill="#231F20"/>
<path d="M105.963 42.1664C105.451 41.7056 105.195 38.7872 104.939 38.0192C104.222 35.664 104.273 33.1552 105.041 30.8512C105.912 28.752 107.601 27.0624 109.7 26.192C110.827 25.6288 112.107 25.4752 113.284 25.8336C113.592 25.9872 113.95 26.0896 114.36 26.1408C114.667 26.0896 114.974 26.0384 115.281 25.8848C119.377 24.0416 123.115 24.2976 127.006 26.448C128.03 26.96 128.952 27.6256 129.668 28.496C130.948 30.0832 131.204 32.3872 130.641 34.3328C130.232 35.7664 129.31 38.1728 127.979 39.0432C127.262 39.504 126.443 39.248 125.777 39.5552C124.344 40.0672 123.012 41.3984 121.63 42.1152C116.868 44.5728 110.468 46.2624 105.963 42.1664Z" fill="white"/>
<path d="M112.619 44.9824C110.059 45.0336 107.601 44.112 105.707 42.4224C105.297 42.064 105.143 40.9888 104.836 39.4528C104.734 38.8896 104.631 38.3776 104.58 38.1216C103.863 35.7152 103.863 33.104 104.683 30.7488C105.604 28.5472 107.345 26.8064 109.495 25.8848C110.98 25.2704 112.26 25.1168 113.335 25.5264L113.591 25.6288C113.796 25.7312 114.001 25.7824 114.257 25.8336C114.513 25.7824 114.769 25.7312 114.974 25.6288C119.121 23.7344 122.961 23.9392 127.057 26.1408C128.132 26.6528 129.054 27.4208 129.873 28.2912C131.153 29.8784 131.511 32.1824 130.948 34.4864C130.487 36.176 129.463 38.48 128.132 39.4016C127.671 39.6576 127.211 39.8112 126.699 39.8112C126.443 39.8112 126.135 39.8624 125.879 39.9136C125.06 40.272 124.292 40.7328 123.575 41.296C123.012 41.7056 122.398 42.1152 121.783 42.4736C119.582 43.6 116.1 44.9824 112.619 44.9824ZM106.219 41.9104C110.929 46.2112 117.841 43.6512 121.527 41.7568C122.142 41.4496 122.705 41.04 123.217 40.6304C123.985 40.0672 124.804 39.5552 125.675 39.1456C125.982 39.0432 126.34 38.992 126.699 38.992C127.108 38.992 127.467 38.8896 127.825 38.736C129.054 37.9168 129.975 35.5104 130.334 34.2304C130.897 32.336 130.59 30.288 129.412 28.7008C128.695 27.8816 127.825 27.216 126.852 26.7552C122.961 24.6048 119.377 24.4512 115.435 26.2432C114.82 26.6016 114.052 26.6528 113.438 26.2944L113.182 26.192C112.26 25.8848 111.134 25.9872 109.854 26.5504C107.857 27.3696 106.219 28.9568 105.399 31.0048C104.631 33.2576 104.631 35.664 105.297 37.9168C105.399 38.224 105.502 38.736 105.604 39.3504C105.758 40.1696 106.014 41.7056 106.219 41.9104Z" fill="#231F20"/>
<path d="M118.66 105.808L131.511 141.75L111.236 145.181L105.502 126.288L107.652 145.386L85.2776 146.717C85.2776 146.717 79.0312 118.352 81.4888 106.832L118.66 105.808Z" fill="#231F20"/>
<path d="M85.2271 147.024C85.0735 147.024 84.9199 146.922 84.8687 146.768C84.6127 145.59 78.6223 118.198 81.0799 106.781C81.1311 106.627 81.2335 106.474 81.4383 106.474L118.661 105.45C118.814 105.45 118.968 105.552 119.019 105.706L131.87 141.648C131.921 141.75 131.87 141.853 131.819 141.955C131.768 142.058 131.665 142.109 131.563 142.109L111.288 145.488C111.134 145.539 110.929 145.386 110.878 145.232L106.27 130.026L107.96 145.283C107.96 145.386 107.96 145.488 107.857 145.539C107.806 145.59 107.704 145.642 107.601 145.642L85.2271 147.024ZM81.7455 107.19C79.6463 117.994 84.8687 143.286 85.5343 146.307L107.192 145.027L105.093 126.288C105.093 126.083 105.246 125.93 105.4 125.878C105.553 125.878 105.707 125.981 105.758 126.134L111.441 144.72L131 141.443L118.405 106.166L81.7455 107.19Z" fill="#231F20"/>
<path d="M108.727 52.6112C108.727 52.6112 89.1687 49.5904 84.4583 59.5744C79.3383 70.5312 79.5431 109.341 79.5431 109.341L122.09 107.754L120.759 83.7408L127.159 88.5024L137.45 69.6096C137.45 69.6096 129.105 61.6736 123.422 57.5776C117.738 53.4816 108.727 52.6112 108.727 52.6112Z" fill="#98FD68"/>
<path d="M117.739 53.4816L116.561 61.008C116.561 61.008 115.025 64.2848 110.161 62.3392C105.297 60.3936 105.041 56.8096 105.041 56.8096L107.755 42.832C107.755 42.832 116.305 39.76 116.356 31.5168C119.326 34.9984 123.678 37.0976 128.286 37.2C128.286 37.2 127.569 45.7504 126.391 49.5392C125.214 53.328 117.739 53.4816 117.739 53.4816Z" fill="white"/>
<path d="M112.977 63.312C111.953 63.312 110.929 63.056 110.007 62.6464C104.99 60.6496 104.683 56.9632 104.683 56.8096C104.683 56.7584 104.683 56.7584 104.683 56.7072L107.345 42.7296C107.396 42.6272 107.447 42.5248 107.601 42.4736C107.703 42.4224 115.895 39.4016 115.998 31.4656C115.998 31.2608 116.151 31.1072 116.356 31.1072C116.459 31.1072 116.561 31.1584 116.612 31.2608C116.663 31.312 120.913 36.7392 128.286 36.8928C128.388 36.8928 128.491 36.944 128.542 36.9952C128.593 37.0464 128.644 37.1488 128.644 37.2512C128.593 37.6096 127.876 45.8528 126.699 49.6928C125.572 53.328 119.479 53.7888 117.995 53.84L116.919 61.1104C116.919 61.1616 116.919 61.1616 116.868 61.2128C116.1 62.544 114.615 63.4144 112.977 63.312ZM105.399 56.8096C105.451 57.2192 105.911 60.24 110.263 61.9808C114.513 63.6704 115.998 61.2128 116.151 60.8544L117.329 53.3792C117.38 53.2256 117.483 53.072 117.687 53.072C117.739 53.072 124.907 52.9696 125.982 49.4368C127.006 46.16 127.671 39.1968 127.825 37.5072C123.575 37.3024 119.531 35.4592 116.612 32.336C115.998 39.4016 109.239 42.5248 108.011 43.0368L105.399 56.8096Z" fill="#231F20"/>
<path d="M110.212 42.7296C109.905 40.8864 108.42 39.504 106.526 39.4016C104.273 39.4016 103.915 41.9104 104.376 43.6C104.939 45.7504 107.14 47.0304 109.291 46.4672H109.342" fill="white"/>
<path d="M108.318 46.9792C106.321 46.9792 104.58 45.648 104.068 43.7024C103.761 42.6272 103.761 41.04 104.529 40.016C104.99 39.4016 105.758 39.0432 106.526 39.0944C108.574 39.248 110.212 40.7328 110.519 42.7808C110.519 42.9856 110.417 43.1392 110.212 43.1904C110.007 43.1904 109.854 43.088 109.802 42.8832C109.546 41.2448 108.164 40.016 106.526 39.8624C105.962 39.8624 105.45 40.0672 105.092 40.528C104.477 41.296 104.478 42.6272 104.734 43.6C105.246 45.5456 107.294 46.7232 109.239 46.2112H109.29C109.495 46.16 109.7 46.2112 109.751 46.416C109.802 46.6208 109.751 46.8256 109.546 46.8768C109.495 46.8768 109.495 46.8768 109.444 46.8768C109.085 46.928 108.676 46.9792 108.318 46.9792Z" fill="#231F20"/>
<path d="M120.862 41.1936C120.862 41.1936 123.063 45.4432 122.398 46.0576C121.732 46.672 119.991 46.0064 119.991 46.0064" fill="white"/>
<path d="M121.476 46.7232C120.913 46.7232 120.35 46.6208 119.838 46.416C119.633 46.3648 119.582 46.16 119.633 45.9552C119.684 45.7504 119.889 45.6992 120.094 45.7504C120.657 45.9552 121.732 46.2112 122.142 45.8528C122.346 45.4944 121.578 43.4464 120.554 41.3984C120.452 41.2448 120.503 40.9888 120.708 40.9376C120.862 40.8352 121.118 40.8864 121.169 41.0912C122.039 42.7808 123.422 45.6992 122.602 46.416C122.295 46.6208 121.886 46.7232 121.476 46.7232Z" fill="#231F20"/>
<path d="M119.525 38.9928C119.705 38.2216 119.582 37.5341 119.252 37.4573C118.921 37.3804 118.508 37.9433 118.329 38.7145C118.149 39.4856 118.272 40.1731 118.602 40.2499C118.933 40.3268 119.346 39.764 119.525 38.9928Z" fill="#231F20"/>
<path d="M125.544 40.3832C125.723 39.612 125.601 38.9246 125.27 38.8477C124.94 38.7709 124.527 39.3337 124.347 40.1049C124.168 40.8761 124.29 41.5635 124.621 41.6404C124.951 41.7172 125.365 41.1544 125.544 40.3832Z" fill="#231F20"/>
<path d="M117.739 53.4816C117.739 53.4816 114.769 53.584 111.697 50.8192C111.697 50.8192 112.158 56.3488 117.124 57.5776L117.739 53.4816Z" fill="#231F20"/>
<path d="M117.073 57.8848H116.97C111.85 56.6048 111.338 50.8704 111.287 50.8192C111.287 50.6656 111.338 50.512 111.492 50.4608C111.646 50.4096 111.799 50.4096 111.902 50.512C114.82 53.1232 117.636 53.072 117.687 53.072C117.892 53.072 118.046 53.2256 118.046 53.4304V53.4816L117.431 57.5776C117.431 57.68 117.38 57.7824 117.278 57.8336C117.226 57.8848 117.175 57.936 117.073 57.8848ZM112.209 51.6896C112.567 53.1744 113.642 56.0928 116.817 57.1168L117.329 53.84C115.434 53.584 113.694 52.8672 112.209 51.6896Z" fill="#231F20"/>
<path d="M120.402 49.9488C119.224 50 118.098 49.5904 117.227 48.8224C115.23 46.928 115.742 43.2928 115.742 43.1392C115.742 42.9344 115.947 42.7808 116.152 42.832C116.357 42.832 116.51 43.0368 116.459 43.2416V43.2928C116.459 43.344 115.998 46.672 117.739 48.3616C118.661 49.232 120.094 49.488 121.989 49.1296C122.194 49.0784 122.347 49.232 122.398 49.3856C122.45 49.5904 122.296 49.744 122.142 49.7952C121.579 49.8464 121.016 49.9488 120.402 49.9488Z" fill="#231F20"/>
<path d="M141.24 80.6688C141.7 81.488 142.212 82.2048 142.571 82.8192C143.339 84.0992 142.98 85.7376 141.7 86.5568L136.427 89.936C135.147 90.7552 133.508 90.3968 132.689 89.168C132.28 88.5536 131.768 87.8368 131.256 87.0688C128.798 83.4336 125.726 78.6208 125.47 77.7504C125.368 77.392 125.316 76.9824 125.316 76.624C125.316 75.4464 125.675 74.1152 125.265 73.0912C124.702 71.76 122.347 72.3232 121.118 70.0192C120.401 68.688 120.452 67.0496 121.272 65.7696L126.136 62.6464C127.62 62.4416 129.105 63.056 130.027 64.2848C131.614 66.384 130.078 68.2784 131.051 69.3536C131.768 70.1728 133.15 70.3776 134.225 70.8896C134.584 71.0432 134.891 71.248 135.198 71.504C135.915 72.0672 138.987 76.9312 141.24 80.6688Z" fill="white"/>
<path d="M134.994 90.704C133.97 90.704 132.997 90.192 132.434 89.3216C132.178 88.9632 131.922 88.6048 131.666 88.1952L131 87.2224C128.952 84.1504 125.47 78.8256 125.163 77.8528C125.061 77.4432 125.01 77.0336 125.01 76.5728C125.01 76.1632 125.061 75.8048 125.061 75.3952C125.214 74.6784 125.163 73.9104 124.958 73.1424C124.805 72.7328 124.344 72.528 123.627 72.272C122.706 71.9136 121.579 71.504 120.811 70.0704C120.043 68.6368 120.094 66.8448 121.016 65.4624C121.067 65.4112 121.067 65.4112 121.118 65.36L125.982 62.2368C126.034 62.2368 126.085 62.1856 126.085 62.1856C127.723 61.9808 129.362 62.6464 130.334 63.9776C131.307 65.2576 131.205 66.4864 131.102 67.4592C131.051 68.2272 131 68.688 131.307 68.9952C131.87 69.5072 132.536 69.8144 133.304 70.0192C133.662 70.1216 134.021 70.2752 134.379 70.4288C134.789 70.5824 135.147 70.8384 135.454 71.0944C136.222 71.76 139.55 77.1872 141.496 80.3616L142.11 81.3344C142.366 81.744 142.622 82.1536 142.827 82.5632C143.698 83.9968 143.288 85.8912 141.854 86.7616L136.581 90.0896C136.171 90.4992 135.557 90.704 134.994 90.704ZM121.579 65.9744C120.862 67.152 120.811 68.5856 121.477 69.7632C122.091 70.9408 123.064 71.2992 123.883 71.6064C124.6 71.8624 125.317 72.1184 125.624 72.8864C125.88 73.7056 125.931 74.576 125.778 75.4464C125.726 75.8048 125.726 76.1632 125.726 76.5216C125.726 76.88 125.778 77.1872 125.829 77.5456C126.034 78.16 128.184 81.6416 131.563 86.7616L132.229 87.7344C132.485 88.144 132.741 88.5024 132.997 88.8608C133.714 89.936 135.147 90.2432 136.274 89.5264L141.496 86.1984C142.571 85.4816 142.93 84.048 142.264 82.9728C142.059 82.6144 141.803 82.2048 141.547 81.744L140.933 80.7712C137.707 75.4976 135.506 72.1184 134.994 71.6576C134.738 71.4528 134.43 71.248 134.123 71.0944C133.816 70.9408 133.458 70.8384 133.099 70.6848C132.28 70.48 131.461 70.0192 130.846 69.456C130.283 68.8928 130.386 68.1248 130.437 67.3568C130.488 66.4352 130.59 65.4112 129.771 64.3872C128.952 63.312 127.621 62.6976 126.29 62.8512L121.579 65.9744Z" fill="#231F20"/>
<path d="M124.533 60.0714L120.043 62.9329L121.666 65.4804L126.157 62.6188L124.533 60.0714Z" fill="white"/>
<path d="M121.681 65.872C121.579 65.872 121.425 65.8208 121.374 65.7184L119.736 63.1584C119.685 63.056 119.685 63.0048 119.685 62.9024C119.685 62.8 119.736 62.7488 119.838 62.6976L124.344 59.8304C124.446 59.7792 124.497 59.7792 124.6 59.7792C124.702 59.7792 124.753 59.8816 124.805 59.9328L126.443 62.4928C126.545 62.6464 126.545 62.8512 126.341 63.0048C126.341 63.0048 126.341 63.0048 126.289 63.0048L121.784 65.872C121.784 65.872 121.733 65.872 121.681 65.872ZM120.555 63.056L121.784 65.0016L125.675 62.4928L124.446 60.5472L120.555 63.056Z" fill="#231F20"/>
<path d="M141.239 80.6688L131.306 87.0176C128.849 83.3824 125.777 78.5696 125.521 77.6992C125.418 77.3408 125.367 76.9312 125.367 76.5728L134.276 70.8896C134.634 71.0432 134.942 71.248 135.249 71.504C135.914 72.0672 138.986 76.9312 141.239 80.6688Z" fill="#231F20"/>
<path d="M131.306 87.376C131.204 87.376 131.05 87.3248 130.999 87.2224C128.951 84.1504 125.47 78.8256 125.162 77.8528C125.06 77.4432 125.009 77.0336 125.009 76.5728C125.009 76.4704 125.06 76.3168 125.162 76.2656L134.071 70.5824C134.174 70.5312 134.327 70.5312 134.43 70.5824C134.839 70.736 135.198 70.992 135.505 71.248C136.273 71.9136 139.601 77.3408 141.546 80.5152C141.649 80.6688 141.598 80.8736 141.444 80.976L131.511 87.3248C131.409 87.376 131.358 87.376 131.306 87.376ZM125.726 76.7776C125.726 77.0848 125.777 77.3408 125.828 77.648C126.033 78.2624 128.081 81.5904 131.409 86.5568L140.778 80.5664C137.655 75.4976 135.556 72.2208 135.044 71.76C134.839 71.5552 134.583 71.4016 134.327 71.2992L125.726 76.7776Z" fill="#231F20"/>
<path d="M86.916 82C86.916 82.512 89.6808 106.525 93.5208 106.678C97.3608 106.832 123.422 91.216 123.422 91.216C128.03 89.8848 139.396 87.6832 135.402 80.1568C135.146 79.5936 134.686 79.1328 134.174 78.8256C133.354 78.4672 132.382 78.4672 131.511 78.7744C130.59 79.0304 129.719 79.3376 128.9 79.7984C128.644 80.0032 128.286 80.1056 127.927 80.0544C127.722 79.952 127.569 79.8496 127.415 79.696L125.982 78.2112C125.162 79.8496 124.343 82.1024 122.807 83.1264C122.142 83.5872 121.066 83.7408 120.35 84.048L112.158 87.0688L99.8184 91.6256L97.7192 78.7744" fill="white"/>
<path d="M93.572 107.088H93.5208C89.1688 106.883 86.5576 82.256 86.5576 82.0512C86.5576 81.8464 86.7112 81.6928 86.916 81.6928C87.1208 81.6928 87.2744 81.8464 87.2744 82.0512C87.3256 83.9968 90.2952 106.269 93.5208 106.422C96.4392 106.525 114.257 96.3872 123.217 91.0112C123.268 91.0112 123.268 90.96 123.319 90.96C123.729 90.8576 124.19 90.704 124.65 90.6016C128.183 89.6288 134.122 88.0416 135.556 84.7648C136.119 83.4848 135.966 82.0512 135.044 80.464C134.788 79.952 134.43 79.5424 133.969 79.2864C133.406 78.9792 132.638 78.9792 131.562 79.2352C130.692 79.4912 129.822 79.7984 129.002 80.2592C128.644 80.5152 128.234 80.6176 127.774 80.5152C127.518 80.4128 127.262 80.2592 127.108 80.0544L126.033 78.928C125.93 79.0816 125.879 79.2864 125.777 79.44C125.06 80.9248 124.292 82.6144 122.961 83.4848C122.398 83.792 121.834 84.048 121.22 84.2016C120.964 84.304 120.657 84.3552 120.452 84.4576L99.9208 92.0352C99.716 92.0864 99.5112 91.984 99.46 91.8304V91.7792L97.3608 78.928C97.3096 78.7232 97.4632 78.5696 97.668 78.5184C97.8728 78.4672 98.0264 78.6208 98.0776 78.7744L100.074 91.216L120.196 83.792C120.452 83.6896 120.708 83.5872 121.015 83.536C121.578 83.3824 122.09 83.1776 122.602 82.9216C123.729 82.1536 124.497 80.5664 125.162 79.1328C125.316 78.7744 125.47 78.4672 125.623 78.1088C125.674 78.0064 125.777 77.9552 125.879 77.904C125.982 77.904 126.084 77.904 126.186 78.0064L127.62 79.4912C127.722 79.5936 127.825 79.696 127.978 79.7984C128.234 79.7984 128.439 79.7472 128.644 79.5936C129.514 79.1328 130.385 78.7744 131.358 78.5184C132.126 78.3136 133.303 78.1088 134.276 78.6208C134.89 78.9792 135.351 79.4912 135.71 80.1056C136.682 81.8976 136.836 83.5872 136.222 85.072C134.686 88.656 128.746 90.2432 124.855 91.3184C124.394 91.4208 123.934 91.5744 123.575 91.6768C122.039 92.496 97.6168 107.088 93.572 107.088Z" fill="#231F20"/>
<path d="M98.7432 58.8576C98.7432 59.728 100.842 82.512 100.842 82.512L85.1752 85.4816C85.1752 85.4816 83.9464 67.2032 84.3048 66.5376" fill="#98FD68"/>
<path d="M85.1755 85.84C85.0731 85.84 85.0219 85.7888 84.9707 85.7888C84.8683 85.7376 84.8171 85.6352 84.8171 85.5328C84.4587 80.0032 83.6395 67.1008 83.9979 66.384C84.1003 66.2304 84.3051 66.128 84.4587 66.2304C84.6123 66.3328 84.7147 66.5376 84.6123 66.6912C84.4075 67.4592 85.0219 77.9552 85.4827 85.072L100.382 82.256C100.126 79.3888 98.3339 59.728 98.3339 58.9088C98.3339 58.704 98.4875 58.5504 98.6923 58.5504C98.8971 58.5504 99.0507 58.704 99.0507 58.9088C99.0507 59.5744 100.433 74.6784 101.15 82.5632C101.15 82.768 101.048 82.9216 100.843 82.9728L85.1755 85.84Z" fill="#231F20"/>
<path d="M87.8376 143.901C87.684 143.901 87.5304 143.798 87.4792 143.594C85.7896 133.917 84.612 124.189 83.9464 114.41C83.8952 114.205 84.0488 114.051 84.2536 114C84.4584 113.949 84.612 114.102 84.6632 114.307V114.358C85.3288 124.138 86.5064 133.814 88.196 143.44C88.2472 143.645 88.0936 143.798 87.8888 143.85L87.8376 143.901Z" fill="white"/>
<path d="M79.5943 186.243C79.5943 186.243 74.7815 196.176 75.6007 196.842C76.4199 197.507 100.484 201.91 100.125 198.736C99.7671 195.562 91.4727 191.414 91.3191 187.779L79.5943 186.243Z" fill="#231F20"/>
<path d="M96.4396 200.221C89.5788 200.221 76.1132 197.661 75.4476 197.149C74.526 196.432 77.0348 190.749 79.3388 186.09C79.39 185.936 79.5436 185.885 79.6972 185.885L91.422 187.472C91.5756 187.472 91.7292 187.626 91.7292 187.83C91.8316 189.622 94.0844 191.619 96.286 193.565C98.3852 195.408 100.382 197.149 100.536 198.787C100.587 199.248 100.331 199.658 99.9212 199.811C99.3068 200.067 98.0268 200.221 96.4396 200.221ZM75.9084 196.586C77.2908 197.2 96.8492 200.835 99.6652 199.094C99.87 198.992 99.87 198.89 99.87 198.838C99.7164 197.507 97.7708 195.766 95.8764 194.077C93.6748 192.131 91.3708 190.134 91.1148 188.138L79.902 186.653C77.7004 191.005 75.7036 195.818 75.9084 196.586Z" fill="#231F20"/>
<path d="M106.474 185.731C106.474 185.731 104.119 188.291 102.686 195.664C102.686 195.664 129.412 198.07 129.719 196.739C130.026 195.408 122.807 193.206 120.606 190.595C118.404 187.984 118.762 185.731 118.762 185.731H106.474Z" fill="#231F20"/>
<path d="M126.34 197.507C124.292 197.507 121.067 197.405 116.1 197.046C109.444 196.637 102.737 196.022 102.686 196.022C102.583 196.022 102.481 195.971 102.43 195.869C102.379 195.766 102.327 195.664 102.379 195.613C103.863 188.24 106.167 185.629 106.27 185.526C106.321 185.475 106.423 185.424 106.526 185.424H118.763C118.865 185.424 118.967 185.475 119.019 185.526C119.07 185.629 119.121 185.731 119.07 185.834C119.07 185.834 118.763 187.984 120.811 190.39C121.886 191.67 124.19 192.848 126.238 193.872C128.849 195.203 130.231 195.971 130.027 196.842C130.027 197.098 129.924 197.507 126.34 197.507ZM103.147 195.306C112.721 196.176 127.723 197.2 129.361 196.586C129.156 196.125 127.159 195.101 125.982 194.486C123.883 193.411 121.476 192.182 120.35 190.851C118.609 188.803 118.404 186.909 118.404 186.09H106.679C106.219 186.653 104.375 189.264 103.147 195.306Z" fill="#231F20"/>
<path d="M167.044 72.5792C167.044 72.5792 169.194 76.7264 173.188 87.0176C177.182 97.3088 183.786 119.581 182.046 134.736C180.305 149.891 170.986 166.224 159.518 168.118C148.049 170.013 138.73 165.507 136.222 160.029C133.713 154.55 135.454 126.39 134.89 118.454C134.583 113.846 134.071 109.29 133.252 104.784C133.303 104.784 166.378 86.5568 167.044 72.5792Z" fill="#00B3A2"/>
<path d="M154.552 168.886C146.718 168.886 138.578 166.019 135.915 160.182C134.174 156.445 134.43 142.621 134.584 131.51C134.686 125.93 134.738 121.117 134.584 118.506C134.277 113.949 133.765 109.392 132.997 104.835C132.946 104.682 133.048 104.528 133.202 104.477C133.509 104.272 166.072 86.1984 166.738 72.5792C166.738 72.4256 166.84 72.272 166.994 72.272C167.147 72.2208 167.301 72.3232 167.403 72.4768C167.403 72.528 169.605 76.7264 173.547 86.9664C177.694 97.616 184.197 119.632 182.456 134.838C180.766 149.482 171.55 166.582 159.621 168.528C157.931 168.784 156.242 168.886 154.552 168.886ZM133.714 104.938C134.482 109.392 134.994 113.898 135.301 118.454C135.454 121.117 135.403 125.93 135.301 131.51C135.147 142.57 134.891 156.291 136.581 159.875C139.038 165.2 148.306 169.654 159.518 167.76C171.141 165.814 180.101 149.072 181.739 134.685C183.48 119.632 176.978 97.7184 172.882 87.12C170.066 79.8496 168.171 75.6512 167.301 73.808C166.328 79.4912 160.542 86.352 150.149 94.1856C144.875 98.128 139.397 101.712 133.714 104.938Z" fill="#231F20"/>
<path d="M167.71 79.2352C167.045 84.048 165.457 88.656 163 92.8544C162.488 93.7248 161.925 94.6464 161.31 95.5168C159.825 97.6672 158.085 99.664 156.139 101.354C154.91 102.429 153.681 103.402 152.35 104.323C151.019 105.245 149.585 106.064 148.101 106.832C146.411 107.702 144.619 108.419 142.725 108.931C141.957 109.136 141.24 109.29 140.472 109.341C140.062 109.392 139.653 109.392 139.294 109.341C136.478 108.982 134.123 107.805 133.457 105.245C133.099 103.862 133.253 102.07 134.072 99.7664C136.529 93.3152 145.438 86.9664 151.173 82.768C156.907 78.5696 165.918 72.2208 165.918 72.2208C167.249 71.7088 168.273 74.576 167.71 79.2352Z" fill="#231F20"/>
<path d="M139.857 109.699C139.652 109.699 139.448 109.699 139.192 109.648C135.812 109.238 133.713 107.754 133.048 105.296C132.638 103.76 132.843 101.814 133.662 99.6128C136.017 93.3152 144.568 87.0688 150.2 82.9728L150.916 82.4608C156.6 78.3136 165.56 71.9648 165.662 71.8624C165.713 71.8624 165.713 71.8112 165.764 71.8112C166.174 71.6576 166.635 71.76 166.942 72.016C168.017 72.8864 168.478 75.7024 168.068 79.2352C167.556 83.5872 165.867 88.4512 163.307 93.008C162.795 93.9296 162.232 94.8512 161.617 95.7216C160.132 97.9232 158.392 99.8688 156.395 101.61C155.166 102.685 153.886 103.709 152.555 104.579C151.172 105.501 149.739 106.371 148.254 107.088C146.513 107.958 144.721 108.675 142.827 109.238C142.059 109.443 141.291 109.597 140.472 109.648C140.267 109.699 140.062 109.699 139.857 109.699ZM166.02 72.528C165.304 73.04 156.804 79.0816 151.326 83.0752L150.609 83.5872C145.028 87.6832 136.632 93.8272 134.328 99.92C133.56 102.019 133.355 103.811 133.713 105.194C134.43 107.856 137.144 108.726 139.243 109.034C139.601 109.085 140.011 109.085 140.369 109.034C141.137 108.982 141.854 108.829 142.571 108.624C144.414 108.112 146.155 107.395 147.844 106.525C149.278 105.808 150.712 104.938 152.043 104.016C153.374 103.146 154.603 102.122 155.832 101.098C157.777 99.408 159.518 97.4624 160.952 95.312C161.515 94.4416 162.078 93.5712 162.59 92.6496C165.15 88.1952 166.788 83.4336 167.3 79.184C167.71 75.4976 167.147 73.1936 166.43 72.5792C166.379 72.528 166.225 72.4768 166.02 72.528Z" fill="#231F20"/>
<path d="M153.63 100.074C153.169 100.893 152.708 101.712 152.145 102.48C149.943 105.757 146.564 108.061 142.724 108.931C141.956 109.136 141.239 109.29 140.471 109.341C140.062 109.392 139.652 109.392 139.294 109.341C137.297 109.085 135.147 108.368 134.02 106.576C132.843 104.682 134.327 102.07 136.324 101.405C136.222 100.227 136.734 99.0496 137.655 98.2816C138.833 97.3088 141.7 96.848 143.134 97.1552C143.031 95.7216 143.339 94.288 143.953 93.008C144.67 91.728 146.001 90.9088 147.435 90.9088C147.639 89.1168 148.817 87.5808 150.507 86.9152C152.247 86.2496 153.835 86.8128 155.319 87.7344C156.804 88.656 156.753 89.8336 156.446 91.5744C155.934 94.544 155.012 97.4112 153.63 100.074Z" fill="white"/>
<path d="M139.857 109.699C139.652 109.699 139.448 109.699 139.192 109.648C136.529 109.29 134.635 108.317 133.662 106.678C133.099 105.808 133.048 104.682 133.406 103.709C133.816 102.531 134.737 101.558 135.915 101.046C135.915 99.8176 136.478 98.6912 137.4 97.872C138.577 96.8992 141.137 96.4384 142.724 96.592C142.673 95.2608 142.98 93.8784 143.646 92.7008C144.363 91.4208 145.643 90.5504 147.128 90.448C147.435 88.656 148.715 87.12 150.404 86.4544C152.504 85.6352 154.347 86.5568 155.524 87.3248C157.214 88.4 157.112 89.7824 156.804 91.5232C156.292 94.544 155.32 97.4112 153.937 100.125C153.476 100.995 153.016 101.814 152.452 102.582C150.2 105.91 146.718 108.266 142.827 109.187C142.059 109.392 141.291 109.546 140.472 109.597C140.267 109.699 140.062 109.699 139.857 109.699ZM142.059 97.36C140.625 97.36 138.731 97.7696 137.809 98.4864C136.99 99.152 136.529 100.227 136.58 101.302C136.58 101.456 136.478 101.61 136.324 101.661C135.249 102.07 134.43 102.89 134.02 103.965C133.713 104.733 133.764 105.603 134.225 106.32C135.096 107.754 136.785 108.624 139.243 108.931C139.601 108.982 140.011 108.982 140.369 108.931C141.137 108.88 141.854 108.726 142.571 108.522C146.308 107.651 149.636 105.398 151.787 102.224C152.299 101.456 152.811 100.688 153.22 99.8688C154.552 97.2064 155.524 94.3904 156.036 91.472C156.344 89.68 156.292 88.8096 155.064 87.9904C153.374 86.9152 151.992 86.6592 150.558 87.1712C148.971 87.7856 147.896 89.2192 147.691 90.8576C147.691 91.0624 147.486 91.216 147.332 91.1648C146.001 91.1648 144.824 91.9328 144.209 93.0592C143.595 94.288 143.288 95.6192 143.39 97.0016C143.39 97.104 143.339 97.2064 143.288 97.3088C143.185 97.36 143.083 97.4112 142.98 97.4112C142.724 97.4112 142.366 97.36 142.059 97.36Z" fill="#231F20"/>
<path d="M165.201 70.736C166.02 70.2752 166.993 69.968 166.993 71.0944C166.942 73.0912 165.764 77.2896 164.586 77.648C162.231 78.3648 163.46 73.0912 163.46 73.0912" fill="white"/>
<path d="M164.126 78.1088C163.818 78.1088 163.511 78.0064 163.306 77.8016C162.231 76.7776 162.948 73.3984 163.05 73.04C163.102 72.8352 163.306 72.7328 163.46 72.784C163.665 72.8352 163.767 73.04 163.716 73.1936C163.409 74.4736 163.153 76.7264 163.767 77.2896C163.87 77.392 164.023 77.4944 164.382 77.3408C165.252 77.0848 166.532 73.1936 166.532 71.1456C166.532 70.9408 166.481 70.7872 166.43 70.736C166.378 70.6848 166.174 70.5824 165.303 71.0944C165.15 71.1968 164.894 71.1456 164.791 70.992C164.689 70.8384 164.74 70.5824 164.894 70.48C164.894 70.48 164.894 70.48 164.945 70.48C165.764 70.0192 166.378 69.9168 166.788 70.1216C167.095 70.3776 167.3 70.736 167.249 71.1456C167.198 72.9376 166.122 77.5968 164.586 78.0576C164.433 78.0576 164.279 78.1088 164.126 78.1088Z" fill="#231F20"/>
<path d="M120.657 116.099C120.605 116.099 120.554 116.099 120.503 116.048C118.506 114.973 115.997 110.877 115.895 110.723C115.793 110.57 115.844 110.314 115.997 110.211C116.151 110.109 116.407 110.16 116.509 110.314C116.561 110.365 118.967 114.41 120.81 115.382C120.964 115.485 121.066 115.69 120.964 115.843C120.913 116.048 120.759 116.099 120.657 116.099Z" fill="white"/>
<path d="M90.4495 117.686C90.2959 117.686 90.1423 117.584 90.0911 117.379C90.0399 117.174 90.1935 117.021 90.3471 116.97C90.5007 116.918 94.7503 116.099 93.9823 111.645C93.9311 111.44 94.0847 111.286 94.2895 111.235C94.4943 111.184 94.6479 111.338 94.6991 111.491C95.6207 116.662 90.5519 117.635 90.5007 117.635L90.4495 117.686Z" fill="white"/>
<path d="M167.71 79.2352C167.045 84.048 165.458 88.656 163 92.8544C162.488 93.7248 161.925 94.6464 161.31 95.5168C158.904 98.9984 155.832 101.968 152.35 104.323C152.606 104.17 152.043 99.4592 152.094 98.7936C152.146 98.128 152.35 97.4112 152.35 96.7456C152.35 95.824 151.787 94.9536 151.634 94.032C151.378 92.5984 151.838 91.1136 152.914 90.0896C152.248 89.8336 151.838 89.1168 151.992 88.4C152.146 87.7344 152.555 87.12 153.118 86.6592C154.603 85.2768 156.344 84.2016 158.238 83.536C158.494 83.3824 158.853 83.3824 159.109 83.4336C159.416 83.536 159.57 83.8944 159.877 84.048C160.491 84.4064 161.259 83.792 161.874 83.3312C162.488 82.8704 163.563 82.6656 163.717 83.3824C163.666 81.3344 165.15 79.5424 167.198 79.2352C167.352 79.2352 167.506 79.2352 167.71 79.2352Z" fill="white"/>
<path d="M152.35 104.682C152.248 104.682 152.145 104.63 152.043 104.528C151.992 104.426 151.992 104.272 152.043 104.118C152.043 102.992 151.992 101.814 151.889 100.688C151.787 99.664 151.736 98.9984 151.787 98.7424C151.787 98.384 151.838 98.0768 151.889 97.7184C151.94 97.4112 151.992 97.0528 151.992 96.7456C151.94 96.2336 151.838 95.7216 151.633 95.2608C151.48 94.9024 151.377 94.4928 151.275 94.1344C151.019 92.752 151.377 91.3184 152.299 90.2432C151.736 89.7824 151.48 89.0656 151.633 88.4C151.787 87.632 152.248 86.9664 152.862 86.4544C154.347 85.072 156.139 83.9456 158.084 83.2288C158.443 83.0752 158.852 83.024 159.211 83.1264C159.416 83.2288 159.62 83.3824 159.774 83.536C159.825 83.6384 159.928 83.6896 160.03 83.7408C160.44 83.9968 161.054 83.4848 161.566 83.0752C162.078 82.6656 162.744 82.4608 163.409 82.6144C163.716 80.6688 165.201 79.184 167.147 78.8768C167.352 78.8256 167.556 78.8256 167.812 78.8256C167.915 78.8256 168.017 78.8768 168.068 78.928C168.12 78.9792 168.171 79.0816 168.171 79.184C167.659 83.536 165.969 88.4 163.409 92.9568C162.897 93.8784 162.334 94.8 161.72 95.6704C159.262 99.2032 156.19 102.224 152.657 104.579C152.504 104.682 152.401 104.682 152.35 104.682ZM158.75 83.792C158.596 83.792 158.392 83.8432 158.238 83.8944C156.395 84.56 154.705 85.6352 153.272 86.9664C152.76 87.3248 152.401 87.888 152.299 88.5024C152.196 89.0144 152.452 89.5776 152.964 89.7824C153.067 89.8336 153.169 89.936 153.22 90.0384C153.272 90.1408 153.22 90.2944 153.118 90.3968C152.145 91.3184 151.736 92.6496 151.94 93.9808C152.043 94.3392 152.145 94.6976 152.248 95.0048C152.504 95.568 152.657 96.1824 152.657 96.7456C152.657 97.104 152.606 97.4624 152.555 97.8208C152.504 98.128 152.452 98.4352 152.452 98.7936C152.452 98.9984 152.504 99.8176 152.555 100.637C152.657 102.122 152.76 102.992 152.76 103.606C155.985 101.354 158.801 98.5888 161.003 95.312C161.566 94.4416 162.129 93.5712 162.641 92.6496C164.996 88.656 166.584 84.2016 167.3 79.5936H167.147C165.304 79.9008 163.972 81.488 163.972 83.3824C163.972 83.5872 163.819 83.7408 163.665 83.792C163.512 83.792 163.307 83.6896 163.307 83.536C163.307 83.4336 163.204 83.3824 163.153 83.3312C162.744 83.28 162.334 83.3824 162.027 83.6384C161.361 84.2016 160.491 84.8672 159.672 84.4064C159.518 84.304 159.364 84.2016 159.262 84.048C159.16 83.9456 159.057 83.8944 158.955 83.8432C158.852 83.792 158.801 83.792 158.75 83.792Z" fill="#231F20"/>
<path d="M163 92.8544C162.488 93.7248 161.925 94.6464 161.31 95.5168C157.931 100.586 152.76 104.477 148.101 106.832C146.411 107.702 144.619 108.419 142.725 108.931C141.803 107.6 141.496 105.757 142.315 103.658C143.595 100.278 148.203 99.7664 151.326 99.7664C151.224 98.5376 150.814 97.3088 151.173 96.08C151.531 94.8512 152.606 93.7248 153.835 93.8784C154.193 93.9296 154.552 94.032 154.859 93.8272C155.064 93.6224 155.217 93.3664 155.269 93.0592C155.627 92.0352 156.446 91.216 157.521 90.9088C159.416 90.2944 161.669 91.216 163 92.8544Z" fill="white"/>
<path d="M142.725 109.29C142.622 109.29 142.52 109.238 142.417 109.136C141.342 107.6 141.189 105.603 141.957 103.504C143.185 100.176 147.435 99.408 150.917 99.408C150.865 99.2544 150.865 99.0496 150.814 98.896C150.609 97.9232 150.609 96.9504 150.763 96.0288C151.121 94.6976 152.35 93.4176 153.835 93.5712L154.04 93.6224C154.193 93.6736 154.398 93.6736 154.603 93.6224C154.705 93.4688 154.808 93.3152 154.808 93.1616L154.859 93.0592C155.269 91.9328 156.19 91.0112 157.317 90.6528C159.313 89.936 161.771 90.7552 163.256 92.6496C163.358 92.752 163.358 92.9056 163.307 93.0592C162.795 93.9808 162.232 94.9024 161.617 95.7728C158.597 100.278 153.733 104.426 148.254 107.19C146.513 108.061 144.721 108.778 142.827 109.341L142.725 109.29ZM151.019 100.125C147.742 100.125 143.749 100.79 142.622 103.76C141.957 105.552 142.059 107.242 142.827 108.522C144.568 108.01 146.257 107.344 147.845 106.525C153.221 103.811 157.982 99.7664 160.952 95.3632C161.464 94.544 161.976 93.7248 162.488 92.9056C161.208 91.4208 159.16 90.7552 157.521 91.3184C156.6 91.6256 155.832 92.3424 155.525 93.264L155.473 93.3664C155.422 93.6736 155.269 93.9808 155.013 94.1856C154.705 94.3904 154.296 94.3904 153.937 94.3392L153.733 94.288C152.657 94.1856 151.685 95.2096 151.429 96.2336C151.275 97.104 151.275 97.9744 151.48 98.8448C151.531 99.152 151.582 99.4592 151.633 99.8176C151.633 100.022 151.531 100.176 151.326 100.227C151.326 100.227 151.326 100.227 151.275 100.227L151.019 100.125Z" fill="#231F20"/>
<path d="M147.793 106.269C147.844 106.474 147.947 106.678 148.1 106.832C145.131 108.317 142.417 109.187 140.472 109.341C140.779 108.778 140.984 108.163 141.035 107.498C141.035 106.064 138.577 105.706 138.372 103.094C138.219 101.61 138.884 100.125 140.113 99.2543L140.523 99.2032L145.796 98.2303C147.281 98.5887 148.408 99.7664 148.817 101.251C149.432 103.76 147.281 104.938 147.793 106.269Z" fill="white"/>
<path d="M140.471 109.699C140.369 109.699 140.267 109.648 140.164 109.546C140.113 109.443 140.113 109.29 140.164 109.187C140.471 108.675 140.625 108.112 140.676 107.498C140.676 107.037 140.318 106.73 139.755 106.218C139.038 105.552 138.116 104.733 137.963 103.146C137.758 101.507 138.526 99.8688 139.857 98.9472C139.908 98.9472 139.959 98.896 139.959 98.896L145.643 97.872C145.694 97.872 145.745 97.872 145.796 97.872C147.383 98.2816 148.663 99.5104 149.073 101.149C149.483 102.685 148.919 103.76 148.51 104.63C148.151 105.296 147.947 105.757 148.1 106.166C148.151 106.32 148.254 106.474 148.356 106.627C148.407 106.73 148.459 106.832 148.407 106.934C148.356 107.037 148.305 107.139 148.203 107.19C145.284 108.675 142.468 109.597 140.42 109.75L140.471 109.699ZM140.215 99.6128C139.14 100.432 138.526 101.763 138.679 103.094C138.782 104.426 139.55 105.091 140.215 105.706C140.779 106.218 141.342 106.73 141.342 107.549C141.342 108.01 141.239 108.522 141.035 108.931C143.287 108.522 145.489 107.754 147.588 106.73C147.537 106.627 147.486 106.525 147.486 106.422C147.179 105.654 147.537 104.989 147.895 104.323C148.305 103.504 148.766 102.582 148.407 101.354C148.1 100.022 147.076 98.9984 145.745 98.64L140.215 99.6128Z" fill="#231F20"/>
<path d="M145.172 95.2117L139.934 96.1685L140.476 99.1401L145.714 98.1832L145.172 95.2117Z" fill="white"/>
<path d="M140.472 99.5104C140.42 99.5104 140.318 99.5104 140.267 99.4592C140.164 99.408 140.113 99.3056 140.113 99.2544L139.55 96.2336C139.499 96.0288 139.652 95.8752 139.857 95.824L145.131 94.8512C145.233 94.8512 145.336 94.8512 145.387 94.9024C145.489 94.9536 145.54 95.056 145.54 95.1072L146.104 98.0768C146.155 98.2816 146.001 98.4352 145.848 98.4864L140.574 99.4592L140.472 99.5104ZM140.369 96.4384L140.779 98.7424L145.336 97.9232L144.926 95.6192L140.369 96.4384Z" fill="#231F20"/>
<path d="M157.828 87.376C157.623 87.376 157.47 87.2224 157.47 87.0176C157.47 86.9152 157.521 86.8128 157.572 86.7616C160.183 83.9456 163.102 85.2256 163.153 85.2256C163.307 85.328 163.409 85.5328 163.358 85.6864C163.255 85.8912 163.051 85.9424 162.897 85.8912C162.795 85.84 160.388 84.816 158.135 87.2224C158.033 87.3248 157.931 87.376 157.828 87.376Z" fill="#D1D3D4"/>
<path d="M153.835 101.558C153.63 101.558 153.527 101.405 153.476 101.251C153.22 99.7152 153.374 98.128 153.886 96.6432C154.5 95.1072 155.883 93.9808 157.521 93.7248C157.726 93.7248 157.879 93.8784 157.879 94.0832C157.879 94.2368 157.777 94.3904 157.572 94.4416C156.19 94.6464 155.012 95.6192 154.551 96.9504C154.039 98.3328 153.937 99.7664 154.193 101.2C154.193 101.354 154.039 101.507 153.835 101.558Z" fill="#D1D3D4"/>
<path d="M146.974 94.3392C146.769 94.3392 146.615 94.1856 146.615 93.9808C146.666 93.2128 146.974 92.4448 147.486 91.8816C147.946 91.3184 148.51 90.8576 149.124 90.448C149.278 90.3456 149.534 90.3968 149.636 90.5504C149.738 90.704 149.687 90.96 149.534 91.0624C148.97 91.4208 148.458 91.8304 148.049 92.2912C147.639 92.752 147.383 93.3664 147.332 93.9808C147.332 94.1856 147.178 94.3392 146.974 94.3392Z" fill="#D1D3D4"/>
<path d="M153.681 137.04C153.579 137.04 153.476 136.989 153.374 136.886C153.272 136.733 153.272 136.528 153.425 136.374C165.355 127.978 170.014 96.336 170.065 95.9776C170.116 95.7728 170.27 95.6704 170.475 95.6704C170.68 95.7216 170.782 95.8752 170.782 96.08C169.861 101.866 168.581 107.6 166.942 113.232C163.358 125.366 158.955 133.354 153.835 136.938C153.835 136.989 153.784 137.04 153.681 137.04Z" fill="#D1D3D4"/>
<path d="M148.203 153.322C145.694 153.322 143.236 152.707 141.035 151.53C140.881 151.427 140.779 151.222 140.881 151.069C140.983 150.915 141.188 150.813 141.342 150.915C141.342 150.915 141.393 150.915 141.393 150.966C141.854 151.222 152.196 157.213 160.081 145.488C160.183 145.334 160.439 145.283 160.593 145.386C160.747 145.488 160.798 145.693 160.695 145.898C156.702 151.786 152.043 153.322 148.203 153.322Z" fill="#D1D3D4"/>
<path d="M161.259 175.286C161.207 175.286 161.156 175.286 161.105 175.235C160.951 175.133 160.849 174.928 160.951 174.774C160.951 174.774 160.951 174.774 160.951 174.723C163.153 170.883 168.324 169.091 172.42 170.678C173.905 163.818 180.612 158.39 187.627 158.39H187.78C187.985 158.39 188.139 158.544 188.139 158.749C188.139 158.954 187.985 159.107 187.78 159.107H187.627C180.817 159.107 174.263 164.534 173.035 171.242C172.983 171.446 172.83 171.549 172.625 171.549C172.574 171.549 172.574 171.549 172.523 171.498C168.478 169.808 163.819 171.344 161.566 175.082C161.515 175.184 161.412 175.286 161.259 175.286Z" fill="#D1D3D4"/>
<path d="M261.713 174.57C261.662 174.57 261.559 174.57 261.508 174.518C261.355 174.416 261.303 174.211 261.406 174.006C263.863 170.371 264.529 167.453 263.403 165.251C261.201 160.95 252.907 160.746 252.804 160.746C252.702 160.746 252.599 160.694 252.497 160.592C252.446 160.49 252.395 160.387 252.446 160.285C253.623 156.803 253.623 154.346 252.395 152.963C250.705 151.069 247.275 151.786 247.223 151.786C247.07 151.837 246.916 151.734 246.814 151.581C243.742 145.283 238.161 147.126 237.905 147.229C237.7 147.28 237.495 147.229 237.444 147.024C237.393 146.819 237.444 146.614 237.649 146.563C237.649 146.563 237.649 146.563 237.7 146.563C237.751 146.563 243.998 144.464 247.377 151.069C248.299 150.915 251.268 150.608 252.958 152.502C254.34 154.038 254.443 156.598 253.316 160.08C255.211 160.182 261.918 160.899 264.017 164.944C265.297 167.402 264.58 170.576 261.969 174.467C261.918 174.518 261.815 174.57 261.713 174.57Z" fill="#D1D3D4"/>
<path d="M268.984 177.283H57.0156C56.8108 177.283 56.6572 177.13 56.6572 176.925C56.6572 176.72 56.8108 176.566 57.0156 176.566H268.984C269.188 176.566 269.342 176.72 269.342 176.925C269.342 177.078 269.188 177.283 268.984 177.283Z" fill="#D1D3D4"/>
<path d="M254.443 167.555C254.238 167.555 254.084 167.402 254.084 167.197C254.084 164.381 253.265 162.23 251.729 160.797C249.169 158.544 245.431 158.954 245.38 159.005C245.175 159.005 245.022 158.902 244.971 158.698C244.971 158.493 245.073 158.339 245.278 158.288C245.432 158.288 249.374 157.827 252.19 160.285C253.931 161.821 254.801 164.176 254.801 167.197C254.801 167.402 254.648 167.555 254.443 167.555Z" fill="#D1D3D4"/>
<path d="M65.2586 175.594C61.3674 175.594 56.9642 169.091 56.7594 168.784C56.657 168.682 56.657 168.528 56.7594 168.374C56.8618 168.272 57.0154 168.221 57.1178 168.221C59.8826 168.784 63.1594 170.576 65.4634 171.958C62.3914 168.272 60.2922 163.818 59.3706 159.107C59.3706 159.005 59.3706 158.851 59.473 158.8C59.5754 158.698 59.6778 158.698 59.7802 158.698C64.5418 159.875 67.5626 164.739 69.2522 168.63C67.6138 158.442 68.3818 151.069 68.3818 151.018C68.3818 150.813 68.5866 150.659 68.7914 150.71C68.8938 150.71 68.945 150.762 69.0474 150.813C77.3418 160.49 75.9594 173.955 75.9082 174.109C75.9082 174.314 75.7034 174.467 75.4986 174.416C75.2938 174.416 75.1402 174.211 75.1914 174.006C75.1914 173.904 76.4714 161.36 69.0474 151.939C68.689 159.261 69.3546 166.634 71.0442 173.802C71.0442 173.904 71.0954 173.955 71.0954 173.955C71.1466 174.16 71.0442 174.365 70.8394 174.365C70.6346 174.416 70.481 174.314 70.4298 174.109V174.058C70.225 173.187 67.409 161.821 60.2922 159.517C60.7018 161.565 62.5962 168.733 68.3818 173.75C68.5354 173.853 68.5866 174.109 68.433 174.262C68.3306 174.416 68.0746 174.467 67.921 174.314C67.8698 174.262 62.3914 170.371 57.9882 169.091C59.2682 170.832 62.545 174.774 65.3098 174.774C65.5146 174.774 65.6682 174.928 65.6682 175.133C65.617 175.44 65.4634 175.594 65.2586 175.594Z" fill="#D1D3D4"/>
</g>
<defs>
<clipPath id="clip0_180_4765">
<rect width="325" height="207" fill="white"/>
</clipPath>
</defs>
</svg>
