<svg width="325" height="207" viewBox="0 0 325 207" fill="none" xmlns="http://www.w3.org/2000/svg">
<path opacity="0.35" d="M274.454 143.925C274.942 131.27 228.872 119.217 171.553 117.005C114.235 114.793 67.3727 123.259 66.8843 135.915C66.3959 148.57 112.466 160.623 169.785 162.835C227.103 165.047 273.965 156.581 274.454 143.925Z" fill="#168F3F"/>
<path opacity="0.18" d="M200.356 3.67491C250.316 -2.64487 267.454 37.1422 270.308 51.1288C276.959 83.7512 267.983 96.0238 267.348 108.47C266.67 121.858 284 130.799 284 144.221C283.918 158.695 278.215 172.566 268.104 182.888C253.887 197.271 232.851 202.688 212.695 203.745C192.54 204.802 172.312 202.161 152.152 203.248C133.06 204.276 35.1512 185.36 51.9234 96.4293C56.4954 72.1593 95.6032 65.7864 116.144 49.5162C132.632 36.4132 147.623 10.3471 200.356 3.67008V3.67491Z" fill="#168F3F"/>
<path d="M233.882 41.4417H87.5682C78.9372 41.4417 71.9404 48.4386 71.9404 57.0696V121.092C71.9404 129.723 78.9372 136.72 87.5682 136.72H233.882C242.513 136.72 249.51 129.723 249.51 121.092V57.0696C249.51 48.4386 242.513 41.4417 233.882 41.4417Z" fill="#2D3748"/>
<path d="M168.031 65.519L148.195 90.374H159.681L151.85 112.642L173.255 86.4581H160.725L168.031 65.519Z" fill="#168F3F"/>
<path d="M153.254 104.663C153.17 104.663 153.087 104.643 153.013 104.606C149.605 102.913 146.85 100.145 145.171 96.7308C143.492 93.3162 142.984 89.4442 143.723 85.712C144.463 81.9797 146.41 78.5945 149.265 76.0785C152.119 73.5625 155.722 72.0555 159.517 71.7899C159.589 71.785 159.66 71.7941 159.728 71.8169C159.796 71.8396 159.858 71.8755 159.912 71.9224C159.966 71.9694 160.01 72.0265 160.042 72.0905C160.074 72.1545 160.093 72.2241 160.098 72.2954C160.103 72.3667 160.094 72.4383 160.071 72.506C160.048 72.5738 160.012 72.6364 159.965 72.6903C159.918 72.7442 159.861 72.7883 159.797 72.8202C159.733 72.852 159.664 72.8709 159.592 72.8758C156.035 73.125 152.658 74.5378 149.982 76.8963C147.307 79.2548 145.482 82.428 144.789 85.9264C144.095 89.4248 144.572 93.0542 146.146 96.2547C147.72 99.4552 150.303 102.049 153.496 103.636C153.607 103.69 153.697 103.78 153.75 103.892C153.803 104.003 153.817 104.129 153.788 104.249C153.76 104.369 153.692 104.476 153.594 104.553C153.497 104.629 153.377 104.669 153.254 104.668V104.663Z" fill="#168F3F"/>
<path d="M160.726 106.414C160.323 106.414 159.918 106.401 159.523 106.374C159.379 106.364 159.245 106.297 159.15 106.188C159.055 106.079 159.007 105.937 159.017 105.793C159.027 105.649 159.094 105.515 159.203 105.42C159.312 105.325 159.454 105.278 159.598 105.288C159.968 105.313 160.348 105.326 160.726 105.326C164.475 105.326 168.108 104.029 171.01 101.655C173.912 99.282 175.904 95.9781 176.648 92.3038C177.392 88.6295 176.843 84.8109 175.094 81.4952C173.344 78.1795 170.502 75.5708 167.049 74.1113C166.917 74.0545 166.814 73.948 166.76 73.815C166.707 73.682 166.708 73.5332 166.764 73.4012C166.82 73.2692 166.926 73.1646 167.058 73.1102C167.191 73.0559 167.34 73.0562 167.472 73.1111C171.156 74.6683 174.188 77.4514 176.054 80.9886C177.921 84.5259 178.507 88.5998 177.712 92.5196C176.918 96.4394 174.793 99.9641 171.697 102.496C168.601 105.028 164.725 106.412 160.726 106.412V106.414Z" fill="#168F3F"/>
<path d="M80.7275 53.7066C80.7275 53.3128 80.8443 52.9279 81.0631 52.6005C81.2819 52.273 81.5928 52.0178 81.9567 51.8671C82.3205 51.7164 82.7208 51.677 83.1071 51.7538C83.4933 51.8306 83.8481 52.0203 84.1265 52.2987C84.405 52.5772 84.5946 52.932 84.6714 53.3182C84.7483 53.7044 84.7088 54.1048 84.5581 54.4686C84.4074 54.8324 84.1522 55.1434 83.8248 55.3622C83.4974 55.5809 83.1124 55.6977 82.7186 55.6977C82.4571 55.6978 82.1982 55.6463 81.9566 55.5463C81.715 55.4463 81.4955 55.2996 81.3106 55.1147C81.1257 54.9298 80.979 54.7103 80.879 54.4687C80.7789 54.2271 80.7275 53.9681 80.7275 53.7066Z" fill="#168F3F"/>
<path d="M80.7275 59.0707C80.7275 58.6769 80.8443 58.292 81.0631 57.9645C81.2819 57.6371 81.5928 57.3819 81.9567 57.2312C82.3205 57.0805 82.7208 57.0411 83.1071 57.1179C83.4933 57.1947 83.8481 57.3844 84.1265 57.6628C84.405 57.9413 84.5946 58.2961 84.6714 58.6823C84.7483 59.0685 84.7088 59.4689 84.5581 59.8327C84.4074 60.1965 84.1522 60.5075 83.8248 60.7262C83.4974 60.945 83.1124 61.0618 82.7186 61.0618C82.4571 61.0619 82.1982 61.0104 81.9566 60.9104C81.715 60.8103 81.4955 60.6637 81.3106 60.4788C81.1257 60.2939 80.979 60.0744 80.879 59.8328C80.7789 59.5912 80.7275 59.3322 80.7275 59.0707Z" fill="#168F3F"/>
<path d="M80.7275 64.4345C80.7275 64.0407 80.8443 63.6558 81.0631 63.3284C81.2819 63.0009 81.5928 62.7457 81.9567 62.595C82.3205 62.4443 82.7208 62.4049 83.1071 62.4817C83.4933 62.5586 83.8481 62.7482 84.1265 63.0266C84.405 63.3051 84.5946 63.6599 84.6714 64.0461C84.7483 64.4323 84.7088 64.8327 84.5581 65.1965C84.4074 65.5603 84.1522 65.8713 83.8248 66.0901C83.4974 66.3088 83.1124 66.4256 82.7186 66.4256C82.1906 66.4256 81.6841 66.2159 81.3107 65.8425C80.9373 65.4691 80.7275 64.9626 80.7275 64.4345Z" fill="#168F3F"/>
<path d="M80.7275 69.8007C80.7275 69.4069 80.8443 69.0219 81.0631 68.6945C81.2819 68.3671 81.5928 68.1119 81.9567 67.9612C82.3205 67.8105 82.7208 67.771 83.1071 67.8479C83.4933 67.9247 83.8481 68.1143 84.1265 68.3928C84.405 68.6713 84.5946 69.026 84.6714 69.4123C84.7483 69.7985 84.7088 70.1988 84.5581 70.5627C84.4074 70.9265 84.1522 71.2374 83.8248 71.4562C83.4974 71.675 83.1124 71.7918 82.7186 71.7918C82.1906 71.7918 81.6841 71.582 81.3107 71.2086C80.9373 70.8352 80.7275 70.3288 80.7275 69.8007Z" fill="#D9E2ED"/>
<path d="M87.7515 96.1321C92.1168 95.5947 95.22 91.6203 94.6826 87.255C94.1452 82.8897 90.1708 79.7865 85.8055 80.3239C81.4402 80.8613 78.337 84.8357 78.8744 89.201C79.4118 93.5663 83.3862 96.6695 87.7515 96.1321Z" fill="#D9E2ED"/>
<path d="M83.7349 86.9459C83.6982 87.0445 83.7021 87.1536 83.7459 87.2493C83.7896 87.345 83.8695 87.4193 83.9681 87.4561C84.0667 87.4928 84.1758 87.4888 84.2715 87.4451C84.3671 87.4014 84.4415 87.3214 84.4782 87.2228C84.7134 86.5917 85.1629 86.0633 85.7481 85.7298C86.3333 85.3964 87.0171 85.2792 87.6799 85.3987C88.3428 85.5182 88.9426 85.8668 89.3745 86.3835C89.8065 86.9003 90.0431 87.5525 90.0431 88.226C90.0431 88.8995 89.8065 89.5516 89.3745 90.0684C88.9426 90.5852 88.3428 90.9338 87.6799 91.0533C87.0171 91.1728 86.3333 91.0556 85.7481 90.7221C85.1629 90.3887 84.7134 89.8603 84.4782 89.2291C84.4601 89.1803 84.4325 89.1356 84.3971 89.0974C84.3616 89.0593 84.319 89.0285 84.2717 89.0068C84.2243 88.9851 84.1732 88.973 84.1211 88.9711C84.0691 88.9691 84.0172 88.9775 83.9684 88.9957C83.9196 89.0138 83.8748 89.0414 83.8367 89.0768C83.7985 89.1123 83.7677 89.1549 83.7461 89.2022C83.7244 89.2496 83.7122 89.3007 83.7103 89.3528C83.7084 89.4048 83.7168 89.4567 83.7349 89.5055C84.035 90.3111 84.6086 90.9857 85.3555 91.4114C86.1024 91.8371 86.9751 91.9867 87.8212 91.8343C88.6673 91.6818 89.4329 91.237 89.9843 90.5774C90.5356 89.9178 90.8377 89.0854 90.8377 88.2257C90.8377 87.366 90.5356 86.5337 89.9843 85.8741C89.4329 85.2145 88.6673 84.7696 87.8212 84.6171C86.9751 84.4647 86.1024 84.6144 85.3555 85.04C84.6086 85.4657 84.035 86.1403 83.7349 86.9459Z" fill="#2D3748"/>
<path d="M87.5681 88.2289C87.5681 88.1768 87.5579 88.1252 87.538 88.077C87.5182 88.0289 87.489 87.9851 87.4522 87.9483C87.4153 87.9114 87.3716 87.8821 87.3235 87.8622C87.2754 87.8422 87.2238 87.832 87.1717 87.832H83.1151C83.0125 87.8358 82.9153 87.8792 82.844 87.9532C82.7727 88.0272 82.7329 88.1259 82.7329 88.2286C82.7329 88.3313 82.7727 88.4301 82.844 88.504C82.9153 88.578 83.0125 88.6215 83.1151 88.6253H87.1717C87.2768 88.6253 87.3776 88.5835 87.452 88.5092C87.5263 88.4348 87.5681 88.334 87.5681 88.2289Z" fill="#2D3748"/>
<path d="M71.9409 168.99C71.6529 168.99 71.3767 168.876 71.173 168.672C70.9694 168.469 70.855 168.192 70.855 167.904V159.558C70.855 159.27 70.9694 158.994 71.173 158.79C71.3767 158.586 71.6529 158.472 71.9409 158.472H265.828V19.2859H193.063C192.775 19.2859 192.499 19.1715 192.295 18.9679C192.091 18.7642 191.977 18.488 191.977 18.2C191.977 17.912 192.091 17.6358 192.295 17.4321C192.499 17.2285 192.775 17.114 193.063 17.114H266.914C267.202 17.114 267.478 17.2285 267.682 17.4321C267.886 17.6358 268 17.912 268 18.2V159.558C268 159.846 267.886 160.122 267.682 160.326C267.478 160.529 267.202 160.644 266.914 160.644H73.0269V167.904C73.0269 168.192 72.9125 168.469 72.7088 168.672C72.5051 168.876 72.2289 168.99 71.9409 168.99Z" fill="#2D3748"/>
<path d="M67.7793 196.92H75.9782V199.683C75.9782 200.19 75.7768 200.676 75.4184 201.035C75.0599 201.393 74.5738 201.594 74.0669 201.594H69.6911C69.1842 201.594 68.6981 201.393 68.3396 201.035C67.9812 200.676 67.7798 200.19 67.7798 199.683L67.7793 196.92Z" fill="#EDE9ED"/>
<path d="M74.0137 198.395H69.5645C69.0928 198.395 68.7104 198.777 68.7104 199.249V200.348C68.7104 200.819 69.0928 201.202 69.5645 201.202H74.0137C74.4854 201.202 74.8678 200.819 74.8678 200.348V199.249C74.8678 198.777 74.4854 198.395 74.0137 198.395Z" fill="#B3B3B3"/>
<path d="M69.7264 198.882H69.355V200.648H69.7264V198.882Z" fill="#F4F4F6"/>
<path d="M70.3587 198.882H69.9873V200.648H70.3587V198.882Z" fill="#F4F4F6"/>
<path d="M70.9891 198.882H70.6177V200.648H70.9891V198.882Z" fill="#F4F4F6"/>
<path d="M71.6204 198.882H71.249V200.648H71.6204V198.882Z" fill="#F4F4F6"/>
<path d="M72.2503 198.882H71.8789V200.648H72.2503V198.882Z" fill="#F4F4F6"/>
<path d="M72.8826 198.882H72.5112V200.648H72.8826V198.882Z" fill="#F4F4F6"/>
<path d="M73.5125 198.882H73.1411V200.648H73.5125V198.882Z" fill="#F4F4F6"/>
<path d="M74.1448 198.882H73.7734V200.648H74.1448V198.882Z" fill="#F4F4F6"/>
<path d="M77.1983 172.43H66.6831C66.3058 172.43 66 172.735 66 173.113V196.072C66 196.449 66.3058 196.755 66.6831 196.755H77.1983C77.5755 196.755 77.8813 196.449 77.8813 196.072V173.113C77.8813 172.735 77.5755 172.43 77.1983 172.43Z" fill="#168F3F"/>
<path d="M73.4429 167.903H70.2817V172.428H73.4429V167.903Z" fill="#A7E8E2"/>
<path d="M188.446 7.50815H190.754C191.366 7.50815 191.953 7.75127 192.386 8.18404C192.818 8.6168 193.062 9.20376 193.062 9.81578V26.5828C193.062 27.1948 192.818 27.7817 192.386 28.2145C191.953 28.6473 191.366 28.8904 190.754 28.8904H188.446V7.50815Z" fill="#A7E8E2"/>
<path d="M145.789 8.6214H124.972V29.4395H145.789V8.6214Z" fill="#EDE9ED"/>
<path d="M138.25 11.5844H133.335V16.4999H138.25V11.5844Z" fill="#B3B3B3"/>
<path d="M138.25 21.7059H133.335V26.6214H138.25V21.7059Z" fill="#B3B3B3"/>
<path d="M130.899 11.6949H124.972V13.3574H130.899V11.6949Z" fill="#F4F4F6"/>
<path d="M130.899 14.9464H124.972V16.609H130.899V14.9464Z" fill="#F4F4F6"/>
<path d="M130.899 18.2H124.972V19.8626H130.899V18.2Z" fill="#F4F4F6"/>
<path d="M130.899 21.4534H124.972V23.1159H130.899V21.4534Z" fill="#F4F4F6"/>
<path d="M130.899 24.7049H124.972V26.3675H130.899V24.7049Z" fill="#F4F4F6"/>
<path d="M188.446 6H145.791V32.0616H188.446V6Z" fill="#168F3F"/>
</svg>
