<svg width="17" height="16" viewBox="0 0 17 16" fill="none" xmlns="http://www.w3.org/2000/svg">
<path d="M10.0541 7.9981V12.3742C10.0763 12.5408 10.0207 12.7185 9.89301 12.8351C9.84163 12.8866 9.78061 12.9275 9.71342 12.9553C9.64624 12.9832 9.57422 12.9976 9.50149 12.9976C9.42876 12.9976 9.35674 12.9832 9.28956 12.9553C9.22238 12.9275 9.16135 12.8866 9.10997 12.8351L7.99373 11.7189C7.9332 11.6597 7.88717 11.5873 7.85923 11.5073C7.8313 11.4273 7.82221 11.342 7.83268 11.258V7.9981H7.81602L4.61724 3.89966C4.52705 3.78389 4.48636 3.63712 4.50405 3.49144C4.52174 3.34576 4.59638 3.213 4.71165 3.12218C4.81716 3.04443 4.93378 3 5.05596 3H12.8308C12.953 3 13.0696 3.04443 13.1751 3.12218C13.2904 3.213 13.365 3.34576 13.3827 3.49144C13.4004 3.63712 13.3597 3.78389 13.2695 3.89966L10.0707 7.9981H10.0541Z" fill="#0B180F"/>
</svg>
