<svg width="26" height="22" viewBox="0 0 26 22" fill="none" xmlns="http://www.w3.org/2000/svg">
<path d="M15.1177 0.00426489C8.89776 -0.166813 3.80209 4.8311 3.80209 11.0021H1.61474L0 11.017L1.18705 12.0408L4.59638 15.4623H5.00806H5.46399L8.87332 12.0408L9.51468 11.5178L10.0155 11.017H9.01391L8.43341 11.0021H6.24606C6.24606 6.23638 10.132 2.38713 14.9221 2.44823C19.4679 2.50933 23.2927 6.33414 23.3538 10.8799C23.4149 15.6579 19.5657 19.556 14.7999 19.556C12.8325 19.556 11.0118 18.8839 9.56985 17.7475C9.3358 17.5631 9.04214 17.4712 8.74473 17.4892C8.44732 17.5072 8.16691 17.6339 7.95684 17.8452C7.4436 18.3584 7.48026 19.2261 8.05459 19.666C9.97458 21.1841 12.3523 22.0068 14.7999 22C20.971 22 25.9689 16.9043 25.7978 10.6844C25.6389 4.9533 20.8488 0.163123 15.1177 0.00426489ZM14.4944 6.11418L13.578 7.03067V11.5276L14.1767 12.5785L17.9893 14.8391L19.248 14.5214L18.9302 13.2628L15.4109 11.1732V7.01845L14.4944 6.11418Z" fill="white"/>
</svg>
