<svg width="185" height="92" viewBox="0 0 185 92" fill="none" xmlns="http://www.w3.org/2000/svg">
<g style="mix-blend-mode:color-dodge">
<path d="M16.8278 87.8176L16.4707 87.4287L20.8624 83.5377L21.2195 83.9266L16.8278 87.8176Z" fill="#099F60"/>
<path d="M19.7057 82.2253L15.1953 85.9819L15.5403 86.3823L20.0507 82.6257L19.7057 82.2253Z" fill="#099F60"/>
<path d="M18.5929 80.8857L13.9717 84.5116L14.3046 84.9218L18.9259 81.2959L18.5929 80.8857Z" fill="#099F60"/>
<path d="M17.5291 79.5237L12.8037 83.0175L13.1245 83.4369L17.8499 79.9431L17.5291 79.5237Z" fill="#099F60"/>
<path d="M16.5094 78.1392L11.6797 81.4921L11.9876 81.9208L16.8173 78.5678L16.5094 78.1392Z" fill="#099F60"/>
<path d="M15.5424 76.7347L10.6084 79.9398L10.9033 80.3786L15.8373 77.1735L15.5424 76.7347Z" fill="#099F60"/>
<path d="M14.6179 75.3063L9.5918 78.3699L9.87307 78.816L14.8991 75.7523L14.6179 75.3063Z" fill="#099F60"/>
<path d="M13.8302 73.8993L8.71484 76.8238L8.98394 77.2788L14.0993 74.3543L13.8302 73.8993Z" fill="#099F60"/>
<path d="M12.9094 72.3857L7.71387 75.1627L7.96939 75.6248L13.1649 72.8478L12.9094 72.3857Z" fill="#099F60"/>
<path d="M12.1247 70.9056L6.8457 73.5261L7.08682 73.9956L12.3658 71.3752L12.1247 70.9056Z" fill="#099F60"/>
<path d="M11.3841 69.4009L6.03418 71.8784L6.26215 72.3542L11.6121 69.8767L11.3841 69.4009Z" fill="#099F60"/>
<path d="M10.6937 67.8838L5.27344 70.2087L5.48689 70.6897L10.9072 68.3648L10.6937 67.8838Z" fill="#099F60"/>
<path d="M10.0496 66.3528L4.56348 68.5201L4.76295 69.0082L10.2491 66.8408L10.0496 66.3528Z" fill="#099F60"/>
<path d="M9.49557 64.7964L3.94922 66.8136L4.13442 67.3058L9.68077 65.2886L9.49557 64.7964Z" fill="#099F60"/>
<path d="M8.90091 63.2476L3.2959 65.1015L3.4661 65.5989L9.07112 63.745L8.90091 63.2476Z" fill="#099F60"/>
<path d="M8.39731 61.6785L2.74023 63.3727L2.89577 63.8747L8.55285 62.1806L8.39731 61.6785Z" fill="#099F60"/>
<path d="M7.93973 60.0982L2.23535 61.6314L2.37643 62.1388L8.0808 60.6056L7.93973 60.0982Z" fill="#099F60"/>
<path d="M7.52654 58.5006L1.7832 59.8861L1.9104 60.3958L7.65374 59.0103L7.52654 58.5006Z" fill="#099F60"/>
<path d="M7.1597 56.9044L1.37891 58.1245L1.4912 58.6387L7.27199 57.4186L7.1597 56.9044Z" fill="#099F60"/>
<path d="M6.84154 55.2956L1.02734 56.3576L1.12485 56.8736L6.93905 55.8115L6.84154 55.2956Z" fill="#099F60"/>
<path d="M6.59448 53.6649L0.75293 54.5601L0.835317 55.0797L6.67686 54.1845L6.59448 53.6649Z" fill="#099F60"/>
<path d="M6.32711 52.082L0.461914 52.8203L0.529857 53.342L6.39505 52.6038L6.32711 52.082Z" fill="#099F60"/>
<path d="M6.16582 50.4374L0.282227 51.0114L0.335055 51.5348L6.21865 50.9608L6.16582 50.4374Z" fill="#099F60"/>
<path d="M6.03551 48.8114L0.137695 49.2208L0.175293 49.7443L6.0731 49.3349L6.03551 48.8114Z" fill="#099F60"/>
<path d="M5.94932 47.184L0.0419922 47.4271L0.0643675 47.9526L5.97169 47.7095L5.94932 47.184Z" fill="#099F60"/>
<path d="M5.91197 45.5538L0 45.631L0.00710545 46.157L5.91908 46.0798L5.91197 45.5538Z" fill="#099F60"/>
<path d="M0.00747142 43.8415L0 44.3662L5.91192 44.4476L5.91939 43.9228L0.00747142 43.8415Z" fill="#099F60"/>
<path d="M0.0635357 42.0473L0.0410156 42.5716L5.94826 42.8168L5.97078 42.2925L0.0635357 42.0473Z" fill="#099F60"/>
<path d="M0.218029 40.1953L0.180664 40.719L6.08134 41.1259L6.1187 40.6022L0.218029 40.1953Z" fill="#099F60"/>
<path d="M0.334915 38.4639L0.282227 38.9873L6.16598 39.5598L6.21867 39.0364L0.334915 38.4639Z" fill="#099F60"/>
<path d="M0.548178 36.6788L0.480469 37.2006L6.34542 37.9363L6.41313 37.4145L0.548178 36.6788Z" fill="#099F60"/>
<path d="M0.811024 34.8986L0.728516 35.4171L6.56995 36.3156L6.65246 35.7971L0.811024 34.8986Z" fill="#099F60"/>
<path d="M1.12692 33.1257L1.0293 33.6428L6.84252 34.7035L6.94014 34.1864L1.12692 33.1257Z" fill="#099F60"/>
<path d="M1.4931 31.3622L1.38086 31.8752L7.16235 33.0977L7.27459 32.5847L1.4931 31.3622Z" fill="#099F60"/>
<path d="M1.91045 29.6022L1.7832 30.1131L7.52601 31.4957L7.65326 30.9848L1.91045 29.6022Z" fill="#099F60"/>
<path d="M2.37787 27.8565L2.23633 28.3625L7.93717 29.9039L8.07871 29.3979L2.37787 27.8565Z" fill="#099F60"/>
<path d="M2.89866 26.1223L2.74219 26.6253L8.39727 28.3258L8.55375 27.8229L2.89866 26.1223Z" fill="#099F60"/>
<path d="M3.52628 24.4165L3.35547 24.914L8.96165 26.7745L9.13246 26.277L3.52628 24.4165Z" fill="#099F60"/>
<path d="M4.09023 22.6888L3.90527 23.1811L9.4526 25.1957L9.63756 24.7034L4.09023 22.6888Z" fill="#099F60"/>
<path d="M4.76363 20.9922L4.56445 21.4791L10.0499 23.6481L10.2491 23.1613L4.76363 20.9922Z" fill="#099F60"/>
<path d="M5.48719 19.3103L5.27344 19.7924L10.6946 22.1154L10.9084 21.6333L5.48719 19.3103Z" fill="#099F60"/>
<path d="M6.26298 17.6468L6.03516 18.1227L11.3858 20.5987L11.6136 20.1228L6.26298 17.6468Z" fill="#099F60"/>
<path d="M7.08931 16.0018L6.84766 16.471L12.1237 19.0972L12.3653 18.628L7.08931 16.0018Z" fill="#099F60"/>
<path d="M7.96823 14.3748L7.71289 14.837L12.9096 17.6119L13.1649 17.1497L7.96823 14.3748Z" fill="#099F60"/>
<path d="M8.95306 12.7852L8.68457 13.2391L13.7999 16.1636L14.0684 15.7097L8.95306 12.7852Z" fill="#099F60"/>
<path d="M9.87438 11.1844L9.59277 11.6302L14.6155 14.6969L14.8971 14.2511L9.87438 11.1844Z" fill="#099F60"/>
<path d="M10.9058 9.61928L10.6104 10.0578L15.5408 13.2681L15.8362 12.8296L10.9058 9.61928Z" fill="#099F60"/>
<path d="M11.9874 8.08014L11.6797 8.50897L16.5111 11.8596L16.8188 11.4308L11.9874 8.08014Z" fill="#099F60"/>
<path d="M13.1222 6.56493L12.8018 6.98462L17.5301 10.4745L17.8506 10.0548L13.1222 6.56493Z" fill="#099F60"/>
<path d="M14.3064 5.07628L13.9727 5.48737L18.5937 9.1135L18.9274 8.70242L14.3064 5.07628Z" fill="#099F60"/>
<path d="M15.5416 3.61381L15.1963 4.01398L19.7048 7.77461L20.0501 7.37444L15.5416 3.61381Z" fill="#099F60"/>
<path d="M16.8289 2.17889L16.4707 2.56958L20.8625 6.46141L21.2207 6.07072L16.8289 2.17889Z" fill="#099F60"/>
<path d="M24.0934 82.007C17.2408 73.3882 9.43718 61.3913 9.89522 44.9928C10.4206 26.3249 16.9679 16.751 24.2136 7.81543L24.632 8.14165C15.7861 19.0523 10.9039 28.1593 10.4314 45.007C9.97697 61.2388 17.7192 73.1376 24.5154 81.6831L24.0934 82.007Z" fill="#099F60"/>
</g>
<g style="mix-blend-mode:color-dodge">
<path d="M168.171 87.8176L163.778 83.9266L164.137 83.5377L168.529 87.4287L168.171 87.8176Z" fill="#099F60"/>
<path d="M165.293 82.2269L164.948 82.6272L169.458 86.3867L169.803 85.9864L165.293 82.2269Z" fill="#099F60"/>
<path d="M166.405 80.8857L166.072 81.2958L170.693 84.9223L171.026 84.5122L166.405 80.8857Z" fill="#099F60"/>
<path d="M167.469 79.524L167.148 79.9436L171.876 83.4341L172.197 83.0145L167.469 79.524Z" fill="#099F60"/>
<path d="M168.487 78.1398L168.18 78.5687L173.011 81.9196L173.319 81.4907L168.487 78.1398Z" fill="#099F60"/>
<path d="M174.091 80.3796L169.162 77.1706L169.457 76.7309L174.387 79.9411L174.091 80.3796Z" fill="#099F60"/>
<path d="M170.38 75.3011L170.099 75.7469L175.122 78.8147L175.404 78.3689L170.38 75.3011Z" fill="#099F60"/>
<path d="M176.103 77.2307L170.99 74.3101L171.258 73.855L176.371 76.7768L176.103 77.2307Z" fill="#099F60"/>
<path d="M172.089 72.3881L171.834 72.8492L177.031 75.6243L177.285 75.1631L172.089 72.3881Z" fill="#099F60"/>
<path d="M177.909 73.9981L172.635 71.3718L172.875 70.9026L178.149 73.5277L177.909 73.9981Z" fill="#099F60"/>
<path d="M173.615 69.4005L173.387 69.8764L178.737 72.3526L178.965 71.8767L173.615 69.4005Z" fill="#099F60"/>
<path d="M174.304 67.8846L174.09 68.3667L179.511 70.6904L179.725 70.2082L174.304 67.8846Z" fill="#099F60"/>
<path d="M174.948 66.3501L174.748 66.838L180.234 69.008L180.434 68.52L174.948 66.3501Z" fill="#099F60"/>
<path d="M175.546 64.8069L175.361 65.2981L180.909 67.3123L181.093 66.8212L175.546 64.8069Z" fill="#099F60"/>
<path d="M181.529 65.6017L175.926 63.7436L176.096 63.246L181.701 65.1041L181.529 65.6017Z" fill="#099F60"/>
<path d="M176.599 61.6745L176.443 62.1763L182.099 63.8765L182.255 63.3746L176.599 61.6745Z" fill="#099F60"/>
<path d="M177.062 60.0948L176.92 60.6019L182.621 62.1428L182.763 61.6357L177.062 60.0948Z" fill="#099F60"/>
<path d="M177.473 58.5027L177.346 59.0125L183.09 60.3954L183.217 59.8856L177.473 58.5027Z" fill="#099F60"/>
<path d="M177.864 56.8301L177.752 57.3445L183.534 58.5652L183.647 58.0508L177.864 56.8301Z" fill="#099F60"/>
<path d="M183.873 56.873L178.059 55.8116L178.155 55.2963L183.969 56.3565L183.873 56.873Z" fill="#099F60"/>
<path d="M178.428 53.6822L178.346 54.2019L184.187 55.0998L184.27 54.5801L178.428 53.6822Z" fill="#099F60"/>
<path d="M178.65 52.0617L178.582 52.5834L184.447 53.3186L184.515 52.7969L178.65 52.0617Z" fill="#099F60"/>
<path d="M178.829 50.439L178.776 50.9624L184.66 51.5349L184.713 51.0115L178.829 50.439Z" fill="#099F60"/>
<path d="M178.963 48.813L178.926 49.3365L184.824 49.7463L184.861 49.2228L178.963 48.813Z" fill="#099F60"/>
<path d="M179.047 47.1832L179.024 47.7087L184.932 47.9534L184.954 47.4279L179.047 47.1832Z" fill="#099F60"/>
<path d="M179.088 45.5529L179.08 46.0788L184.992 46.1603L184.999 45.6344L179.088 45.5529Z" fill="#099F60"/>
<path d="M184.992 43.8424L179.08 43.9183L179.087 44.443L184.999 44.3671L184.992 43.8424Z" fill="#099F60"/>
<path d="M184.931 42.0394L179.024 42.2946L179.048 42.8188L184.955 42.5637L184.931 42.0394Z" fill="#099F60"/>
<path d="M184.823 40.2523L178.925 40.6617L178.962 41.1852L184.86 40.7758L184.823 40.2523Z" fill="#099F60"/>
<path d="M184.662 38.4638L178.778 39.0378L178.831 39.5612L184.715 38.9872L184.662 38.4638Z" fill="#099F60"/>
<path d="M184.448 36.6778L178.584 37.4179L178.652 37.9396L184.516 37.1995L184.448 36.6778Z" fill="#099F60"/>
<path d="M184.186 34.9031L178.344 35.7957L178.426 36.3142L184.268 35.4216L184.186 34.9031Z" fill="#099F60"/>
<path d="M178.155 34.7041L178.059 34.1864L183.873 33.1262L183.969 33.6427L178.155 34.7041Z" fill="#099F60"/>
<path d="M183.507 31.3602L177.727 32.5868L177.839 33.0998L183.62 31.8732L183.507 31.3602Z" fill="#099F60"/>
<path d="M183.089 29.6049L177.344 30.9836L177.471 31.4946L183.216 30.1158L183.089 29.6049Z" fill="#099F60"/>
<path d="M182.619 27.8531L176.92 29.3999L177.062 29.9058L182.761 28.359L182.619 27.8531Z" fill="#099F60"/>
<path d="M182.099 26.1167L176.447 27.8277L176.605 28.3304L182.257 26.6194L182.099 26.1167Z" fill="#099F60"/>
<path d="M176.096 26.7544L175.926 26.2568L181.529 24.3987L181.701 24.8952L176.096 26.7544Z" fill="#099F60"/>
<path d="M175.545 25.1951L175.361 24.7022L180.908 22.687L181.093 23.1798L175.545 25.1951Z" fill="#099F60"/>
<path d="M180.234 20.9914L174.749 23.1648L174.949 23.6515L180.434 21.4782L180.234 20.9914Z" fill="#099F60"/>
<path d="M179.511 19.3117L174.09 21.6342L174.304 22.1164L179.725 19.7939L179.511 19.3117Z" fill="#099F60"/>
<path d="M178.739 17.6515L173.383 20.1168L173.61 20.5932L178.965 18.1279L178.739 17.6515Z" fill="#099F60"/>
<path d="M172.875 19.0966L172.635 18.6286L177.909 16.0023L178.149 16.4715L172.875 19.0966Z" fill="#099F60"/>
<path d="M177.037 14.3824L171.833 17.1447L172.087 17.6065L177.29 14.8442L177.037 14.3824Z" fill="#099F60"/>
<path d="M176.106 12.7726L170.99 15.6896L171.258 16.1435L176.374 13.2266L176.106 12.7726Z" fill="#099F60"/>
<path d="M175.124 11.1833L170.1 14.2499L170.381 14.6958L175.405 11.6292L175.124 11.1833Z" fill="#099F60"/>
<path d="M174.094 9.62174L169.162 12.8283L169.457 13.267L174.389 10.0605L174.094 9.62174Z" fill="#099F60"/>
<path d="M173.012 8.08148L168.179 11.4289L168.487 11.8589L173.321 8.51149L173.012 8.08148Z" fill="#099F60"/>
<path d="M171.881 6.56918L167.145 10.049L167.464 10.4693L172.2 6.98955L171.881 6.56918Z" fill="#099F60"/>
<path d="M170.692 5.0766L166.072 8.70416L166.406 9.11515L171.026 5.48758L170.692 5.0766Z" fill="#099F60"/>
<path d="M169.455 3.61289L164.951 7.37848L165.297 7.77827L169.801 4.01268L169.455 3.61289Z" fill="#099F60"/>
<path d="M168.171 2.18087L163.778 6.07202L164.136 6.46277L168.529 2.57161L168.171 2.18087Z" fill="#099F60"/>
<path d="M160.905 82.007L160.486 81.6831C167.282 73.134 175.025 61.2352 174.57 45.007C174.097 28.1581 169.215 19.0523 160.369 8.14165L160.788 7.81543C168.033 16.7522 174.579 26.3202 175.104 44.9928C175.56 61.3925 167.758 73.3882 160.905 82.007Z" fill="#099F60"/>
</g>
<path style="mix-blend-mode:color-dodge" d="M151.113 16.8873C155.198 20.9731 158.439 25.8236 160.651 31.1619C162.862 36.5003 164 42.2218 164 48C164 53.7782 162.862 59.4997 160.651 64.8381C158.439 70.1764 155.198 75.0269 151.113 79.1127L148.442 76.4417C152.177 72.7067 155.139 68.2726 157.161 63.3925C159.182 58.5125 160.223 53.2821 160.223 48C160.223 42.7179 159.182 37.4875 157.161 32.6075C155.139 27.7275 152.177 23.2933 148.442 19.5583L151.113 16.8873Z" fill="url(#paint0_radial_182_8280)"/>
<path style="mix-blend-mode:color-dodge" d="M142.089 21.1045C145.877 24.3039 148.925 28.4116 150.991 33.1031C153.058 37.7945 154.086 42.941 153.994 48.1358C153.903 53.3305 152.695 58.4312 150.466 63.0345C148.236 67.6378 145.046 71.6176 141.148 74.6593L139.333 71.9434C142.842 69.2058 145.712 65.624 147.719 61.481C149.726 57.3381 150.813 52.7475 150.895 48.0722C150.977 43.3969 150.052 38.765 148.192 34.5428C146.332 30.3205 143.59 26.6235 140.18 23.7441L142.089 21.1045Z" fill="url(#paint1_radial_182_8280)"/>
<path style="mix-blend-mode:color-dodge" d="M29.8873 78.1127C25.8015 74.0269 22.5605 69.1764 20.3493 63.8381C18.1381 58.4997 17 52.7782 17 47C17 41.2218 18.1381 35.5003 20.3493 30.1619C22.5605 24.8236 25.8015 19.9731 29.8873 15.8873L32.5583 18.5583C28.8233 22.2933 25.8605 26.7274 23.8392 31.6075C21.8178 36.4875 20.7774 41.7179 20.7774 47C20.7774 52.2821 21.8178 57.5125 23.8392 62.3925C25.8605 67.2725 28.8233 71.7067 32.5583 75.4417L29.8873 78.1127Z" fill="url(#paint2_radial_182_8280)"/>
<path style="mix-blend-mode:color-dodge" d="M38.9111 73.8955C35.1228 70.6961 32.075 66.5884 30.0087 61.8969C27.9425 57.2055 26.9143 52.059 27.0056 46.8642C27.0968 41.6695 28.305 36.5688 30.5345 31.9655C32.764 27.3622 35.9538 23.3824 39.8518 20.3407L41.6666 23.0566C38.1585 25.7942 35.2876 29.376 33.281 33.519C31.2745 37.6619 30.1871 42.2525 30.105 46.9278C30.0229 51.6031 30.9482 56.235 32.8079 60.4572C34.6675 64.6795 37.4105 68.3765 40.82 71.2559L38.9111 73.8955Z" fill="url(#paint3_radial_182_8280)"/>
<defs>
<radialGradient id="paint0_radial_182_8280" cx="0" cy="0" r="1" gradientUnits="userSpaceOnUse" gradientTransform="translate(120 48) rotate(-180) scale(43.9986)">
<stop offset="0.83"/>
<stop offset="0.838" stop-color="#000606"/>
<stop offset="0.849" stop-color="#00492A"/>
<stop offset="0.861" stop-color="#00492A"/>
<stop offset="0.874" stop-color="#00492A"/>
<stop offset="0.889" stop-color="#006A3D"/>
<stop offset="0.904" stop-color="#00CD77"/>
<stop offset="0.915" stop-color="#01FF94"/>
<stop offset="0.922" stop-color="#00B96B"/>
<stop offset="0.929" stop-color="#006A3D"/>
<stop offset="0.937" stop-color="#045B36"/>
<stop offset="0.946" stop-color="#00492A"/>
<stop offset="0.954" stop-color="#002D1A"/>
<stop offset="0.964" stop-color="#001D1D"/>
<stop offset="0.974" stop-color="#000C0C"/>
<stop offset="0.985" stop-color="#000303"/>
<stop offset="1"/>
</radialGradient>
<radialGradient id="paint1_radial_182_8280" cx="0" cy="0" r="1" gradientUnits="userSpaceOnUse" gradientTransform="translate(123 47.5) rotate(180) scale(30.999 33.4989)">
<stop offset="0.83"/>
<stop offset="0.838" stop-color="#000606"/>
<stop offset="0.849" stop-color="#00492A"/>
<stop offset="0.861" stop-color="#00492A"/>
<stop offset="0.874" stop-color="#00492A"/>
<stop offset="0.889" stop-color="#006A3D"/>
<stop offset="0.904" stop-color="#00CD77"/>
<stop offset="0.915" stop-color="#01FF94"/>
<stop offset="0.922" stop-color="#00B96B"/>
<stop offset="0.929" stop-color="#006A3D"/>
<stop offset="0.937" stop-color="#045B36"/>
<stop offset="0.946" stop-color="#00492A"/>
<stop offset="0.954" stop-color="#002D1A"/>
<stop offset="0.964" stop-color="#001D1D"/>
<stop offset="0.974" stop-color="#000C0C"/>
<stop offset="0.985" stop-color="#000303"/>
<stop offset="1"/>
</radialGradient>
<radialGradient id="paint2_radial_182_8280" cx="0" cy="0" r="1" gradientUnits="userSpaceOnUse" gradientTransform="translate(61 47) scale(43.9986)">
<stop offset="0.83"/>
<stop offset="0.838" stop-color="#000606"/>
<stop offset="0.849" stop-color="#00492A"/>
<stop offset="0.861" stop-color="#00492A"/>
<stop offset="0.874" stop-color="#00492A"/>
<stop offset="0.889" stop-color="#006A3D"/>
<stop offset="0.904" stop-color="#00CD77"/>
<stop offset="0.915" stop-color="#01FF94"/>
<stop offset="0.922" stop-color="#00B96B"/>
<stop offset="0.929" stop-color="#006A3D"/>
<stop offset="0.937" stop-color="#045B36"/>
<stop offset="0.946" stop-color="#00492A"/>
<stop offset="0.954" stop-color="#002D1A"/>
<stop offset="0.964" stop-color="#001D1D"/>
<stop offset="0.974" stop-color="#000C0C"/>
<stop offset="0.985" stop-color="#000303"/>
<stop offset="1"/>
</radialGradient>
<radialGradient id="paint3_radial_182_8280" cx="0" cy="0" r="1" gradientUnits="userSpaceOnUse" gradientTransform="translate(58 47.5) scale(30.999 33.4989)">
<stop offset="0.83"/>
<stop offset="0.838" stop-color="#000606"/>
<stop offset="0.849" stop-color="#00492A"/>
<stop offset="0.861" stop-color="#00492A"/>
<stop offset="0.874" stop-color="#00492A"/>
<stop offset="0.889" stop-color="#006A3D"/>
<stop offset="0.904" stop-color="#00CD77"/>
<stop offset="0.915" stop-color="#01FF94"/>
<stop offset="0.922" stop-color="#00B96B"/>
<stop offset="0.929" stop-color="#006A3D"/>
<stop offset="0.937" stop-color="#045B36"/>
<stop offset="0.946" stop-color="#00492A"/>
<stop offset="0.954" stop-color="#002D1A"/>
<stop offset="0.964" stop-color="#001D1D"/>
<stop offset="0.974" stop-color="#000C0C"/>
<stop offset="0.985" stop-color="#000303"/>
<stop offset="1"/>
</radialGradient>
</defs>
</svg>
